<svg width="81" height="81" viewBox="0 0 81 81" fill="none" xmlns="http://www.w3.org/2000/svg">
<rect x="1" y="1" width="79" height="79" rx="39.5" fill="white"/>
<rect x="1" y="1" width="79" height="79" rx="39.5" stroke="#8F9795"/>
<path d="M38.8056 20.6472C39.7272 20.5224 40.7064 20.3592 41.6088 20.6712C42.6936 21.1464 42.6936 22.9032 41.58 23.34C40.0248 23.6568 38.3256 23.5464 36.948 24.4776C33.6888 26.2776 32.4744 30.9192 34.5192 34.0488C34.9464 34.8744 35.8776 35.5944 35.628 36.6264C35.3208 37.62 33.9048 38.0664 33.1704 37.2648C29.772 33.8088 29.6376 27.8136 32.7912 24.1512C34.2984 22.3176 36.4632 21.0408 38.8056 20.6472Z" fill="#3D4946"/>
<path d="M44.9926 22.4856C45.5446 22.1256 46.3078 22.3032 46.7734 22.7256C50.287 25.4568 51.511 30.6696 49.567 34.6824C47.7094 38.8584 42.7414 41.3784 38.287 40.2264C36.9478 39.9336 36.8566 37.8744 38.1334 37.4088C39.7078 37.3128 41.3542 37.7352 42.8614 37.0728C46.2454 35.9448 48.295 31.9608 47.2198 28.548C46.855 27.0072 45.7318 25.86 44.6614 24.7656C43.9222 24.1512 44.1814 22.9032 44.9926 22.4856Z" fill="#3D4946"/>
<path d="M29.1766 44.6136C30.1462 44.4696 31.1542 44.388 32.119 44.6184C33.3142 45.0504 33.319 46.932 32.1286 47.364C30.8182 47.676 29.1766 47.2056 28.1974 48.372C26.767 50.004 27.7846 52.4376 29.1766 53.748C32.287 56.7336 36.8086 57.444 40.9558 57.54C42.0934 57.4824 42.7798 58.9512 42.1174 59.8392C41.6758 60.5544 40.7638 60.5064 40.0342 60.4968C35.815 60.396 31.4278 59.412 28.0534 56.7576C25.903 55.0728 24.2518 52.428 24.5494 49.6104C24.7654 47.1672 26.7526 45.012 29.1766 44.6136Z" fill="#3D4946"/>
<path d="M34.9701 44.6424C39.0309 44.3016 43.1445 44.604 47.2197 44.4984C49.5285 44.5752 52.1397 44.0808 54.1173 45.588C56.5557 47.268 57.1077 50.772 55.7637 53.316C53.8197 57.2088 49.4805 59.2584 45.3765 59.9832C43.8021 60.2568 43.1781 57.6888 44.6949 57.204C47.9061 56.3064 51.6261 55.0872 53.1429 51.8184C54.0693 50.1384 53.1333 47.58 51.0405 47.5416C45.8181 47.4072 40.5861 47.628 35.3685 47.4456C33.9429 47.364 33.6501 45.1464 34.9701 44.6424Z" fill="#3D4946"/>
</svg>
