<svg width="34" height="35" viewBox="0 0 34 35" fill="none" xmlns="http://www.w3.org/2000/svg">
<path d="M0 6.5C0 3.18629 2.68629 0.5 6 0.5H28C31.3137 0.5 34 3.18629 34 6.5V28.5C34 31.8137 31.3137 34.5 28 34.5H6C2.68629 34.5 0 31.8137 0 28.5V6.5Z" fill="#F7D1B7"/>
<path d="M11.6165 10.3632C14.1377 8.05537 18.1681 7.71657 21.0985 9.44137C23.7517 10.9374 25.4611 13.9998 25.2169 17.0512C25.0871 17.3086 24.8275 17.456 24.6097 17.6276C23.2721 18.5582 21.9389 19.491 20.6079 20.426C20.7223 21.801 20.6409 23.1804 20.6717 24.5576C20.7751 25.4046 20.3879 26.3858 19.4881 26.6014C18.4475 26.7532 17.3871 26.6256 16.3377 26.6674C15.5281 26.6212 14.5821 26.8566 13.9045 26.2824C13.3325 25.8226 13.2533 25.0152 13.3611 24.3376C13.4689 23.869 14.1069 23.6644 14.4655 23.9922C14.8131 24.3178 14.6701 24.848 14.7405 25.2682C16.2497 25.3056 17.7611 25.2924 19.2725 25.2748C19.3077 23.7612 19.2989 22.2454 19.2769 20.7296C17.7589 20.701 16.2387 20.701 14.7207 20.7296C14.6921 21.3544 14.7691 21.9924 14.6437 22.6106C14.4369 23.121 13.6339 23.1364 13.4095 22.6348C13.2379 22.0188 13.3677 21.372 13.3633 20.7428C13.5129 20.3688 13.1103 20.2412 12.8947 20.0564C11.6803 19.227 10.4813 18.3712 9.2713 17.533C9.0557 17.3504 8.7081 17.1766 8.7521 16.8378C8.7389 15.4518 9.0029 14.024 9.6893 12.8096C10.0479 12.2442 11.0511 12.6666 10.8817 13.32C10.6969 13.936 10.4439 14.5322 10.2701 15.1526C11.6341 14.4904 13.3809 14.6466 14.4677 15.7532C15.8075 14.4354 18.1769 14.3958 19.5013 15.7554C20.2493 15.091 21.2393 14.64 22.2601 14.7764C22.8255 14.9304 22.9113 15.8126 22.3613 16.0392C21.6507 16.2108 20.7795 16.1866 20.3131 16.8554C19.8137 17.6342 19.4727 18.5032 19.0349 19.3172C19.1823 19.3458 19.4727 19.403 19.6201 19.4316C21.0457 18.4482 22.4559 17.445 23.8771 16.455C23.8331 13.6588 21.9477 11.0716 19.3297 10.119C19.7367 11.2212 20.0315 12.3828 20.0667 13.562C20.0535 14.2506 18.9711 14.4002 18.7687 13.7468C18.5223 12.5192 18.5047 11.1772 17.7721 10.108C17.4443 9.56897 16.5511 9.56897 16.2255 10.1124C15.5193 11.1244 15.4973 12.4026 15.2509 13.5664C15.1057 14.2132 14.0783 14.1604 13.9529 13.5268C13.9485 12.352 14.2763 11.1992 14.6789 10.1036C13.8363 10.416 13.1081 10.944 12.3579 11.4236C11.7551 11.6832 11.1677 10.834 11.6165 10.3632ZM10.3845 16.6266C11.7067 17.5748 13.0553 18.4856 14.3775 19.4316C14.5249 19.403 14.8175 19.3458 14.9649 19.3172C14.5249 18.4988 14.1839 17.6232 13.6779 16.8444C12.8705 15.8984 11.3503 15.9578 10.3845 16.6266ZM15.2487 16.818C15.6711 17.6562 16.0869 18.4966 16.5093 19.3326C16.8371 19.3326 17.1627 19.3326 17.4883 19.3326C17.9151 18.4966 18.3287 17.6562 18.7511 16.818C17.8139 15.8918 16.1837 15.8896 15.2487 16.818Z" fill="black"/>
<path d="M15.9659 21.7108C16.5797 21.548 17.2353 21.6008 17.8623 21.658C18.5377 21.7592 18.5421 22.8416 17.8799 22.9648C17.2969 23.033 16.7051 23.033 16.1243 22.967C15.5391 22.857 15.4357 21.9704 15.9659 21.7108Z" fill="black"/>
</svg>
