<svg width="30" height="31" viewBox="0 0 30 31" fill="none" xmlns="http://www.w3.org/2000/svg">
<path d="M0 6.5C0 3.18629 2.68629 0.5 6 0.5H24C27.3137 0.5 30 3.18629 30 6.5V24.5C30 27.8137 27.3137 30.5 24 30.5H6C2.68629 30.5 0 27.8137 0 24.5V6.5Z" fill="#B47C75"/>
<path d="M9.6165 8.36317C12.1377 6.05537 16.1681 5.71657 19.0985 7.44137C21.7517 8.93737 23.4611 11.9998 23.2169 15.0512C23.0871 15.3086 22.8275 15.456 22.6097 15.6276C21.2721 16.5582 19.9389 17.491 18.6079 18.426C18.7223 19.801 18.6409 21.1804 18.6717 22.5576C18.7751 23.4046 18.3879 24.3858 17.4881 24.6014C16.4475 24.7532 15.3871 24.6256 14.3377 24.6674C13.5281 24.6212 12.5821 24.8566 11.9045 24.2824C11.3325 23.8226 11.2533 23.0152 11.3611 22.3376C11.4689 21.869 12.1069 21.6644 12.4655 21.9922C12.8131 22.3178 12.6701 22.848 12.7405 23.2682C14.2497 23.3056 15.7611 23.2924 17.2725 23.2748C17.3077 21.7612 17.2989 20.2454 17.2769 18.7296C15.7589 18.701 14.2387 18.701 12.7207 18.7296C12.6921 19.3544 12.7691 19.9924 12.6437 20.6106C12.4369 21.121 11.6339 21.1364 11.4095 20.6348C11.2379 20.0188 11.3677 19.372 11.3633 18.7428C11.5129 18.3688 11.1103 18.2412 10.8947 18.0564C9.6803 17.227 8.4813 16.3712 7.2713 15.533C7.0557 15.3504 6.7081 15.1766 6.7521 14.8378C6.7389 13.4518 7.0029 12.024 7.6893 10.8096C8.0479 10.2442 9.0511 10.6666 8.8817 11.32C8.6969 11.936 8.4439 12.5322 8.2701 13.1526C9.6341 12.4904 11.3809 12.6466 12.4677 13.7532C13.8075 12.4354 16.1769 12.3958 17.5013 13.7554C18.2493 13.091 19.2393 12.64 20.2601 12.7764C20.8255 12.9304 20.9113 13.8126 20.3613 14.0392C19.6507 14.2108 18.7795 14.1866 18.3131 14.8554C17.8137 15.6342 17.4727 16.5032 17.0349 17.3172C17.1823 17.3458 17.4727 17.403 17.6201 17.4316C19.0457 16.4482 20.4559 15.445 21.8771 14.455C21.8331 11.6588 19.9477 9.07157 17.3297 8.11897C17.7367 9.22117 18.0315 10.3828 18.0667 11.562C18.0535 12.2506 16.9711 12.4002 16.7687 11.7468C16.5223 10.5192 16.5047 9.17717 15.7721 8.10797C15.4443 7.56897 14.5511 7.56897 14.2255 8.11237C13.5193 9.12437 13.4973 10.4026 13.2509 11.5664C13.1057 12.2132 12.0783 12.1604 11.9529 11.5268C11.9485 10.352 12.2763 9.19917 12.6789 8.10357C11.8363 8.41597 11.1081 8.94397 10.3579 9.42357C9.7551 9.68317 9.1677 8.83397 9.6165 8.36317ZM8.3845 14.6266C9.7067 15.5748 11.0553 16.4856 12.3775 17.4316C12.5249 17.403 12.8175 17.3458 12.9649 17.3172C12.5249 16.4988 12.1839 15.6232 11.6779 14.8444C10.8705 13.8984 9.3503 13.9578 8.3845 14.6266ZM13.2487 14.818C13.6711 15.6562 14.0869 16.4966 14.5093 17.3326C14.8371 17.3326 15.1627 17.3326 15.4883 17.3326C15.9151 16.4966 16.3287 15.6562 16.7511 14.818C15.8139 13.8918 14.1837 13.8896 13.2487 14.818Z" fill="black"/>
<path d="M13.9659 19.7108C14.5797 19.548 15.2353 19.6008 15.8623 19.658C16.5377 19.7592 16.5421 20.8416 15.8799 20.9648C15.2969 21.033 14.7051 21.033 14.1243 20.967C13.5391 20.857 13.4357 19.9704 13.9659 19.7108Z" fill="black"/>
</svg>
