<svg width="48" height="48" viewBox="0 0 48 48" fill="none" xmlns="http://www.w3.org/2000/svg">
<path d="M3.01436 12.5088C2.93756 9.5088 5.65436 6.8496 8.65436 7.0176C15.2112 7.0176 21.768 6.9696 28.32 7.0416C29.592 6.9648 30.2304 8.7984 29.2656 9.5856C28.7664 10.0944 27.9984 9.9408 27.3648 9.9936C21.1056 9.9936 14.8464 9.9504 8.58716 10.008C7.22876 9.9312 5.95676 11.1072 6.02396 12.4848C5.95676 15.8208 6.02876 19.1568 5.99996 22.4928C7.00316 22.4928 8.00156 22.4976 9.00476 22.4928C11.304 22.4928 13.608 22.4928 15.912 22.4976C14.9376 21.5328 13.8528 20.6496 13.0944 19.5024C12.6384 18.4272 13.776 17.1984 14.8896 17.5344C16.1232 18.2784 17.0304 19.4304 18.0192 20.4528C18.0192 17.9664 17.9424 15.48 18.024 12.9984C17.9376 11.1168 21.0624 11.1216 20.976 12.9936C21.0528 15.4752 20.9856 17.952 20.9808 20.4288C21.9552 19.4352 22.8576 18.3408 24.0288 17.5632C25.1808 17.1216 26.4432 18.4704 25.8624 19.5744C25.1136 20.6976 24.048 21.5568 23.1024 22.4976C28.0464 22.488 32.9952 22.5024 37.9392 22.4832C38.712 22.5264 39.7152 22.4256 40.1712 23.208C40.8048 24.1296 40.0416 25.5312 38.9184 25.464C33.648 25.5744 28.3728 25.4736 23.1024 25.5024C24.0528 26.4432 25.1184 27.3024 25.8624 28.4256C26.4432 29.5344 25.176 30.8784 24.0288 30.432C22.8576 29.6592 21.9552 28.5648 20.9808 27.5712C21.0192 31.0512 20.9904 34.5312 21.0048 38.0112C26.7936 38.0208 32.5824 38.0064 38.376 38.0256C39.4224 37.992 40.6896 38.0448 41.4 37.1136C42.0336 36.432 41.9568 35.4384 42.0096 34.5744C41.9904 27.3792 42.0048 20.1888 42 12.9936C42.1152 11.7984 41.5056 10.488 40.2912 10.1376C38.3136 9.7344 36.2688 10.224 34.2864 9.8592C33.024 9.3696 33.192 7.272 34.5648 7.0704C36.6384 6.9648 38.7408 6.888 40.8 7.176C43.584 7.7616 45.288 10.6608 45.0192 13.3968C44.9616 20.7552 45.0432 28.1136 44.9808 35.472C45.0624 38.4768 42.3696 41.1264 39.3648 40.9776C32.8176 41.0352 26.2656 40.9344 19.7184 41.0352C18.72 41.1744 17.8272 40.3824 17.952 39.36C18.0288 35.424 17.9808 31.4832 18.0192 27.5424C17.04 28.5696 16.128 29.7072 14.904 30.4608C13.7856 30.8112 12.6336 29.5776 13.0944 28.4976C13.8576 27.3504 14.9376 26.4672 15.912 25.5024C13.608 25.5072 11.304 25.5072 8.99996 25.5024C8.00156 25.5024 7.00316 25.5072 5.99996 25.5072C6.07196 29.0064 5.85596 32.5152 6.09116 36.0096C6.24476 37.4208 7.73276 38.064 8.99516 38.0256C10.0992 38.0496 11.2128 37.9296 12.3072 38.1168C13.5456 38.448 13.6128 40.3632 12.4512 40.8528C11.4432 41.0544 10.4064 41.016 9.38396 41.0304C6.31676 41.3568 3.13916 39.072 3.03836 35.88C2.94716 28.0896 2.99516 20.2992 3.01436 12.5088Z" fill="#2D3339"/>
<path d="M9.02403 16.8C9.00963 14.9136 10.5888 13.1808 12.48 13.0464C14.3232 12.9168 16.176 13.0224 18.024 12.9984C17.9424 15.48 18.0192 17.9664 18.0192 20.4528C17.0304 19.4304 16.1232 18.2784 14.8896 17.5344C13.776 17.1984 12.6384 18.4272 13.0944 19.5024C13.8528 20.6496 14.9376 21.5328 15.912 22.4976C13.608 22.4928 11.304 22.4928 9.00483 22.4928C9.02403 20.5968 8.94723 18.7008 9.02403 16.8Z" fill="#A1BFEE"/>
<path d="M20.9761 12.9936C27.9841 12.9888 34.9921 12.9936 42.0001 12.9936C42.0049 20.1888 41.9905 27.3792 42.0097 34.5744C41.9569 35.4384 42.0337 36.432 41.4001 37.1136C40.6897 38.0448 39.4225 37.992 38.3761 38.0256C32.5825 38.0064 26.7937 38.0208 21.0049 38.0112C20.9905 34.5312 21.0193 31.0512 20.9809 27.5712C21.9553 28.5648 22.8577 29.6592 24.0289 30.432C25.1761 30.8784 26.4433 29.5344 25.8625 28.4256C25.1185 27.3024 24.0529 26.4432 23.1025 25.5024C28.3729 25.4736 33.6481 25.5744 38.9185 25.464C40.0417 25.5312 40.8049 24.1296 40.1713 23.208C39.7153 22.4256 38.7121 22.5264 37.9393 22.4832C32.9953 22.5024 28.0465 22.488 23.1025 22.4976C24.0481 21.5568 25.1137 20.6976 25.8625 19.5744C26.4433 18.4704 25.1809 17.1216 24.0289 17.5632C22.8577 18.3408 21.9553 19.4352 20.9809 20.4288C20.9857 17.952 21.0529 15.4752 20.9761 12.9936Z" fill="#A1BFEE"/>
<path d="M45.0192 13.3968C46.0416 14.2272 47.0016 15.336 46.9728 16.7376C47.0304 24.1296 46.992 31.5264 46.992 38.9184C47.1264 41.0544 45.2736 43.0272 43.1232 42.9888C33.072 43.0224 23.016 43.0128 12.96 42.9888C11.4816 43.0608 10.2768 42.1056 9.38404 41.0304C10.4064 41.016 11.4432 41.0544 12.4512 40.8528C13.6128 40.3632 13.5456 38.448 12.3072 38.1168C11.2128 37.9296 10.0992 38.0496 8.99524 38.0256C9.00484 33.8544 9.00004 29.6784 9.00004 25.5024C11.304 25.5072 13.608 25.5072 15.912 25.5024C14.9376 26.4672 13.8576 27.3504 13.0944 28.4976C12.6336 29.5776 13.7856 30.8112 14.904 30.4608C16.128 29.7072 17.04 28.5696 18.0192 27.5424C17.9808 31.4832 18.0288 35.424 17.952 39.36C17.8272 40.3824 18.72 41.1744 19.7184 41.0352C26.2656 40.9344 32.8176 41.0352 39.3648 40.9776C42.3696 41.1264 45.0624 38.4768 44.9808 35.472C45.0432 28.1136 44.9616 20.7552 45.0192 13.3968Z" fill="#A1BFEE"/>
</svg>
