<svg width="82" height="38" viewBox="0 0 82 38" fill="none" xmlns="http://www.w3.org/2000/svg">
<path opacity="0.2" d="M16.8633 31.9124C9.934 32.2827 8.60388 18.5684 1 26.7445V37.8984H80.7261V15.3289C63.9278 31.604 61.945 1.10164 52.9817 1.10156C44.2635 1.10148 46.2802 25.8744 36.1713 18.0285C25.1882 9.50407 25.5249 31.4496 16.8633 31.9124Z" fill="url(#paint0_linear_375_320)"/>
<path d="M1 26.7445C8.60388 18.5684 9.934 32.2827 16.8633 31.9124C25.5249 31.4497 25.1882 9.50407 36.1713 18.0285C46.2802 25.8744 44.2635 1.10148 52.9817 1.10156C61.945 1.10164 63.9278 31.604 80.726 15.3289" stroke="#82372D" stroke-linecap="round"/>
<ellipse cx="80.6352" cy="15.3669" rx="0.364921" ry="0.364921" fill="#82372D"/>
<defs>
<linearGradient id="paint0_linear_375_320" x1="40.863" y1="1.10156" x2="40.863" y2="37.8984" gradientUnits="userSpaceOnUse">
<stop stop-color="#8F4C31"/>
<stop offset="1" stop-color="#F4ECEA"/>
</linearGradient>
</defs>
</svg>
