<svg width="18" height="16" viewBox="0 0 18 16" fill="none" xmlns="http://www.w3.org/2000/svg">
<path d="M7.42984 0.152001C9.28384 -0.191999 11.2578 0.0760006 12.9178 0.982001C15.3218 2.258 17.0578 4.774 17.2738 7.498C17.3158 8.27 16.0498 8.284 16.0518 7.524C15.7998 5.614 14.7918 3.814 13.2358 2.666C11.0918 1.008 7.97384 0.8 5.60984 2.11C3.43384 3.27 1.97584 5.638 1.92384 8.104C1.85584 8.912 2.09984 9.694 2.18384 10.49C2.14784 11.072 1.24184 11.228 1.02784 10.682C0.413841 8.798 0.605841 6.684 1.41784 4.886C2.50984 2.466 4.81784 0.638001 7.42984 0.152001Z" fill="black"/>
<path d="M7.88987 3.032C8.76187 2.866 9.69187 2.87 10.5379 3.16C10.9419 3.314 11.0119 3.912 10.6819 4.18C10.3639 4.454 9.93587 4.234 9.56787 4.222C8.06787 3.968 6.47987 4.668 5.60987 5.906C4.71187 7.138 4.58187 8.88 5.29187 10.23C5.49187 10.606 5.77387 10.93 5.97787 11.306C6.19587 11.878 5.35987 12.388 4.96187 11.922C3.58787 10.452 3.21187 8.164 3.97787 6.312C4.63187 4.66 6.14987 3.388 7.88987 3.032Z" fill="black"/>
<path d="M11.7881 4.68C12.0841 4.328 12.7021 4.46 12.8261 4.904C12.9721 5.252 12.6681 5.534 12.4581 5.766C11.7241 6.5 10.9821 7.226 10.2541 7.968C10.3261 8.666 9.96806 9.464 9.20206 9.564C8.24006 9.774 7.39806 8.624 7.88606 7.768C8.14006 7.19 8.80006 7.066 9.36606 7.072C10.1921 6.292 10.9561 5.452 11.7881 4.68Z" fill="black"/>
<path d="M13.0799 6.2C13.3679 5.898 13.9399 6.044 14.0659 6.438C14.7799 8.264 14.3719 10.496 13.0299 11.93C12.6899 12.316 11.9699 12 11.9979 11.494C11.9839 11.226 12.2099 11.036 12.3299 10.82C13.0839 9.838 13.3599 8.5 13.0219 7.306C12.9639 6.952 12.7199 6.478 13.0799 6.2Z" fill="black"/>
<path d="M15.5877 10.902C15.7397 10.596 15.8157 10.14 16.2197 10.076C16.6577 9.964 17.0917 10.444 16.9277 10.866C16.4877 12.304 15.6117 13.602 14.4857 14.594C14.0957 14.98 13.5257 15.024 13.0077 15.01C10.2097 14.998 7.4117 15.016 4.6137 15.002C3.5837 15.006 2.9497 14.04 2.3557 13.336C1.8737 12.86 2.5697 12.018 3.1177 12.4C3.5837 12.818 3.9617 13.326 4.4257 13.748C7.4817 13.754 10.5377 13.762 13.5937 13.744C14.4437 12.946 15.1877 12.008 15.5877 10.902Z" fill="black"/>
</svg>
