<svg width="30" height="31" viewBox="0 0 30 31" fill="none" xmlns="http://www.w3.org/2000/svg">
<path d="M0 6.5C0 3.18629 2.68629 0.5 6 0.5H24C27.3137 0.5 30 3.18629 30 6.5V24.5C30 27.8137 27.3137 30.5 24 30.5H6C2.68629 30.5 0 27.8137 0 24.5V6.5Z" fill="#B47C75"/>
<path d="M14.0034 8.81859C14.5028 8.81639 15.1408 8.59639 15.5302 9.01219C15.9174 9.42579 15.5544 10.1694 14.9912 10.1232C11.5966 10.2046 8.62663 12.2 6.25723 14.477C5.92723 14.8136 5.37063 15.2536 5.67863 15.7838C6.14063 16.4152 6.84903 16.8244 7.27583 17.4844C7.48483 18.0432 6.75883 18.6614 6.27043 18.2764C5.70283 17.8298 5.19243 17.3106 4.70623 16.7804C3.99563 15.9862 4.09243 14.6706 4.86023 13.9468C7.31983 11.4256 10.4196 9.23219 14.0034 8.81859Z" fill="black"/>
<path d="M18.3461 9.59957C18.8103 9.43457 19.2569 9.78657 19.6771 9.94717C21.7649 10.9548 23.6327 12.4002 25.1947 14.1074C25.9515 14.9038 25.8833 16.2634 25.0913 17.0114C22.7989 19.3566 19.9807 21.3938 16.7027 22.023C13.7789 22.5994 10.7605 21.5962 8.36472 19.933C7.67172 19.526 8.36472 18.36 9.04672 18.7912C10.9585 19.9726 13.1255 20.9692 15.4311 20.7954C18.6871 20.5666 21.5097 18.5954 23.7845 16.3866C24.1101 16.0698 24.6117 15.5814 24.2289 15.1172C22.6229 13.2648 20.5681 11.8172 18.3307 10.8294C17.7829 10.6402 17.8225 9.79317 18.3461 9.59957Z" fill="black"/>
<path d="M14.4368 11.4454C16.023 10.9768 17.6774 12.5784 17.2286 14.18C16.9382 15.8674 14.593 16.545 13.4182 15.3262C12.1202 14.191 12.734 11.7864 14.4368 11.4454Z" fill="black"/>
<path d="M19.7125 12.5388C20.1151 12.3298 20.6497 12.6422 20.6761 13.0932C21.0127 15.5572 19.4485 18.1026 17.1319 18.9826C15.3741 19.6976 13.2621 19.4622 11.7133 18.36C10.1601 17.2864 9.18326 15.3922 9.29106 13.5002C9.40986 12.8182 10.5473 12.8116 10.6001 13.5244C10.6815 14.6684 11.0049 15.841 11.8431 16.6682C13.0223 17.9398 14.9869 18.3644 16.5907 17.7198C18.1923 17.1082 19.3737 15.4692 19.3275 13.7378C19.3627 13.3242 19.2175 12.7302 19.7125 12.5388Z" fill="black"/>
</svg>
