<svg width="34" height="35" viewBox="0 0 34 35" fill="none" xmlns="http://www.w3.org/2000/svg">
<path d="M0 6.5C0 3.18629 2.68629 0.5 6 0.5H28C31.3137 0.5 34 3.18629 34 6.5V28.5C34 31.8137 31.3137 34.5 28 34.5H6C2.68629 34.5 0 31.8137 0 28.5V6.5Z" fill="#F7D1B7"/>
<path d="M16.0034 10.8186C16.5028 10.8164 17.1408 10.5964 17.5302 11.0122C17.9174 11.4258 17.5544 12.1694 16.9912 12.1232C13.5966 12.2046 10.6266 14.2 8.25723 16.477C7.92723 16.8136 7.37063 17.2536 7.67863 17.7838C8.14063 18.4152 8.84903 18.8244 9.27583 19.4844C9.48483 20.0432 8.75883 20.6614 8.27043 20.2764C7.70283 19.8298 7.19243 19.3106 6.70623 18.7804C5.99563 17.9862 6.09243 16.6706 6.86023 15.9468C9.31983 13.4256 12.4196 11.2322 16.0034 10.8186Z" fill="black"/>
<path d="M20.3461 11.5996C20.8103 11.4346 21.2569 11.7866 21.6771 11.9472C23.7649 12.9548 25.6327 14.4002 27.1947 16.1074C27.9515 16.9038 27.8833 18.2634 27.0913 19.0114C24.7989 21.3566 21.9807 23.3938 18.7027 24.023C15.7789 24.5994 12.7605 23.5962 10.3647 21.933C9.67172 21.526 10.3647 20.36 11.0467 20.7912C12.9585 21.9726 15.1255 22.9692 17.4311 22.7954C20.6871 22.5666 23.5097 20.5954 25.7845 18.3866C26.1101 18.0698 26.6117 17.5814 26.2289 17.1172C24.6229 15.2648 22.5681 13.8172 20.3307 12.8294C19.7829 12.6402 19.8225 11.7932 20.3461 11.5996Z" fill="black"/>
<path d="M16.4368 13.4454C18.023 12.9768 19.6774 14.5784 19.2286 16.18C18.9382 17.8674 16.593 18.545 15.4182 17.3262C14.1202 16.191 14.734 13.7864 16.4368 13.4454Z" fill="black"/>
<path d="M21.7125 14.5388C22.1151 14.3298 22.6497 14.6422 22.6761 15.0932C23.0127 17.5572 21.4485 20.1026 19.1319 20.9826C17.3741 21.6976 15.2621 21.4622 13.7133 20.36C12.1601 19.2864 11.1833 17.3922 11.2911 15.5002C11.4099 14.8182 12.5473 14.8116 12.6001 15.5244C12.6815 16.6684 13.0049 17.841 13.8431 18.6682C15.0223 19.9398 16.9869 20.3644 18.5907 19.7198C20.1923 19.1082 21.3737 17.4692 21.3275 15.7378C21.3627 15.3242 21.2175 14.7302 21.7125 14.5388Z" fill="black"/>
</svg>
