<svg width="18" height="17" viewBox="0 0 18 17" fill="none" xmlns="http://www.w3.org/2000/svg">
<path d="M6.93578 0.433998C9.30778 -0.196002 11.9418 0.319998 13.9118 1.78C15.7598 3.12 17.0138 5.25 17.2678 7.52C17.5698 9.92 16.7418 12.422 15.0818 14.18C13.3618 16.046 10.7598 17.04 8.23178 16.794C6.51578 16.622 4.80178 15.95 3.53978 14.756C3.04578 14.162 4.02778 13.388 4.51578 13.992C6.24578 15.392 8.63178 15.932 10.7878 15.35C13.7058 14.636 15.9578 11.882 16.0678 8.878C16.2938 5.748 14.1598 2.656 11.1558 1.754C8.32178 0.805998 4.99978 1.912 3.26378 4.336C3.81378 4.356 4.37778 4.278 4.91578 4.402C5.41778 4.618 5.34178 5.454 4.79378 5.552C3.72578 5.604 2.65178 5.6 1.58378 5.554C1.17378 5.516 1.05578 5.062 1.08378 4.72C1.09378 3.788 1.04778 2.854 1.10978 1.924C1.15378 1.334 2.07178 1.23 2.27178 1.78C2.39178 2.342 2.31778 2.924 2.32978 3.494C3.48578 2.016 5.10578 0.887998 6.93578 0.433998Z" fill="black"/>
<path d="M8.18761 4.48401C8.16761 3.97601 8.87961 3.72201 9.21561 4.08201C9.45361 4.28401 9.39161 4.62401 9.41961 4.90001C9.41761 6.23601 9.41361 7.57401 9.41761 8.91201C10.3456 8.93201 11.2776 8.87601 12.2056 8.93601C12.6696 8.93801 12.9256 9.56401 12.6336 9.91001C12.3996 10.256 11.9356 10.136 11.5836 10.172C10.5936 10.14 9.59761 10.22 8.61161 10.13C8.14561 10.018 8.15761 9.48201 8.16161 9.10601C8.18561 7.56601 8.13161 6.02401 8.18761 4.48401Z" fill="black"/>
<path d="M1.02782 7.922C1.38182 7.756 1.86382 7.99 1.88582 8.394C1.96782 9.308 2.03582 10.24 2.40782 11.092C2.57782 11.574 2.92782 11.994 2.99382 12.508C2.96182 13.036 2.19582 13.268 1.89582 12.824C1.10382 11.606 0.709816 10.144 0.669816 8.698C0.641816 8.396 0.733816 8.058 1.02782 7.922Z" fill="black"/>
</svg>
