<svg width="27" height="28" viewBox="0 0 27 28" fill="none" xmlns="http://www.w3.org/2000/svg">
<path fill-rule="evenodd" clip-rule="evenodd" d="M9.4786 26.2827V22.0019C9.4786 20.9091 10.3732 20.0232 11.4767 20.0232H15.5106C16.0406 20.0232 16.5488 20.2317 16.9235 20.6028C17.2982 20.9738 17.5088 21.4771 17.5088 22.0019V26.2827C17.5054 26.737 17.6853 27.1738 18.0086 27.4963C18.3318 27.8187 18.7716 28 19.2304 28H21.9825C23.2679 28.0033 24.5017 27.5 25.4118 26.6011C26.3218 25.7023 26.8333 24.4818 26.8333 23.209V11.0136C26.8333 9.98544 26.373 9.01018 25.5766 8.35054L16.2144 0.946217C14.5858 -0.352014 12.2524 -0.310097 10.6724 1.04577L1.52384 8.35054C0.689771 8.99073 0.191261 9.96889 0.166626 11.0136V23.1965C0.166626 25.8494 2.33839 28 5.0174 28H7.70668C8.65958 28 9.43399 27.2387 9.4409 26.2951L9.4786 26.2827Z" fill="#3273DB"/>
</svg>
