<svg width="18" height="19" viewBox="0 0 18 19" fill="none" xmlns="http://www.w3.org/2000/svg">
<path d="M9.01631 0.5H9.44031C10.0143 0.924 9.80031 1.696 9.84031 2.31C9.79231 3.906 9.90231 5.506 9.79431 7.098C9.74231 7.736 8.67031 7.73 8.62231 7.094C8.52431 5.02 8.61231 2.938 8.58631 0.862C8.72831 0.738 8.87031 0.618 9.01631 0.5Z" fill="#DC1B1B"/>
<path d="M5.87809 2.78203C6.29009 2.51403 6.95009 2.76403 6.91409 3.30403C6.93609 3.74803 6.44609 3.88203 6.13209 4.04403C4.08009 4.91203 2.53409 6.83803 2.07409 9.01203C1.49409 11.6 2.53009 14.454 4.63609 16.066C6.34409 17.446 8.68409 17.876 10.8041 17.38C11.4701 17.102 11.9541 18.13 11.3401 18.48C7.69809 19.666 3.41609 17.826 1.66409 14.438C0.520087 12.34 0.354087 9.74203 1.22209 7.51603C2.03409 5.38603 3.75809 3.62403 5.87809 2.78203Z" fill="#DC1B1B"/>
<path d="M11.4379 2.72797C11.5279 2.71797 11.7099 2.69597 11.8019 2.68597C14.4299 3.54397 16.4759 5.89397 17.1039 8.57198C17.8019 11.384 16.8559 14.52 14.7379 16.49C14.3479 16.866 13.6419 16.422 13.7539 15.906C13.8659 15.574 14.1459 15.34 14.3579 15.072C15.7279 13.522 16.3379 11.342 15.9779 9.30597C15.5879 6.90197 13.8559 4.78997 11.5879 3.90797C11.0239 3.79197 10.8939 2.96597 11.4379 2.72797Z" fill="#DC1B1B"/>
</svg>
