<svg width="802" height="351" viewBox="0 0 802 351" fill="none" xmlns="http://www.w3.org/2000/svg">
<g opacity="0.05">
<path d="M250.5 50V100" stroke="#31403F"/>
<path d="M300.5 50V100" stroke="#31403F"/>
<path d="M300.5 100V150" stroke="#31403F"/>
<path d="M250.5 100V150" stroke="#31403F"/>
<path d="M250.5 0V50" stroke="#31403F"/>
<path d="M300.5 0V50" stroke="#31403F"/>
<path d="M250.5 50H300.5" stroke="#31403F"/>
<path d="M200.5 50H250.5" stroke="#31403F"/>
<path d="M200.5 100H250.5" stroke="#31403F"/>
<path d="M300.5 50H350.5" stroke="#31403F"/>
<path d="M300.5 100H350.5" stroke="#31403F"/>
<path d="M250.5 100H300.5" stroke="#31403F"/>
<path d="M350.5 50V100" stroke="#31403F"/>
<path d="M400.5 50V100" stroke="#31403F"/>
<path d="M400.5 100V150" stroke="#31403F"/>
<path d="M350.5 100V150" stroke="#31403F"/>
<path d="M350.5 0V50" stroke="#31403F"/>
<path d="M400.5 0V50" stroke="#31403F"/>
<path d="M350.5 50H400.5" stroke="#31403F"/>
<path d="M400.5 50H450.5" stroke="#31403F"/>
<path d="M400.5 100H450.5" stroke="#31403F"/>
<path d="M350.5 100H400.5" stroke="#31403F"/>
<path d="M350.5 150V200" stroke="#31403F"/>
<path d="M400.5 150V200" stroke="#31403F"/>
<path d="M350.5 150H400.5" stroke="#31403F"/>
<path d="M300.5 150H350.5" stroke="#31403F"/>
<path d="M400.5 150H450.5" stroke="#31403F"/>
<path d="M250 150V200" stroke="#31403F"/>
<path d="M300 150V200" stroke="#31403F"/>
<path d="M250 150H300" stroke="#31403F"/>
<path d="M200 150H250" stroke="#31403F"/>
<path d="M50.5 50V100" stroke="#31403F"/>
<path d="M100.5 50V100" stroke="#31403F"/>
<path d="M100.5 100V150" stroke="#31403F"/>
<path d="M50.5 100V150" stroke="#31403F"/>
<path d="M50.5 0V50" stroke="#31403F"/>
<path d="M100.5 0V50" stroke="#31403F"/>
<path d="M50.5 50H100.5" stroke="#31403F"/>
<path d="M0.5 50H50.5" stroke="#31403F"/>
<path d="M0.5 100H50.5" stroke="#31403F"/>
<path d="M100.5 50H150.5" stroke="#31403F"/>
<path d="M100.5 100H150.5" stroke="#31403F"/>
<path d="M50.5 100H100.5" stroke="#31403F"/>
<path d="M150.5 50V100" stroke="#31403F"/>
<path d="M200.5 50V100" stroke="#31403F"/>
<path d="M200.5 100V150" stroke="#31403F"/>
<path d="M150.5 100V150" stroke="#31403F"/>
<path d="M150.5 0V50" stroke="#31403F"/>
<path d="M200.5 0V50" stroke="#31403F"/>
<path d="M150.5 50H200.5" stroke="#31403F"/>
<path d="M200.5 50H250.5" stroke="#31403F"/>
<path d="M200.5 100H250.5" stroke="#31403F"/>
<path d="M150.5 100H200.5" stroke="#31403F"/>
<path d="M150.5 150V200" stroke="#31403F"/>
<path d="M200.5 150V200" stroke="#31403F"/>
<path d="M150.5 150H200.5" stroke="#31403F"/>
<path d="M100.5 150H150.5" stroke="#31403F"/>
<path d="M200.5 150H250.5" stroke="#31403F"/>
<path d="M50 150V200" stroke="#31403F"/>
<path d="M100 150V200" stroke="#31403F"/>
<path d="M50 150H100" stroke="#31403F"/>
<path d="M0 150H50" stroke="#31403F"/>
<path d="M250.5 200V250" stroke="#31403F"/>
<path d="M300.5 200V250" stroke="#31403F"/>
<path d="M300.5 250V300" stroke="#31403F"/>
<path d="M250.5 250V300" stroke="#31403F"/>
<path d="M250.5 150V200" stroke="#31403F"/>
<path d="M300.5 150V200" stroke="#31403F"/>
<path d="M250.5 200H300.5" stroke="#31403F"/>
<path d="M200.5 200H250.5" stroke="#31403F"/>
<path d="M200.5 250H250.5" stroke="#31403F"/>
<path d="M300.5 200H350.5" stroke="#31403F"/>
<path d="M300.5 250H350.5" stroke="#31403F"/>
<path d="M250.5 250H300.5" stroke="#31403F"/>
<path d="M350.5 200V250" stroke="#31403F"/>
<path d="M400.5 200V250" stroke="#31403F"/>
<path d="M400.5 250V300" stroke="#31403F"/>
<path d="M350.5 250V300" stroke="#31403F"/>
<path d="M350.5 150V200" stroke="#31403F"/>
<path d="M400.5 150V200" stroke="#31403F"/>
<path d="M350.5 200H400.5" stroke="#31403F"/>
<path d="M400.5 200H450.5" stroke="#31403F"/>
<path d="M400.5 250H450.5" stroke="#31403F"/>
<path d="M350.5 250H400.5" stroke="#31403F"/>
<path d="M50.5 200V250" stroke="#31403F"/>
<path d="M100.5 200V250" stroke="#31403F"/>
<path d="M100.5 250V300" stroke="#31403F"/>
<path d="M50.5 250V300" stroke="#31403F"/>
<path d="M100.5 150V200" stroke="#31403F"/>
<path d="M50.5 200H100.5" stroke="#31403F"/>
<path d="M0.5 200H50.5" stroke="#31403F"/>
<path d="M0.5 250H50.5" stroke="#31403F"/>
<path d="M100.5 200H150.5" stroke="#31403F"/>
<path d="M100.5 250H150.5" stroke="#31403F"/>
<path d="M50.5 250H100.5" stroke="#31403F"/>
<path d="M150.5 200V250" stroke="#31403F"/>
<path d="M200.5 200V250" stroke="#31403F"/>
<path d="M200.5 250V300" stroke="#31403F"/>
<path d="M150.5 250V300" stroke="#31403F"/>
<path d="M150.5 150V200" stroke="#31403F"/>
<path d="M200.5 150V200" stroke="#31403F"/>
<path d="M150.5 200H200.5" stroke="#31403F"/>
<path d="M200.5 200H250.5" stroke="#31403F"/>
<path d="M200.5 250H250.5" stroke="#31403F"/>
<path d="M150.5 250H200.5" stroke="#31403F"/>
<path d="M400.5 199V249" stroke="#31403F"/>
<path d="M450.5 199V249" stroke="#31403F"/>
<path d="M450.5 249V299" stroke="#31403F"/>
<path d="M400.5 249V299" stroke="#31403F"/>
<path d="M400.5 149V199" stroke="#31403F"/>
<path d="M450.5 149V199" stroke="#31403F"/>
<path d="M400.5 199H450.5" stroke="#31403F"/>
<path d="M350.5 199H400.5" stroke="#31403F"/>
<path d="M350.5 249H400.5" stroke="#31403F"/>
<path d="M450.5 199H500.5" stroke="#31403F"/>
<path d="M450.5 249H500.5" stroke="#31403F"/>
<path d="M400.5 249H450.5" stroke="#31403F"/>
<path d="M500.5 199V249" stroke="#31403F"/>
<path d="M550.5 199V249" stroke="#31403F"/>
<path d="M550.5 249V299" stroke="#31403F"/>
<path d="M500.5 249V299" stroke="#31403F"/>
<path d="M500.5 149V199" stroke="#31403F"/>
<path d="M550.5 149V199" stroke="#31403F"/>
<path d="M500.5 199H550.5" stroke="#31403F"/>
<path d="M550.5 199H600.5" stroke="#31403F"/>
<path d="M550.5 249H600.5" stroke="#31403F"/>
<path d="M500.5 249H550.5" stroke="#31403F"/>
<path d="M601.5 199V249" stroke="#31403F"/>
<path d="M651.5 199V249" stroke="#31403F"/>
<path d="M651.5 249V299" stroke="#31403F"/>
<path d="M601.5 249V299" stroke="#31403F"/>
<path d="M601.5 149V199" stroke="#31403F"/>
<path d="M651.5 149V199" stroke="#31403F"/>
<path d="M601.5 199H651.5" stroke="#31403F"/>
<path d="M551.5 199H601.5" stroke="#31403F"/>
<path d="M551.5 249H601.5" stroke="#31403F"/>
<path d="M651.5 199H701.5" stroke="#31403F"/>
<path d="M651.5 249H701.5" stroke="#31403F"/>
<path d="M601.5 249H651.5" stroke="#31403F"/>
<path d="M701.5 199V249" stroke="#31403F"/>
<path d="M751.5 199V249" stroke="#31403F"/>
<path d="M751.5 249V299" stroke="#31403F"/>
<path d="M701.5 249V299" stroke="#31403F"/>
<path d="M701.5 149V199" stroke="#31403F"/>
<path d="M751.5 149V199" stroke="#31403F"/>
<path d="M701.5 199H751.5" stroke="#31403F"/>
<path d="M751.5 199H801.5" stroke="#31403F"/>
<path d="M751.5 249H801.5" stroke="#31403F"/>
<path d="M701.5 249H751.5" stroke="#31403F"/>
<path d="M400.5 50V100" stroke="#31403F"/>
<path d="M450.5 50V100" stroke="#31403F"/>
<path d="M450.5 100V150" stroke="#31403F"/>
<path d="M400.5 100V150" stroke="#31403F"/>
<path d="M400.5 0V50" stroke="#31403F"/>
<path d="M450.5 0V50" stroke="#31403F"/>
<path d="M400.5 50H450.5" stroke="#31403F"/>
<path d="M350.5 50H400.5" stroke="#31403F"/>
<path d="M350.5 100H400.5" stroke="#31403F"/>
<path d="M450.5 50H500.5" stroke="#31403F"/>
<path d="M450.5 100H500.5" stroke="#31403F"/>
<path d="M400.5 100H450.5" stroke="#31403F"/>
<path d="M500.5 50V100" stroke="#31403F"/>
<path d="M550.5 50V100" stroke="#31403F"/>
<path d="M550.5 100V150" stroke="#31403F"/>
<path d="M500.5 100V150" stroke="#31403F"/>
<path d="M500.5 0V50" stroke="#31403F"/>
<path d="M550.5 0V50" stroke="#31403F"/>
<path d="M500.5 50H550.5" stroke="#31403F"/>
<path d="M550.5 50H600.5" stroke="#31403F"/>
<path d="M550.5 100H600.5" stroke="#31403F"/>
<path d="M500.5 100H550.5" stroke="#31403F"/>
<path d="M500.5 150V200" stroke="#31403F"/>
<path d="M550.5 150V200" stroke="#31403F"/>
<path d="M500.5 150H550.5" stroke="#31403F"/>
<path d="M450.5 150H500.5" stroke="#31403F"/>
<path d="M550.5 150H600.5" stroke="#31403F"/>
<path d="M400 150V200" stroke="#31403F"/>
<path d="M450 150V200" stroke="#31403F"/>
<path d="M400 150H450" stroke="#31403F"/>
<path d="M350 150H400" stroke="#31403F"/>
<path d="M601.5 50V100" stroke="#31403F"/>
<path d="M651.5 50V100" stroke="#31403F"/>
<path d="M651.5 100V150" stroke="#31403F"/>
<path d="M601.5 100V150" stroke="#31403F"/>
<path d="M601.5 0V50" stroke="#31403F"/>
<path d="M651.5 0V50" stroke="#31403F"/>
<path d="M601.5 50H651.5" stroke="#31403F"/>
<path d="M551.5 50H601.5" stroke="#31403F"/>
<path d="M551.5 100H601.5" stroke="#31403F"/>
<path d="M651.5 50H701.5" stroke="#31403F"/>
<path d="M651.5 100H701.5" stroke="#31403F"/>
<path d="M601.5 100H651.5" stroke="#31403F"/>
<path d="M701.5 50V100" stroke="#31403F"/>
<path d="M751.5 50V100" stroke="#31403F"/>
<path d="M751.5 100V150" stroke="#31403F"/>
<path d="M701.5 100V150" stroke="#31403F"/>
<path d="M701.5 0V50" stroke="#31403F"/>
<path d="M751.5 0V50" stroke="#31403F"/>
<path d="M701.5 50H751.5" stroke="#31403F"/>
<path d="M751.5 50H801.5" stroke="#31403F"/>
<path d="M751.5 100H801.5" stroke="#31403F"/>
<path d="M701.5 100H751.5" stroke="#31403F"/>
<path d="M701.5 150V200" stroke="#31403F"/>
<path d="M751.5 150V200" stroke="#31403F"/>
<path d="M701.5 150H751.5" stroke="#31403F"/>
<path d="M651.5 150H701.5" stroke="#31403F"/>
<path d="M751.5 150H801.5" stroke="#31403F"/>
<path d="M601 150V200" stroke="#31403F"/>
<path d="M651 150V200" stroke="#31403F"/>
<path d="M601 150H651" stroke="#31403F"/>
<path d="M551 150H601" stroke="#31403F"/>
</g>
</svg>
