<svg width="48" height="48" viewBox="0 0 48 48" fill="none" xmlns="http://www.w3.org/2000/svg">
<path d="M7.09917 11.9376C9.25437 9.33603 13.0752 8.35682 16.2432 9.47522C18.9264 10.3344 21.0384 12.6576 21.7104 15.3792L21.84 15.2784C22.2816 19.7328 21.7344 24.3408 20.1648 28.5504C18.4512 32.904 15.336 36.8736 11.0448 38.8992C9.39837 39.6528 8.14077 36.9792 9.76317 36.2112C12.8592 34.6992 15.2208 31.9824 16.7376 28.9248C18.3792 25.4544 19.0416 21.576 18.96 17.7504C19.0704 16.4112 18.6048 15.0528 17.7456 14.0208C15.8736 11.5536 11.8608 11.352 9.68637 13.5312C7.33437 15.6672 7.51677 19.8096 10.0128 21.768C11.112 22.6704 12.5328 22.9776 13.9152 23.0832C15.1392 23.3184 15.384 25.176 14.2992 25.776C13.2912 26.2416 12.1056 25.8912 11.0784 25.6368C8.42877 24.8592 6.20157 22.7136 5.41917 20.0592C4.53117 17.3088 5.15997 14.0976 7.09917 11.9376Z" fill="#3C444C"/>
<path d="M26.0687 18.2736C25.5167 13.8288 29.1071 9.39835 33.5855 9.08155C37.6415 8.51995 41.7071 11.376 42.7295 15.312C42.9263 16.4304 43.2719 17.568 42.9599 18.7056C42.9023 22.08 42.2015 25.416 41.0687 28.5888C39.2351 32.8032 36.3023 36.7344 32.1359 38.8512C30.6143 39.7056 29.1119 37.248 30.5999 36.3168C33.6623 34.6992 36.0575 31.9968 37.5887 28.9152C39.0095 26.0352 39.7151 22.8432 39.9167 19.6464C39.9551 17.7168 40.1807 15.5232 38.7167 14.016C36.8975 11.568 32.9327 11.3616 30.7631 13.464C28.3439 15.5568 28.4639 19.8144 31.0271 21.744C32.1359 22.6848 33.6095 22.9824 35.0207 23.0736C36.0959 23.304 36.4943 24.8736 35.6303 25.584C34.6943 26.4048 33.3647 25.7952 32.2799 25.7328C28.9679 24.7632 26.2895 21.7776 26.0687 18.2736Z" fill="#3C444C"/>
<path d="M31.0272 21.744C30.7344 17.592 34.5744 13.7712 38.7168 14.016C40.1808 15.5232 39.9552 17.7168 39.9168 19.6464C39.7152 22.8432 39.0096 26.0352 37.5888 28.9152C35.4528 28.7328 33.5568 27.408 32.28 25.7328C33.3648 25.7952 34.6944 26.4048 35.6304 25.584C36.4944 24.8736 36.096 23.304 35.0208 23.0736C33.6096 22.9824 32.136 22.6848 31.0272 21.744Z" fill="#76A1E7"/>
<path d="M10.0128 21.768C9.73921 17.6016 13.5792 13.7424 17.7456 14.0208C18.6048 15.0528 19.0704 16.4112 18.96 17.7504C19.0416 21.576 18.3792 25.4544 16.7376 28.9248C14.4144 28.8432 12.5712 27.2544 11.0784 25.6368C12.1056 25.8912 13.2912 26.2416 14.2992 25.776C15.384 25.176 15.1392 23.3184 13.9152 23.0832C12.5328 22.9776 11.112 22.6704 10.0128 21.768Z" fill="#76A1E7"/>
<path d="M42.7296 15.312C45.1584 16.9776 46.4976 20.1216 45.84 23.0256C45.3312 25.5504 43.4208 27.6144 41.0688 28.5888C42.2016 25.416 42.9024 22.08 42.96 18.7056C43.272 17.568 42.9264 16.4304 42.7296 15.312Z" fill="#76A1E7"/>
<path d="M21.84 15.2783C23.5488 16.7471 24.9216 18.7823 24.984 21.1055C25.2096 24.3119 23.088 27.3455 20.1648 28.5503C21.7344 24.3407 22.2816 19.7327 21.84 15.2783Z" fill="#76A1E7"/>
</svg>
