<svg width="28" height="28" viewBox="0 0 28 28" fill="none" xmlns="http://www.w3.org/2000/svg">
<path fill-rule="evenodd" clip-rule="evenodd" d="M4.66671 14.0001C4.66671 14.4578 4.98591 14.8361 5.40005 14.896L5.51519 14.9042H22.4847C22.9533 14.9042 23.3332 14.4994 23.3332 14.0001C23.3332 13.5424 23.014 13.1641 22.5998 13.1042L22.4847 13.096H5.51519C5.04659 13.096 4.66671 13.5008 4.66671 14.0001Z" fill="black"/>
<path fill-rule="evenodd" clip-rule="evenodd" d="M15.0419 20.6218C14.7098 20.9741 14.7086 21.5466 15.0393 21.9004C15.3399 22.2221 15.8112 22.2523 16.1439 21.9905L16.2392 21.9031L23.0836 14.6412C23.3863 14.32 23.4139 13.8159 23.1662 13.4614L23.0836 13.3599L16.2393 6.09674C15.9072 5.74439 15.37 5.74558 15.0393 6.09939C14.7387 6.42104 14.7123 6.92339 14.9595 7.27679L15.0418 7.37801L21.2821 14.0009L15.0419 20.6218Z" fill="black"/>
</svg>
