<svg width="17" height="17" viewBox="0 0 17 17" fill="none" xmlns="http://www.w3.org/2000/svg">
<path d="M5.9558 0.457992C7.2398 0.0759921 8.6398 0.0979921 9.9358 0.415992C10.4038 0.527992 10.3778 1.08599 10.4398 1.45999C10.5178 2.10199 10.5278 2.95399 11.2518 3.21399C12.2078 3.68999 13.0138 2.52599 13.9418 2.73199C14.9178 3.63399 15.6018 4.84599 15.9918 6.10999C16.2178 6.81399 15.3478 7.06799 14.9398 7.44199C14.3298 7.78799 14.0938 8.63599 14.4858 9.22999C14.8798 9.71199 15.4898 9.94399 15.9198 10.39C16.1558 10.676 15.9638 11.038 15.8778 11.34C15.4678 12.454 14.8478 13.516 13.9798 14.33C13.3218 14.566 12.7438 13.944 12.1178 13.814C11.5578 13.57 10.9758 14.204 10.4478 13.868C10.0418 13.574 10.1938 12.896 10.6638 12.764C11.5838 12.278 12.6438 12.59 13.5118 13.03C13.9978 12.414 14.3858 11.732 14.6838 11.008C13.8578 10.506 13.0678 9.73799 13.0578 8.70399C12.9398 7.55999 13.7638 6.62799 14.6818 6.07599C14.3898 5.35799 13.9858 4.69599 13.5358 4.06799C12.5878 4.50999 11.4318 4.83199 10.4798 4.21399C9.4898 3.69599 9.2578 2.52599 9.1758 1.51199C8.1798 1.34199 7.1838 1.48199 6.1958 1.60399C5.5938 1.62999 5.4098 0.683992 5.9558 0.457992Z" fill="black"/>
<path d="M1.90805 2.80799C2.42005 2.28199 3.07605 2.91999 3.62005 3.07399C4.12605 3.37999 4.68205 3.13799 5.20605 3.02599C5.77405 2.93399 6.06005 3.78199 5.61005 4.09799C4.67205 4.74999 3.46405 4.46199 2.52605 3.96999C2.04205 4.58799 1.65005 5.26999 1.35805 5.99599C2.18605 6.49399 2.97405 7.25799 2.98405 8.29199C3.10205 9.44399 2.27205 10.372 1.35405 10.93C1.66205 11.648 2.05405 12.328 2.53805 12.944C3.45605 12.466 4.60605 12.178 5.54405 12.776C6.51205 13.274 6.78805 14.41 6.84405 15.41C7.84005 15.57 8.83405 15.432 9.82405 15.31C10.434 15.314 10.58 16.294 9.99805 16.474C8.66605 16.83 7.19005 16.86 5.87805 16.418C5.26805 15.726 5.86805 14.46 4.99805 13.898C4.19605 13.33 3.34805 14.034 2.57605 14.282C2.25605 14.448 1.94405 14.184 1.75605 13.948C0.988047 13.042 0.352047 11.994 0.0320469 10.842C-0.137953 10.224 0.596047 9.97599 0.968047 9.65799C1.49805 9.35599 1.88805 8.74999 1.70605 8.12599C1.50405 7.22199 0.246047 7.14999 -0.00195312 6.29599C0.278047 4.98599 0.998047 3.78199 1.90805 2.80799Z" fill="black"/>
<path d="M7.03401 5.31799C8.93001 4.67199 11.136 6.11999 11.3 8.11399C11.584 10.014 9.92401 11.88 8.00401 11.824C6.15401 11.88 4.52001 10.148 4.68201 8.30399C4.74001 6.94399 5.72801 5.69599 7.03401 5.31799ZM7.25601 6.55799C6.40401 6.86799 5.83001 7.78599 5.93001 8.68999C6.00401 9.79999 7.09001 10.706 8.19601 10.568C9.38201 10.492 10.306 9.25399 10.038 8.09399C9.83601 6.86799 8.40201 6.07799 7.25601 6.55799Z" fill="black"/>
</svg>
