<svg width="16" height="18" viewBox="0 0 16 18" fill="none" xmlns="http://www.w3.org/2000/svg">
<path d="M3.93991 1.24199C6.27191 -0.354008 9.54791 -0.330008 11.9279 1.15999C13.8939 2.35999 15.2479 4.50399 15.4559 6.79999C15.5599 9.09799 15.5019 11.402 15.4939 13.702C15.4999 15.006 14.6219 16.256 13.3759 16.658C12.2799 16.98 11.1219 16.776 9.99991 16.83C9.42991 16.816 8.97191 17.268 8.40191 17.254C7.77191 17.236 6.94191 17.404 6.52391 16.8C6.11991 16.258 6.42791 15.372 7.09591 15.228C7.92991 15.094 8.85791 15.058 9.58391 15.566C10.5219 15.578 11.4619 15.604 12.3999 15.57C13.1839 15.576 13.9299 15.026 14.1539 14.274C14.2659 13.828 14.2499 13.362 14.2779 12.904C13.4519 13.362 12.4579 13.692 11.5199 13.398C10.8019 13.098 10.5959 11.71 11.4079 11.428C11.9539 11.29 12.1519 11.878 12.2539 12.284C12.7399 12.204 13.2679 12.122 13.6339 11.754C14.4599 11.046 14.4199 9.58999 13.5559 8.92999C13.1779 8.58399 12.6479 8.54199 12.1679 8.45399C12.1639 8.99999 12.2079 9.54999 12.1179 10.092C11.9679 10.622 11.1179 10.632 10.9639 10.094C10.8699 9.43399 10.8799 8.75799 10.9579 8.09799C10.9999 7.66799 11.3779 7.31799 11.8019 7.27399C12.6719 7.13199 13.5299 7.43199 14.2839 7.84799C14.2599 6.29199 13.8159 4.70599 12.7739 3.51799C11.1419 1.51999 8.21191 0.757992 5.80591 1.67599C5.32191 1.85599 4.88791 2.14999 4.39991 2.31599C3.81991 2.44999 3.43791 1.56799 3.93991 1.24199Z" fill="black"/>
<path d="M1.90399 3.18999C2.35599 2.63399 3.28799 3.36999 2.84599 3.93999C2.11599 5.11399 1.71599 6.46 1.71599 7.848C2.55799 7.386 3.58599 7.032 4.53199 7.376C5.10999 7.648 5.08999 8.36199 5.08999 8.90599C5.06199 10.104 5.12399 11.306 5.06199 12.504C5.05599 12.92 4.77999 13.328 4.36999 13.436C2.97399 13.746 1.39599 13.024 0.807993 11.7C0.265993 10.574 0.555993 9.298 0.499993 8.098C0.433993 6.374 0.847993 4.57799 1.90399 3.18999ZM2.43999 8.93C1.57999 9.592 1.53999 11.038 2.35999 11.748C2.74599 12.14 3.31399 12.212 3.82999 12.294C3.83599 11.014 3.83399 9.734 3.83199 8.454C3.35199 8.544 2.81999 8.584 2.43999 8.93Z" fill="black"/>
</svg>
