<svg width="48" height="48" viewBox="0 0 48 48" fill="none" xmlns="http://www.w3.org/2000/svg">
<path d="M17.7696 4.84319C19.656 3.51359 22.32 3.86879 23.9856 5.39519C25.7376 3.80639 28.5648 3.50399 30.4608 5.00639C32.352 6.33599 32.904 8.91359 32.1408 11.0256C34.5504 11.0592 36.9744 10.8768 39.3696 11.1168C41.5872 11.6112 42.2976 14.088 42.0048 16.0848C42.168 18.1824 42.0576 20.6256 40.0032 21.7872C39.9696 27.1488 40.0512 32.5104 39.9648 37.872C39.8832 41.1984 36.8688 44.0496 33.5472 43.9872C26.88 43.9728 20.208 44.088 13.5408 43.9248C10.5696 43.536 8.12164 40.872 8.03044 37.872C7.97764 34.848 7.98244 31.8192 8.02564 28.7952C8.12164 27.1152 10.8816 27.12 10.9728 28.8C11.0496 31.68 10.9632 34.5648 11.0064 37.4496C10.9632 38.832 11.8272 40.2096 13.1184 40.7328C13.9872 41.0544 14.928 40.992 15.8352 40.9968C21.7632 40.9728 27.6912 41.0208 33.6144 40.9776C35.4672 41.0112 37.0704 39.3072 36.9888 37.4688C37.0128 32.3088 36.9984 27.1488 36.9936 21.9888C31.3968 21.96 25.8048 22.0176 20.2128 21.9648C18.6672 22.0128 18.2928 19.6464 19.704 19.0992C26.1168 18.7632 32.5776 19.3152 38.9808 18.8208C38.9952 17.9136 39.0048 17.0064 39.0096 16.0992C39.024 15.408 39.0048 14.712 38.8752 14.0304C31.9968 13.896 25.1184 14.2464 18.2448 14.016C15.1968 14.0304 12.1536 13.9872 9.10564 14.04C8.88964 15.6528 9.01924 17.2896 9.02884 18.912C9.51364 18.9552 10.4784 19.0416 10.9632 19.0896C10.8768 18.504 11.0208 17.9136 11.3136 17.4096C11.352 17.9472 11.3904 18.4848 11.424 19.0224C12.1632 19.08 13.1328 18.7872 13.7232 19.4064C14.544 20.0976 14.2464 21.5472 13.248 21.8976C12.5376 22.0416 11.808 21.9744 11.088 21.9936C9.65764 22.0272 7.99684 22.0944 6.96964 20.8992C5.44324 19.2816 6.16324 16.8912 6.00004 14.8992C5.80804 13.0608 7.20964 11.2128 9.07204 11.0352C11.3376 10.968 13.608 11.0208 15.8736 11.016C15.024 8.82719 15.7344 6.11039 17.7696 4.84319ZM18.7776 10.0176C19.5264 11.3232 21.2064 10.9344 22.4496 10.968C22.3728 9.71519 22.8528 8.03039 21.504 7.28639C19.872 6.14879 17.6544 8.38559 18.7776 10.0176ZM26.4864 7.28639C25.1376 8.03519 25.6272 9.71519 25.5552 10.968C26.808 10.9392 28.5216 11.3232 29.2512 9.96959C30.3024 8.33279 28.0992 6.16319 26.4864 7.28639Z" fill="#2D3339"/>
<path d="M17.0209 27.144C18.5329 24.8544 21.8641 24.3888 24.0577 25.9584C25.3441 25.248 26.8561 24.7344 28.3249 25.1712C30.7441 25.7568 32.4721 28.3296 32.0209 30.792C31.8721 31.6224 31.6609 32.7072 30.7009 32.9424C29.4673 33.3552 28.3537 31.8816 28.9585 30.7728C29.5777 29.3424 28.1425 27.624 26.6257 28.0608C25.4881 28.2624 25.2913 29.9424 24.0049 29.8128C22.8577 29.7936 22.6705 28.2432 21.6001 28.0752C20.3089 27.6432 18.9169 28.9248 19.1089 30.24C19.4353 32.9472 21.7585 34.9056 24.0433 36.096C24.9073 35.7216 25.5793 35.0352 26.4241 34.6368C27.7633 34.2288 28.9201 36.0336 27.9505 37.056C26.8369 38.0208 25.5457 38.976 24.0289 39.0816C21.6193 38.6688 19.6753 36.936 18.1153 35.1504C16.3009 33.0096 15.2641 29.6256 17.0209 27.144Z" fill="#2D3339"/>
<path d="M42.0048 16.0848C43.1856 15.9024 44.5824 16.4208 44.7648 17.7456C44.8272 19.5024 44.8128 21.264 44.7792 23.0256C44.7408 24.1104 43.8 24.9072 42.7824 25.08C42.8112 30.6336 42.8112 36.1872 42.7872 41.7408C42.816 44.4384 40.416 46.8192 37.7232 46.7952C31.2192 46.8288 24.7152 46.8288 18.216 46.7952C16.2528 46.8144 14.5056 45.5808 13.5408 43.9248C20.208 44.088 26.88 43.9728 33.5472 43.9872C36.8688 44.0496 39.8832 41.1984 39.9648 37.872C40.0512 32.5104 39.9696 27.1488 40.0032 21.7872C42.0576 20.6256 42.168 18.1824 42.0048 16.0848Z" fill="#A1BFEE"/>
<path d="M11.3136 17.4096C11.5872 16.5072 12.5232 16.0032 13.4304 16.0992C21.9552 16.0944 30.4848 16.0944 39.0096 16.0992C39.0048 17.0064 38.9952 17.9136 38.9808 18.8208C32.5776 19.3152 26.1168 18.7632 19.704 19.0992C18.2928 19.6464 18.6672 22.0128 20.2128 21.9648C25.8048 22.0176 31.3968 21.96 36.9936 21.9888C36.9984 27.1488 37.0128 32.3088 36.9888 37.4688C37.0704 39.3072 35.4672 41.0112 33.6144 40.9776C27.6912 41.0208 21.7632 40.9728 15.8352 40.9968C14.928 40.992 13.9872 41.0544 13.1184 40.7328C13.08 35.4768 13.1232 30.2256 13.0944 24.9744C11.6496 24.8112 10.8768 23.3376 11.088 21.9936C11.808 21.9744 12.5376 22.0416 13.248 21.8976C14.2464 21.5472 14.544 20.0976 13.7232 19.4064C13.1328 18.7872 12.1632 19.08 11.424 19.0224C11.3904 18.4848 11.352 17.9472 11.3136 17.4096ZM17.0208 27.144C15.264 29.6256 16.3008 33.0096 18.1152 35.1504C19.6752 36.936 21.6192 38.6688 24.0288 39.0816C25.5456 38.976 26.8368 38.0208 27.9504 37.056C28.92 36.0336 27.7632 34.2288 26.424 34.6368C25.5792 35.0352 24.9072 35.7216 24.0432 36.096C21.7584 34.9056 19.4352 32.9472 19.1088 30.24C18.9168 28.9248 20.3088 27.6432 21.6 28.0752C22.6704 28.2432 22.8576 29.7936 24.0048 29.8128C25.2912 29.9424 25.488 28.2624 26.6256 28.0608C28.1424 27.624 29.5776 29.3424 28.9584 30.7728C28.3536 31.8816 29.4672 33.3552 30.7008 32.9424C31.6608 32.7072 31.872 31.6224 32.0208 30.792C32.472 28.3296 30.744 25.7568 28.3248 25.1712C26.856 24.7344 25.344 25.248 24.0576 25.9584C21.864 24.3888 18.5328 24.8544 17.0208 27.144Z" fill="#A1BFEE"/>
</svg>
