<svg width="30" height="31" viewBox="0 0 30 31" fill="none" xmlns="http://www.w3.org/2000/svg">
<path d="M0 6.5C0 3.18629 2.68629 0.5 6 0.5H24C27.3137 0.5 30 3.18629 30 6.5V24.5C30 27.8137 27.3137 30.5 24 30.5H6C2.68629 30.5 0 27.8137 0 24.5V6.5Z" fill="#B47C75"/>
<path d="M15.0636 9.39059C17.0876 8.60739 19.1358 7.89019 21.1774 7.15319C22.2048 6.69339 23.4522 7.57119 23.4654 8.66899C23.4456 9.16399 23.241 9.62599 23.0826 10.088C21.5074 14.3516 19.9894 18.635 18.4076 22.8942C18.0336 24.0712 16.2516 24.3572 15.5498 23.3298C14.9448 22.3552 14.4234 21.3256 13.902 20.3026C13.528 19.6998 14.4212 19.0024 14.9316 19.4798C15.6554 20.494 16.1042 21.6754 16.7796 22.7226C16.9996 22.5048 17.2174 22.2738 17.301 21.968C18.698 18.0762 20.1236 14.1954 21.5316 10.308C21.7824 9.67879 22.0112 9.04079 22.1388 8.37419C19.8354 8.92199 17.6904 10.011 15.4156 10.66C14.6698 10.8558 14.3332 9.61499 15.0636 9.39059Z" fill="black"/>
<path d="M10.6857 10.9636C11.1653 10.7964 11.6339 10.5544 12.1465 10.5324C12.7207 10.6182 12.9143 11.5092 12.3731 11.7688C11.4997 12.1978 10.5493 12.4398 9.64728 12.8028C9.00708 13.069 8.24368 13.1548 7.77728 13.718C9.47788 14.7212 11.2533 15.5858 12.9737 16.5538C14.3729 15.159 15.7677 13.7576 17.1647 12.3584C17.3715 12.1956 17.5695 11.9338 17.8643 11.9712C18.4253 11.9558 18.7619 12.7302 18.3351 13.1108C16.9007 14.6156 15.3959 16.0522 13.9461 17.5394C13.6381 17.8496 13.2025 18.3006 12.7405 17.975C11.1037 17.1302 9.50428 16.2128 7.86748 15.3702C7.45828 15.1414 6.99848 14.9236 6.75868 14.4968C6.27248 13.7114 6.58708 12.5322 7.45388 12.1626C8.50548 11.7006 9.61648 11.386 10.6857 10.9636Z" fill="black"/>
</svg>
