<svg width="16" height="15" viewBox="0 0 16 15" fill="none" xmlns="http://www.w3.org/2000/svg">
<path d="M0.0641535 2.29C-0.0118465 1.108 0.980154 -0.0479959 2.19815 0.0100041C4.99815 4.07221e-06 7.79615 0.010004 10.5962 0.00600398C11.5502 -0.039996 12.5282 0.562004 12.8262 1.484C12.9222 1.92 12.4302 2.352 12.0142 2.174C11.5742 1.926 11.3942 1.27 10.8162 1.27C8.14615 1.208 5.47215 1.274 2.80215 1.24C2.36015 1.26 1.79215 1.17 1.50215 1.592C1.10215 2.098 1.52215 2.968 2.19015 2.904C5.66415 2.926 9.13815 2.906 12.6102 2.914C13.4342 2.884 14.2802 3.264 14.7182 3.98C15.2502 4.80401 15.0422 5.83 15.0922 6.754C15.4442 7.07 15.8702 7.408 15.8882 7.926C15.9202 9.04 16.2042 10.472 15.0862 11.178C15.0462 12.118 15.2562 13.174 14.6762 13.996C14.2282 14.682 13.4042 15.026 12.6022 15.006C9.21215 15.004 5.82015 15.016 2.43015 15C1.27015 15.034 0.168154 14.084 0.106154 12.912C0.0661535 11.782 0.0641536 10.65 0.102154 9.52C0.0981536 8.872 1.13815 8.758 1.29415 9.382C1.42215 10.548 1.25015 11.73 1.36615 12.898C1.42815 13.48 2.04215 13.806 2.58415 13.752C5.92215 13.754 9.26215 13.756 12.6022 13.752C13.0782 13.784 13.5922 13.558 13.7582 13.086C13.8962 12.49 13.8242 11.872 13.8322 11.266C13.0682 11.268 12.2202 11.21 11.6522 10.63C10.6602 9.764 10.6982 8.044 11.7242 7.22C12.2902 6.688 13.1002 6.662 13.8302 6.638C13.8322 6.062 13.8782 5.478 13.7802 4.906C13.6522 4.396 13.1122 4.124 12.6162 4.168C9.34215 4.17 6.07015 4.154 2.79615 4.182C2.30015 4.19 1.81215 4.102 1.32415 4.028C1.31615 5.23 1.38215 6.436 1.30215 7.636C1.23615 8.278 0.178154 8.276 0.112154 7.632C0.0341537 5.854 0.122154 4.07 0.0641535 2.29ZM12.8582 7.98C12.1162 8.20601 11.9262 9.296 12.5482 9.76C13.1602 10.196 13.9642 9.956 14.6582 9.942C14.6802 9.272 14.6662 8.6 14.6422 7.928C14.0502 7.932 13.4422 7.846 12.8582 7.98Z" fill="black"/>
</svg>
