<svg width="56" height="56" viewBox="0 0 56 56" fill="none" xmlns="http://www.w3.org/2000/svg">
<path d="M0 28C0 12.536 12.536 0 28 0C43.464 0 56 12.536 56 28C56 43.464 43.464 56 28 56C12.536 56 0 43.464 0 28Z" fill="#F7D1B7" fill-opacity="0.5"/>
<path d="M26.8704 14.7648C27.4848 14.6816 28.1376 14.5728 28.7392 14.7808C29.4624 15.0976 29.4624 16.2688 28.72 16.56C27.6832 16.7712 26.5504 16.6976 25.632 17.3184C23.4592 18.5184 22.6496 21.6128 24.0128 23.6992C24.2976 24.2496 24.9184 24.7296 24.752 25.4176C24.5472 26.08 23.6032 26.3776 23.1136 25.8432C20.848 23.5392 20.7584 19.5424 22.8608 17.1008C23.8656 15.8784 25.3088 15.0272 26.8704 14.7648Z" fill="#3D4946"/>
<path d="M30.9954 15.9904C31.3634 15.7504 31.8722 15.8688 32.1826 16.1504C34.525 17.9712 35.341 21.4464 34.045 24.1216C32.8066 26.9056 29.4946 28.5856 26.525 27.8176C25.6322 27.6224 25.5714 26.2496 26.4226 25.9392C27.4722 25.8752 28.5698 26.1568 29.5746 25.7152C31.8306 24.9632 33.197 22.3072 32.4802 20.032C32.237 19.0048 31.4882 18.24 30.7746 17.5104C30.2818 17.1008 30.4546 16.2688 30.9954 15.9904Z" fill="#3D4946"/>
<path d="M20.4512 30.7424C21.0976 30.6464 21.7696 30.592 22.4128 30.7456C23.2096 31.0336 23.2128 32.288 22.4192 32.576C21.5456 32.784 20.4512 32.4704 19.7984 33.248C18.8448 34.336 19.5232 35.9584 20.4512 36.832C22.5248 38.8224 25.5392 39.296 28.304 39.36C29.0624 39.3216 29.52 40.3008 29.0784 40.8928C28.784 41.3696 28.176 41.3376 27.6896 41.3312C24.8768 41.264 21.952 40.608 19.7024 38.8384C18.2688 37.7152 17.168 35.952 17.3664 34.0736C17.5104 32.4448 18.8352 31.008 20.4512 30.7424Z" fill="#3D4946"/>
<path d="M24.3134 30.7616C27.0206 30.5344 29.763 30.736 32.4798 30.6656C34.019 30.7168 35.7598 30.3872 37.0782 31.392C38.7038 32.512 39.0718 34.848 38.1758 36.544C36.8798 39.1392 33.987 40.5056 31.251 40.9888C30.2014 41.1712 29.7854 39.4592 30.7966 39.136C32.9374 38.5376 35.4174 37.7248 36.4286 35.5456C37.0462 34.4256 36.4222 32.72 35.027 32.6944C31.5454 32.6048 28.0574 32.752 24.579 32.6304C23.6286 32.576 23.4334 31.0976 24.3134 30.7616Z" fill="#3D4946"/>
</svg>
