<svg width="56" height="56" viewBox="0 0 56 56" fill="none" xmlns="http://www.w3.org/2000/svg">
<rect width="56" height="56" rx="28" fill="white"/>
<path fill-rule="evenodd" clip-rule="evenodd" d="M27.9478 29.1471H28.0017C32.931 29.1471 36.9394 25.1528 36.9394 20.241C36.9394 15.3292 32.931 11.3333 28.0017 11.3333C23.0707 11.3333 19.0606 15.3292 19.0606 20.236C19.0438 25.1344 23.0286 29.132 27.9478 29.1471ZM21.4646 20.241C21.4646 16.6494 24.3973 13.7288 28.0017 13.7288C31.6044 13.7288 34.5353 16.6494 34.5353 20.241C34.5353 23.8309 31.6044 26.7532 28.0017 26.7532H27.9528C24.3636 26.7398 21.4528 23.8209 21.4646 20.241Z" fill="#4A4A4A"/>
<path fill-rule="evenodd" clip-rule="evenodd" d="M14.6666 38.4647C14.6666 44.6666 24.7037 44.6666 28.0016 44.6666C33.7239 44.6666 41.3333 44.0274 41.3333 38.4983C41.3333 32.2964 31.2996 32.2964 28.0016 32.2964C22.2777 32.2964 14.6666 32.9355 14.6666 38.4647ZM17.1919 38.4647C17.1919 36.0407 20.8282 34.8127 28.0016 34.8127C35.1734 34.8127 38.808 36.0524 38.808 38.4983C38.808 40.9223 35.1734 42.1503 28.0016 42.1503C20.8282 42.1503 17.1919 40.9106 17.1919 38.4647Z" fill="#4A4A4A"/>
</svg>
