<svg width="32" height="32" viewBox="0 0 32 32" fill="none" xmlns="http://www.w3.org/2000/svg">
<path fill-rule="evenodd" clip-rule="evenodd" d="M22.9146 3.33333C24.792 3.33333 26.598 4.07925 27.9266 5.4177C29.2566 6.75333 30 8.55481 30 10.4407V21.5593C30 25.4859 26.822 28.6667 22.9146 28.6667H9.084C5.1766 28.6667 2 25.4859 2 21.5593V10.4407C2 6.51407 5.1626 3.33333 9.084 3.33333H22.9146ZM25.1423 12.538L25.2543 12.4254C25.5889 12.0173 25.5889 11.4262 25.2389 11.018C25.0443 10.8083 24.7769 10.6802 24.4983 10.6521C24.2043 10.6366 23.9243 10.7365 23.7129 10.9336L17.4003 16.0002C16.5883 16.6772 15.4249 16.6772 14.6003 16.0002L8.30029 10.9336C7.86489 10.6099 7.26289 10.6521 6.90029 11.0321C6.52229 11.4121 6.48029 12.0173 6.80089 12.4395L6.98429 12.6225L13.3543 17.6188C14.1383 18.238 15.0889 18.5758 16.0843 18.5758C17.0769 18.5758 18.0443 18.238 18.8269 17.6188L25.1423 12.538Z" fill="#D16015"/>
</svg>
