<svg width="16" height="18" viewBox="0 0 16 18" fill="none" xmlns="http://www.w3.org/2000/svg">
<path d="M4.22593 1.34001C5.32593 0.428006 7.05993 0.634006 7.99993 1.68601C8.93393 0.640006 10.6579 0.428006 11.7599 1.33201C12.8539 2.14801 13.0619 3.76401 12.3939 4.91601C13.2219 4.95201 14.0759 4.81001 14.8859 5.01201C15.7559 5.42001 15.4479 6.53001 15.4999 7.29401C15.4639 8.22201 15.7899 9.54401 14.6679 9.95601C14.6579 11.666 14.6779 13.378 14.6599 15.09C14.6799 16.134 14.0539 17.16 13.0939 17.58C12.5059 17.864 11.8379 17.832 11.2039 17.836C8.79793 17.82 6.38993 17.85 3.98393 17.824C2.61793 17.836 1.38193 16.658 1.34993 15.29C1.32393 14.096 1.31193 12.898 1.35393 11.706C1.37393 11.086 2.34193 10.976 2.53793 11.552C2.66593 12.8 2.51593 14.062 2.60593 15.314C2.65793 16.01 3.30393 16.588 4.00193 16.572C5.12593 16.598 6.24993 16.57 7.37393 16.58C7.37593 14.358 7.37393 12.136 7.37593 9.91401C5.44393 9.90401 3.51393 9.93001 1.58393 9.90401C1.02393 9.94601 0.499932 9.47201 0.513932 8.90601C0.487932 7.90601 0.481932 6.90401 0.517932 5.90601C0.511932 5.42601 0.913932 4.98001 1.39393 4.94201C2.12793 4.87601 2.86593 4.92601 3.60393 4.91601C2.94193 3.76601 3.14193 2.16401 4.22593 1.34001ZM5.11793 2.23001C4.32393 2.70801 4.23793 3.96201 4.94593 4.55401C5.61793 5.12601 6.56993 4.85201 7.37393 4.91201C7.36393 4.26601 7.42393 3.60801 7.28793 2.97201C7.02993 2.09401 5.86393 1.72401 5.11793 2.23001ZM8.75593 2.84401C8.54193 3.50801 8.64993 4.22401 8.62593 4.91201C9.30793 4.88401 10.0199 5.01001 10.6779 4.79001C11.5579 4.44401 11.8159 3.19401 11.1899 2.50201C10.5579 1.71001 9.14193 1.90001 8.75593 2.84401ZM1.75393 6.16601C1.74793 6.99801 1.74993 7.82801 1.74993 8.66001C3.62593 8.66001 5.49993 8.66001 7.37393 8.66001C7.37593 7.82801 7.37593 6.99601 7.37393 6.16401C5.49993 6.19201 3.62793 6.15601 1.75393 6.16601ZM8.62593 6.16401C8.62393 6.99601 8.62393 7.82801 8.62593 8.66001C9.07993 8.66001 9.53993 8.62801 9.98793 8.71001C10.4959 8.89801 10.4899 9.68401 9.98793 9.87201C9.53793 9.94001 9.07993 9.91801 8.62593 9.91401C8.62593 12.136 8.62393 14.358 8.62593 16.58C9.74793 16.57 10.8719 16.598 11.9939 16.572C12.7719 16.594 13.4479 15.882 13.4099 15.11C13.4299 13.378 13.4099 11.644 13.4159 9.91201C12.8779 9.91001 12.3399 9.94001 11.8039 9.89201C11.1899 9.78401 11.1899 8.80001 11.8039 8.69001C12.6179 8.61801 13.4359 8.68401 14.2519 8.64201C14.2499 7.82401 14.2399 7.00601 14.2639 6.19001C12.3859 6.12401 10.5059 6.20601 8.62593 6.16401Z" fill="black"/>
</svg>
