<svg width="25" height="24" viewBox="0 0 25 24" fill="none" xmlns="http://www.w3.org/2000/svg">
<path fill-rule="evenodd" clip-rule="evenodd" d="M20.5 12.0002C20.5 12.3925 20.2264 12.7167 19.8714 12.7681L19.7727 12.7751H5.22745C4.8258 12.7751 4.50019 12.4282 4.50019 12.0002C4.50019 11.6078 4.77379 11.2836 5.12877 11.2323L5.22745 11.2252H19.7727C20.1744 11.2252 20.5 11.5722 20.5 12.0002Z" fill="white"/>
<path fill-rule="evenodd" clip-rule="evenodd" d="M11.607 17.6759C11.8916 17.9779 11.8926 18.4685 11.6092 18.7718C11.3516 19.0476 10.9476 19.0735 10.6624 18.849L10.5807 18.7742L4.71412 12.5497C4.4546 12.2743 4.43099 11.8423 4.6433 11.5384L4.71408 11.4514L10.5807 5.22585C10.8653 4.92383 11.3258 4.92485 11.6092 5.22812C11.8668 5.50382 11.8895 5.9344 11.6776 6.23732L11.607 6.32408L6.25823 12.0008L11.607 17.6759Z" fill="white"/>
</svg>
