<svg width="28" height="28" viewBox="0 0 28 28" fill="none" xmlns="http://www.w3.org/2000/svg">
<path fill-rule="evenodd" clip-rule="evenodd" d="M23.3333 14.0001C23.3333 14.4578 23.0141 14.8361 22.5999 14.896L22.4848 14.9042H5.51532C5.04672 14.9042 4.66685 14.4994 4.66685 14.0001C4.66685 13.5424 4.98605 13.1641 5.40019 13.1042L5.51532 13.096H22.4848C22.9534 13.096 23.3333 13.5008 23.3333 14.0001Z" fill="black"/>
<path fill-rule="evenodd" clip-rule="evenodd" d="M12.9581 20.6218C13.2902 20.9741 13.2914 21.5466 12.9607 21.9004C12.6601 22.2221 12.1888 22.2523 11.8561 21.9905L11.7608 21.9031L4.91643 14.6412C4.61365 14.32 4.58611 13.8159 4.83381 13.4614L4.91638 13.3599L11.7607 6.09674C12.0928 5.74439 12.63 5.74558 12.9607 6.09939C13.2613 6.42104 13.2877 6.92339 13.0405 7.27679L12.9582 7.37801L6.7179 14.0009L12.9581 20.6218Z" fill="black"/>
</svg>
