<svg width="28" height="28" viewBox="0 0 28 28" fill="none" xmlns="http://www.w3.org/2000/svg">
<path d="M13.7565 2.2596C14.1345 2.1224 14.5797 2.3688 14.5377 2.7972C14.5713 3.99 14.6189 5.194 14.5041 6.3812C14.3249 6.9328 13.3981 6.7564 13.4681 6.1712C13.4177 4.9644 13.3953 3.752 13.4877 2.548C13.5549 2.4752 13.6893 2.3324 13.7565 2.2596Z" fill="#0C1C18"/>
<path d="M5.65607 5.6672C5.79047 5.628 6.05927 5.5552 6.19087 5.5188C7.19047 6.2944 8.05287 7.2408 8.90967 8.1648C9.44727 8.5792 8.57087 9.4528 8.15927 8.904C7.23527 8.0416 6.29447 7.1736 5.49927 6.1852C5.53847 6.0564 5.61687 5.796 5.65607 5.6672Z" fill="#0C1C18"/>
<path d="M21.4228 5.8044C21.742 5.25 22.6408 5.5608 22.4784 6.2048C21.7028 7.1988 20.7536 8.0472 19.838 8.9068C19.4264 9.45 18.536 8.568 19.096 8.1592C19.8296 7.336 20.6304 6.5688 21.4228 5.8044Z" fill="#0C1C18"/>
<path d="M12.7428 8.5932C14.8316 8.0668 17.164 8.9376 18.4548 10.6456C19.432 11.9 19.81 13.5884 19.4768 15.1424C19.0512 17.2732 17.2732 19.054 15.1424 19.4768C13.2608 19.8912 11.2056 19.2276 9.90922 17.808C8.48402 16.3212 8.00802 14.0084 8.74722 12.082C9.37722 10.3432 10.9424 8.9964 12.7428 8.5932ZM13.216 9.5872C11.4604 9.8784 9.99602 11.3288 9.61802 13.0564C9.01042 15.526 10.9256 18.1804 13.44 18.4436C16.0104 18.8496 18.564 16.5844 18.4744 13.9832C18.5556 11.3092 15.834 9.0412 13.216 9.5872Z" fill="#0C1C18"/>
<path d="M2.352 13.5912C3.5448 13.2608 4.9084 13.4876 6.1628 13.4652C6.7564 13.4064 6.9412 14.3136 6.384 14.504C5.18 14.6216 3.9648 14.5628 2.758 14.546C2.2596 14.6272 1.9152 13.8936 2.352 13.5912Z" fill="#0C1C18"/>
<path d="M21.3976 13.5856C22.5988 13.2636 23.9484 13.4848 25.2056 13.4652C25.7936 13.4092 25.9784 14.3108 25.4268 14.504C24.2256 14.6188 23.0104 14.5656 21.8064 14.546C21.2856 14.644 20.9552 13.8656 21.3976 13.5856Z" fill="#0C1C18"/>
<path d="M7.97998 19.25C8.29358 18.7152 9.13078 19.0232 9.03278 19.6336C8.38318 20.5576 7.47598 21.266 6.70598 22.0836C6.39518 22.6912 5.30318 22.6296 5.49638 21.798C6.24678 20.8796 7.13438 20.0788 7.97998 19.25Z" fill="#0C1C18"/>
<path d="M19.1128 19.124C19.2388 19.082 19.4908 19.0036 19.6196 18.9644C20.6332 19.712 21.4732 20.6808 22.3412 21.5908C22.932 22.0192 22.0304 22.9292 21.5964 22.3496C20.6864 21.4732 19.7232 20.6248 18.9504 19.6224C18.9896 19.4964 19.0708 19.2472 19.1128 19.124Z" fill="#0C1C18"/>
<path d="M13.7676 21.294C14.1316 21.1736 14.5684 21.3976 14.5376 21.8176C14.5852 22.946 14.5908 24.0828 14.532 25.2112C14.5852 25.7992 13.7032 25.9672 13.496 25.4352C13.3924 24.1612 13.4036 22.8732 13.4848 21.5992C13.5548 21.5236 13.6976 21.3724 13.7676 21.294Z" fill="#0C1C18"/>
</svg>
