<svg width="32" height="32" viewBox="0 0 32 32" fill="none" xmlns="http://www.w3.org/2000/svg">
<path fill-rule="evenodd" clip-rule="evenodd" d="M26.6665 13.757C26.6665 7.62385 21.8428 2.66666 16.0081 2.66666C10.1569 2.66666 5.33317 7.62385 5.33317 13.757C5.33317 16.8476 6.39104 19.7168 8.13223 22.1488C10.0531 24.8313 12.4207 27.1686 15.0856 29.0032C15.6955 29.4272 16.246 29.4592 16.9154 29.0032C19.5955 27.1686 21.963 24.8313 23.8674 22.1488C25.6099 19.7168 26.6665 16.8476 26.6665 13.757ZM19.5207 14.1024C19.5207 16.157 17.9427 17.7729 16.0079 17.7729C14.0719 17.7729 12.4787 16.157 12.4787 14.1024C12.4787 12.0637 14.0719 10.3691 16.0079 10.3691C17.9427 10.3691 19.5207 12.0637 19.5207 14.1024Z" fill="#D16015"/>
</svg>
