<svg width="28" height="28" viewBox="0 0 28 28" fill="none" xmlns="http://www.w3.org/2000/svg">
<path fill-rule="evenodd" clip-rule="evenodd" d="M24.2083 8.16667C24.2083 8.64992 23.8165 9.04167 23.3333 9.04167L4.66658 9.04167C4.18333 9.04167 3.79158 8.64992 3.79158 8.16667C3.79158 7.68342 4.18333 7.29167 4.66658 7.29167L23.3333 7.29167C23.8165 7.29167 24.2083 7.68342 24.2083 8.16667Z" fill="#091411"/>
<path fill-rule="evenodd" clip-rule="evenodd" d="M24.2083 14C24.2083 14.4832 23.8165 14.875 23.3333 14.875L4.66658 14.875C4.18333 14.875 3.79158 14.4832 3.79158 14C3.79158 13.5168 4.18333 13.125 4.66658 13.125L23.3333 13.125C23.8165 13.125 24.2083 13.5168 24.2083 14Z" fill="#091411"/>
<path fill-rule="evenodd" clip-rule="evenodd" d="M24.2083 19.8333C24.2083 20.3166 23.8165 20.7083 23.3333 20.7083L4.66658 20.7083C4.18333 20.7083 3.79158 20.3166 3.79158 19.8333C3.79158 19.3501 4.18333 18.9583 4.66658 18.9583L23.3333 18.9583C23.8165 18.9583 24.2083 19.3501 24.2083 19.8333Z" fill="#091411"/>
</svg>
