<svg width="18" height="17" viewBox="0 0 18 17" fill="none" xmlns="http://www.w3.org/2000/svg">
<path d="M2.53987 0.654013C3.72187 0.510013 4.93187 0.566013 6.11987 0.614013C6.76987 0.662013 6.78187 1.73401 6.13787 1.80201C5.03187 1.89001 3.92187 1.79801 2.81587 1.84601C2.79387 3.17601 1.67186 4.08401 1.28386 5.28601C1.18586 6.06201 2.00986 6.80801 2.75987 6.44601C3.30387 6.25401 3.30987 5.60601 3.48387 5.15201C3.57587 4.73001 4.21987 4.67001 4.45387 5.00201C4.62587 5.38801 4.68187 5.82601 4.91587 6.18601C5.35387 6.75201 6.44587 6.59801 6.59787 5.86401C6.75387 5.44601 6.76787 4.71801 7.39787 4.78801C7.97987 4.86801 7.91787 5.58601 8.14187 5.99201C8.43187 6.75601 9.75587 6.68601 9.92787 5.87201C10.0919 5.50001 10.0539 4.83401 10.5979 4.80001C11.2359 4.70001 11.2359 5.47601 11.4319 5.88401C11.6259 6.64801 12.8059 6.75001 13.1799 6.08601C13.3379 5.74201 13.3939 5.36201 13.5359 5.01201C13.7699 4.67201 14.4179 4.72201 14.5139 5.15201C14.6999 5.65201 14.7799 6.36401 15.4099 6.49801C16.1299 6.71601 16.8319 6.02201 16.7139 5.30201C16.3459 4.08801 15.2019 3.18201 15.1839 1.84601C12.9959 1.80401 10.8059 1.86401 8.61787 1.82001C8.15587 1.87001 7.79387 1.33401 8.02387 0.926013C8.19587 0.554013 8.65387 0.590013 8.99587 0.576013C10.9379 0.584013 12.8799 0.574013 14.8219 0.580013C15.4079 0.556013 16.0839 0.794013 16.3139 1.37801C16.4939 1.91801 16.5759 2.49801 16.8939 2.98401C17.3439 3.84401 18.1719 4.65401 17.9419 5.71001C17.8959 6.59801 17.2359 7.26401 16.5059 7.68401C16.4659 8.82201 16.5679 9.96401 16.4579 11.096C16.3539 11.694 15.3799 11.672 15.2899 11.084C15.1859 9.99601 15.2819 8.90001 15.2459 7.80801C14.8239 7.60001 14.4119 7.37401 14.0119 7.12601C13.5279 7.44201 13.0119 7.78401 12.4079 7.77401C11.7599 7.83001 11.1919 7.47401 10.6839 7.12201C10.1779 7.45201 9.63187 7.81001 8.99987 7.77401C8.37387 7.81001 7.84187 7.45201 7.34587 7.12201C6.82587 7.47801 6.24587 7.82801 5.58787 7.77401C4.99187 7.78401 4.48987 7.43801 4.01587 7.12201C3.48187 7.48401 2.88187 7.84401 2.20787 7.77001C1.03187 7.74001 0.0778648 6.66001 0.0438648 5.51201C-0.0921352 4.53401 0.697865 3.80001 1.10387 2.99001C1.63787 2.23401 1.42987 0.908013 2.53987 0.654013Z" fill="black"/>
<path d="M1.51792 9.89601C1.46392 9.19401 2.61392 9.07601 2.71192 9.75801C2.81392 11.69 2.70792 13.63 2.75992 15.566C3.17192 15.576 3.58592 15.582 3.99992 15.584C4.02392 13.818 3.95592 12.05 4.02592 10.286C4.02792 9.89201 4.45192 9.72601 4.78992 9.75801C5.90592 9.76201 7.02792 9.70001 8.14192 9.79401C8.55792 9.86201 8.58992 10.35 8.58392 10.684C8.58992 12.316 8.57792 13.948 8.58392 15.58C10.8039 15.574 13.0239 15.596 15.2419 15.566C15.2759 14.708 15.1819 13.838 15.3019 12.986C15.4519 12.406 16.4439 12.484 16.4659 13.092C16.5299 13.954 16.5439 14.83 16.4499 15.69C16.3299 16.448 15.5379 16.898 14.8119 16.834C10.8739 16.828 6.93392 16.844 2.99592 16.826C2.17192 16.864 1.44992 16.128 1.50592 15.302C1.49992 13.5 1.47592 11.696 1.51792 9.89601ZM5.24992 11.008C5.25192 12.532 5.24792 14.056 5.25192 15.58C5.94592 15.58 6.63792 15.58 7.33192 15.58C7.33392 14.056 7.33392 12.53 7.33192 11.006C6.63792 11.006 5.94392 11.006 5.24992 11.008Z" fill="black"/>
<path d="M10.2778 9.79401C11.3098 9.70601 12.3558 9.74401 13.3918 9.77001C13.6898 9.75401 13.9798 9.99401 13.9758 10.304C14.0258 11.308 14.0198 12.316 13.9798 13.32C13.9938 13.628 13.7278 13.906 13.4158 13.892C12.4018 13.936 11.3818 13.94 10.3678 13.886C10.0798 13.894 9.84979 13.608 9.85379 13.33C9.80579 12.386 9.82179 11.438 9.84179 10.494C9.82979 10.204 9.94779 9.84001 10.2778 9.79401ZM11.0838 11.008C11.0838 11.558 11.0838 12.11 11.0838 12.66C11.6398 12.66 12.1938 12.66 12.7498 12.66C12.7498 12.108 12.7498 11.558 12.7478 11.006C12.1938 11.006 11.6378 11.006 11.0838 11.008Z" fill="black"/>
</svg>
