<svg width="22" height="10" viewBox="0 0 22 10" fill="none" xmlns="http://www.w3.org/2000/svg">
<path d="M0.28125 2.25C0.28125 1.16269 1.16269 0.28125 2.25 0.28125H19.75C20.8373 0.28125 21.7188 1.16269 21.7188 2.25V7.25C21.7188 8.33731 20.8373 9.21875 19.75 9.21875H2.25C1.16269 9.21875 0.28125 8.33731 0.28125 7.25V2.25Z" fill="#DCC3BF"/>
<path d="M0.28125 2.25C0.28125 1.16269 1.16269 0.28125 2.25 0.28125H19.75C20.8373 0.28125 21.7188 1.16269 21.7188 2.25V7.25C21.7188 8.33731 20.8373 9.21875 19.75 9.21875H2.25C1.16269 9.21875 0.28125 8.33731 0.28125 7.25V2.25Z" stroke="#8F4C31" stroke-width="0.5625"/>
<circle cx="9" cy="2.75" r="0.5" fill="#8F4C31"/>
<circle cx="11" cy="2.75" r="0.5" fill="#8F4C31"/>
<circle cx="13" cy="2.75" r="0.5" fill="#8F4C31"/>
<circle cx="9" cy="4.75" r="0.5" fill="#8F4C31"/>
<circle cx="11" cy="4.75" r="0.5" fill="#8F4C31"/>
<circle cx="13" cy="4.75" r="0.5" fill="#8F4C31"/>
<circle cx="9" cy="6.75" r="0.5" fill="#8F4C31"/>
<circle cx="11" cy="6.75" r="0.5" fill="#8F4C31"/>
<circle cx="13" cy="6.75" r="0.5" fill="#8F4C31"/>
</svg>
