<svg width="19" height="20" viewBox="0 0 19 20" fill="none" xmlns="http://www.w3.org/2000/svg">
<path fill-rule="evenodd" clip-rule="evenodd" d="M7.56517 14.7682C8.86713 18.6818 10.5143 19.5 11.6782 19.5C12.8421 19.5 14.4892 18.6818 15.8011 14.7583L18.5924 6.38899C19.2927 4.29911 19.0855 2.5444 18.0104 1.47975C16.9353 0.415094 15.1895 0.208078 13.0985 0.907989L4.72453 3.69778C0.818656 5.00888 0 6.66501 0 7.81838C0 8.98161 0.818656 10.6279 4.72453 11.9291L6.85501 12.6389L7.56517 14.7682ZM1.46964 7.81838C1.46964 7.10861 2.44611 6.02424 5.18811 5.10746L13.5621 2.30781C15.0712 1.80506 16.3139 1.88392 16.9551 2.52469C17.5962 3.16545 17.6849 4.40755 17.1819 5.92566L14.3906 14.295C13.4733 17.0355 12.3883 18.0115 11.6782 18.0115C10.968 18.0115 9.87319 17.0355 8.96576 14.295L8.22599 12.0769L11.6783 8.61686C11.9644 8.33098 11.9644 7.8578 11.6783 7.57192C11.3923 7.28605 10.9188 7.28605 10.6328 7.57192L7.10173 11.1109C7.09032 11.1223 7.07936 11.134 7.06885 11.146L5.18811 10.5194C2.44611 9.61252 1.46964 8.52815 1.46964 7.81838Z" fill="white"/>
</svg>
