<svg width="22" height="20" viewBox="0 0 22 20" fill="none" xmlns="http://www.w3.org/2000/svg">
<path fill-rule="evenodd" clip-rule="evenodd" d="M16.1859 0.5C17.594 0.5 18.9485 1.05944 19.9449 2.06328C20.9424 3.065 21.5 4.41611 21.5 5.83056V14.1694C21.5 17.1144 19.1165 19.5 16.1859 19.5H5.813C2.88245 19.5 0.5 17.1144 0.5 14.1694V5.83056C0.5 2.88556 2.87195 0.5 5.813 0.5H16.1859ZM17.8567 7.40352L17.9407 7.31908C18.1917 7.01297 18.1917 6.56963 17.9292 6.26352C17.7832 6.10624 17.5827 6.01019 17.3737 5.98908C17.1532 5.97747 16.9432 6.05241 16.7847 6.20019L12.0502 10.0002C11.4412 10.5079 10.5687 10.5079 9.95022 10.0002L5.22522 6.20019C4.89867 5.95741 4.44717 5.98908 4.17522 6.27408C3.89172 6.55908 3.86022 7.01297 4.10067 7.32963L4.23822 7.46686L9.01572 11.2141C9.60372 11.6785 10.3167 11.9319 11.0632 11.9319C11.8077 11.9319 12.5332 11.6785 13.1202 11.2141L17.8567 7.40352Z" fill="#505A65"/>
</svg>
