<?xml version="1.0" encoding="UTF-8"?>
<svg id="Layer_1" data-name="Layer 1" xmlns="http://www.w3.org/2000/svg" viewBox="0 0 841.89 595.28">
  <defs>
    <style>
      .cls-1 {
        fill: #fff;
      }

      .cls-2 {
        fill: #e5b52e;
      }

      .cls-2, .cls-3, .cls-4, .cls-5, .cls-6 {
        stroke: #000;
      }

      .cls-2, .cls-7, .cls-4, .cls-5, .cls-8, .cls-6 {
        stroke-miterlimit: 10;
      }

      .cls-2, .cls-4 {
        stroke-width: 4px;
      }

      .cls-3 {
        stroke-linejoin: bevel;
      }

      .cls-3, .cls-7, .cls-5, .cls-8, .cls-6 {
        fill: none;
      }

      .cls-3, .cls-5 {
        stroke-width: 5px;
      }

      .cls-3, .cls-8, .cls-6 {
        stroke-linecap: round;
      }

      .cls-7 {
        stroke: #bf8c26;
      }

      .cls-9 {
        fill: #552593;
      }

      .cls-10 {
        opacity: .44;
      }

      .cls-11 {
        fill: #a80c0c;
        opacity: .74;
      }

      .cls-12 {
        fill: #eddfc0;
      }

      .cls-13 {
        fill: #efe7d5;
      }

      .cls-4 {
        fill: #ebd193;
      }

      .cls-8 {
        stroke: #4c0e0e;
        stroke-width: 2px;
      }

      .cls-6 {
        stroke-width: 3px;
      }
    </style>
  </defs>
  <path class="cls-12" d="m488.51,534.28c-10,4.35-18.66,6.85-25.24,8.37-15.44,3.57-29.45,4.15-130.15-19.6-4.77-1.13-13.72-3.34-22.73-10.19-6.59-5.02-11.26-11.01-14.57-16.75,69.49,18.62,147.44,31.52,192.69,38.17Z"/>
  <path class="cls-12" d="m681.23,515.21c-5.45,17.22-88.08,4.96-163.86-6.27-14.72-2.18-29.69-4.58-44.77-7.16-51.36-8.79-103.85-19.68-150.92-31.18-88.43-21.6-157.73-45.29-164.47-61.15-.01-.01-.01-.03-.01-.04s0-.02-.01-.03c-.19-1.17-.35-2.22-.46-3.14,1.65-10.66,37.18-12.82,97.22-16.46,15.18-.92,32.33-1.91,51.26-2.29,4.96-.1,10.05-.15,15.26-.15h.34c-.51,2.99-.97,6.08-1.35,9.24-2.71,22.64-4.07,33.97,1.39,45.99.2.45.42.9.66,1.35,19.42,37.91,88.26,38.73,101.88,38.9,28.21.34,58.58,4.03,77.71-16.03,8.98-9.42,11.82-19.85,14.29-28.92,1.81-6.67,2.68-12.65,2.88-18.29.09.02.18.06.28.09,2.54.87,5.08,1.75,7.61,2.65,84.13,29.89,160.67,75.25,155.1,92.9Z"/>
  <path class="cls-1" d="m665.28,504.95c-.66,0-1.32-.21-1.88-.64-6.7-5.19-13.68-10.25-20.75-15.04-20.39-13.83-37.31-22.58-50.91-29.61-12.01-6.21-24.44-12.16-36.94-17.69-1.55-.69-2.25-2.5-1.57-4.05.69-1.55,2.5-2.25,4.05-1.57,12.61,5.58,25.15,11.58,37.28,17.85,13.74,7.1,30.85,15.95,51.54,29.98,7.17,4.86,14.26,10,21.06,15.27,1.34,1.04,1.59,2.97.55,4.31-.61.78-1.51,1.19-2.43,1.19Z"/>
  <g>
    <path class="cls-13" d="m602.45,172.76s.05.03.11-.03l.93-.28c-.34.1-.69.21-1.04.31Z"/>
    <path class="cls-13" d="m602.49,172.29c-.04.21-.07.41-.03.47-.5.15-.99.3-1.49.45-11.79,12.13-20.95,23.15-27.67,31.79-22.93,29.48-35.07,54.03-43.38,71.09-10.05,20.59-11.41,27.41-12.03,31.88-2.56,18.6,3.4,28.62,7.84,48.61,6.51,29.26,3.9,53.6,1.97,68.08-.13,1.05-.27,2.06-.4,3-3.51,25.81-6.46,47.38-23.52,62.72-8.71,7.83-18.07,11.31-29.61,13.74l-150.93-31.18c-2.18-2.28-4.19-4.82-6.05-7.65-7.89-11.98-9.31-23.06-10.98-36.07-1.81-14.13-1.28-27.4.56-39.4,4.99-32.67,19.65-55.87,22.96-60.95,7.94-12.2,7.5-7.45,19.35-24.04,17.91-25.1,36.99-51.82,38.67-86.76.93-19.29-3.59-37.92-7.84-55.41-2.54-10.45-5.23-19.02-7.31-25.07t-.01-.02s.02.01.03.02h.01c7.58-.26,15.99-.51,25.06-.72,45.79-1.06,68.69-1.6,94.42.7,56.71,5.05,81.75,17.34,89.9,21.6,8.2,4.3,15.06,8.7,20.44,12.52.1-.1.12-.04.12.08.31.23.62.44.92.67l-1-.15Z"/>
  </g>
  <path class="cls-5" d="m520.6,421.13c-.19,5.64-1.06,11.62-2.88,18.29-2.47,9.07-5.31,19.5-14.29,28.92-19.13,20.06-49.5,16.37-77.71,16.03-13.61-.16-82.46-.98-101.88-38.9-.24-.45-.45-.9-.66-1.35-5.47-12.02-4.1-23.35-1.39-45.99.38-3.16.84-6.25,1.35-9.24,47.17.02,103.96,4.57,167.56,22.83,9.96,2.86,19.96,6.02,29.89,9.42Z"/>
  <g>
    <path class="cls-9" d="m193.84,431.45c-.06-5.21,5.81-9.75,13.27-10.05,7.39-.3,14.42,3.64,15.5,9.08,1.14,5.71-4.72,10.76-12.11,11.43-8.4.76-16.59-4.36-16.66-10.46Z"/>
    <path class="cls-9" d="m257.61,426.74c-.06-5.21,5.81-9.75,13.27-10.05,7.39-.3,14.42,3.64,15.5,9.08,1.14,5.71-4.72,10.76-12.11,11.43-8.4.76-16.59-4.36-16.66-10.46Z"/>
    <path class="cls-9" d="m594.62,500.25c1.71-4.93,8.78-7.2,15.9-4.94,7.05,2.23,12.33,8.32,11.49,13.81-.87,5.75-8.1,8.52-15.27,6.64-8.16-2.14-14.12-9.73-12.12-15.5Z"/>
    <path class="cls-9" d="m531.9,464.18c1.71-4.93,8.78-7.2,15.9-4.94,7.05,2.23,12.33,8.32,11.49,13.81-.87,5.75-8.1,8.52-15.27,6.64-8.16-2.14-14.12-9.73-12.12-15.5Z"/>
  </g>
  <path class="cls-12" d="m680.56,522.64c-15.04,8.88-48.82,16.63-82.44,19.49-31.02,2.64-54.66-.15-68.21-1.83,0,0-217.96-26.25-321.44-74.47-8.85-4.12-28.94-13.49-39.98-34.49-3.93-7.48-5.72-14.53-6.59-19.57,0,.01,0,.03.01.04,6.74,15.86,76.04,39.55,164.47,61.15,47.07,11.49,99.56,22.39,150.93,31.18,15.08,2.59,30.05,4.98,44.77,7.16,66.44,9.86,138.15,20.48,158.49,11.35Z"/>
  <path class="cls-5" d="m682.8,517.56c-5.45,17.22-88.08,4.96-163.86-6.27-14.72-2.18-29.69-4.58-44.77-7.16-51.36-8.79-103.85-19.68-150.93-31.18-88.43-21.6-157.73-45.29-164.47-61.15-.47-1.11-.64-2.18-.48-3.21,1.65-10.66,37.18-12.82,97.22-16.46,15.18-.92,32.33-1.91,51.26-2.29,4.96-.1,10.05-.15,15.26-.15h.34c-.51,2.99-.97,6.08-1.35,9.24-2.71,22.64-4.07,33.97,1.39,45.99.2.45.42.9.66,1.35,19.42,37.91,88.26,38.73,101.88,38.9,28.21.34,58.58,4.03,77.71-16.03,8.98-9.42,11.82-19.85,14.29-28.92,1.81-6.67,2.68-12.65,2.88-18.29.09.02.18.06.28.09,2.54.87,5.08,1.75,7.61,2.65,84.13,29.89,160.67,75.25,155.1,92.9Z"/>
  <path class="cls-5" d="m158.29,408.58c.62,4.94,2.21,13.52,7.06,22.74,11.04,21.01,31.13,30.37,39.98,34.5,103.48,48.23,321.44,74.48,321.44,74.48,13.55,1.67,37.18,4.46,68.21,1.83,37.65-3.2,67.68-12.81,87.02-20.38"/>
  <path class="cls-3" d="m323.24,472.94c-2.18-2.28-4.19-4.82-6.05-7.65-7.89-11.98-9.31-23.06-10.98-36.07-1.81-14.13-1.28-27.4.56-39.4,5-32.67,19.65-55.87,22.96-60.95,7.94-12.2,7.5-7.45,19.35-24.04,17.91-25.1,36.99-51.82,38.67-86.76.93-19.29-3.59-37.92-7.84-55.41-2.54-10.45-5.23-19.02-7.31-25.07t-.01-.02s.02.01.03.02c9.2,6.2,22.2,14.09,38.65,21.4,13.91,6.18,26.73,10.37,38.07,13.34h.01c12.94,3.39,23.95,5.18,32.49,6.53,7.35,1.17,15.86,2.49,25.53,3.39,1.69.16,3.41.32,5.17.45h.01c14.13,1.07,30.52,1.17,49.26-1.23,12.87-1.65,24.53-4.17,34.83-7.03h.01c1.46-.41,2.91-.82,4.32-1.24.85-.26,1.7-.51,2.53-.77"/>
  <path class="cls-3" d="m602.56,172.73c-.4.4.26-1.42-.12-1.03-.5.51-1,1.01-1.48,1.51-11.79,12.13-20.95,23.15-27.67,31.79-22.93,29.48-35.07,54.03-43.38,71.09-10.05,20.59-11.41,27.41-12.03,31.88-2.56,18.6,3.4,28.62,7.84,48.61,6.51,29.26,3.9,53.6,1.97,68.08-.13,1.05-.27,2.06-.4,3-3.51,25.81-6.46,47.38-23.52,62.72-8.71,7.83-18.07,11.31-29.61,13.74"/>
  <path class="cls-3" d="m603.49,172.44c-.34-.26-.69-.5-1.04-.75-5.38-3.82-12.24-8.22-20.44-12.52-8.15-4.26-33.19-16.55-89.9-21.6-25.73-2.29-48.63-1.76-94.42-.7-9.07.2-17.48.46-25.07.72h-.02"/>
  <path class="cls-9" d="m336.42,420.8c1.71-4.93,8.78-7.2,15.9-4.94,7.05,2.23,12.33,8.32,11.49,13.81-.87,5.75-8.1,8.52-15.27,6.64-8.16-2.14-14.12-9.73-12.12-15.5Z"/>
  <path class="cls-6" d="m666.44,528.89c-.41-.39-.82-.76-1.23-1.12-.71-.64-1.41-1.27-2.12-1.89-.07-.07-.15-.13-.23-.2l-2.58-2.27c-30.28-26.39-58.99-44-80.72-55.5-5.51-2.91-25.12-13.12-54.67-23.8-2.5-.9-5.08-1.81-7.72-2.71-.05-.02-.1-.04-.15-.05l-.37-.12c-.67-.24-1.34-.46-2.03-.7-10.47-3.53-21.98-7.03-34.37-10.25-26.45-6.87-48.19-10.19-73.11-12.61-13.77-1.33-28.5-2.37-45.54-3.59-12.28-.88-26.07-1.83-41.34-2.48l-.71-.03c-.59-.02-1.2-.05-1.8-.07-4.11-.16-8.33-.3-12.66-.41-31.71-.79-69.13.1-112.32,5.6-8.19,1.04-15.89,2.16-23.01,3.29-.3.05-.58.1-.88.14l-1.66.28"/>
  <path class="cls-6" d="m193.83,427.14c23.96-1.58,49.45-2.39,76.31-2.09,48.85.54,93.53,4.63,133.28,10.45"/>
  <path class="cls-6" d="m366.32,463.73c31.77.88,48.43,1.45,70.04,7.32,24.07,6.54,53.58,19.45,52.27,24.57-2.19,8.56-89.97-7.73-110.28-11.5-20.29-3.77-69.54-12.91-68.99-17.77.47-4.18,37.49-3.15,56.97-2.61Z"/>
  <g>
    <path class="cls-4" d="m459.29,204.4l-12.65,1.93-.15-6.38-.25-9.74c1.91.64,4.22,1.18,6.84,1.37,2.14.16,4.09.05,5.79-.18l.2,6.47.21,6.53Z"/>
    <polygon class="cls-2" points="445.49 199.22 438.08 204.93 442.08 210.65 432.02 218.83 433.66 224.6 427.62 227.35 432.92 238.8 432.42 242.92 431.33 249.06 435.89 261.12 427.81 272.33 433.2 283.09 430.55 285.56 432.1 292.02 428.79 294.4 430.22 304.68 433.59 309.98 430.26 323.51 431.34 339.32 429.99 350.31 431.71 358.18 428.11 360.18 429.73 374.32 426.6 386.14 425.68 410.07 417.82 413.98 420.44 428.24 428.11 434.06 433.55 460.87 442.56 461.27 455.71 477.17 479.83 466.54 490.7 451.84 497.46 440.47 493.19 426.01 491.1 399.27 490.48 363.3 495.34 353.79 487.74 347.28 491.15 338.64 487.02 317.57 482.84 302.42 482.69 279.06 476.89 263.36 477.58 249.51 471.56 243.89 474.07 231.65 471.23 227.47 471.58 219.15 472.7 215.45 459.84 197.15 452.26 204.23 445.49 199.22"/>
    <polyline class="cls-7" points="452.86 239.76 465.33 250.96 468.21 250.01"/>
    <polyline class="cls-7" points="441.05 442.1 444.25 452.94 459.79 454.85 460.03 461.15"/>
    <polyline class="cls-7" points="450.79 349.02 444.5 359.23 449.06 371.29 441.16 382.34 447.08 399.8 462.1 392.23"/>
    <polyline class="cls-7" points="473.8 399.41 481.26 420.72 473.12 429.65 470.61 441.89 459.7 440.55"/>
    <polyline class="cls-7" points="463.67 297.28 455.9 307.31 450.02 301.88 441.34 302.91 437.14 296.12"/>
    <polyline class="cls-7" points="448.38 315.27 457.41 323.7 473.78 325.71 469.53 339.82 474.16 351.37"/>
    <path class="cls-4" d="m458.87,191.4c-1.7.24-3.65.35-5.79.18-2.62-.19-4.92-.73-6.84-1.37l-3.47-141.17,11.49-.69,4.61,143.04Z"/>
  </g>
  <g>
    <path class="cls-11" d="m549,202.91c-.14,1.4-.93,2.67-2.21,3.83-2.73,6.2-6.29,14.48-9.91,22.65-12.29,27.82-18.5,41.94-21.45,51.93-6.51,21.99-5.99,39.93-5.54,55.74,1.19,41.09,12.72,59.34,11.86,83.81-9.87-3.4-19.8-6.56-29.68-9.42-63.15-18.26-119.56-22.81-166.4-22.83v.04l-.31-.15c4.87-28.76,15.53-49.45,19.47-56.67,13.89-25.4,20.56-22.97,49.14-65.86,11.65-17.49,18.21-29.43,20.07-45.65,1.69-14.79-1.22-27.25-3.81-35.19h.01c2.86-1.83,7.62-4.67,13.83-7.32,8.85-3.78,17.68-5.93,26.24-6.92.4-.05.79-.09,1.19-.13h.01c12.85,3.39,23.78,5.18,32.25,6.53,8.59,1.37,18.74,2.95,30.49,3.84h.01c.53.21,1.06.42,1.59.62,1.48.58,2.85,1.14,4.07,1.64,10.96,4.44,27.98,11.33,29.04,18.38h0c.06.38.07.76.03,1.13Z"/>
    <path class="cls-11" d="m521.9,420.87c-.19,5.64-1.06,11.62-2.86,18.29-2.46,9.07-5.29,19.5-14.23,28.92-19.05,20.06-49.3,16.37-77.4,16.03-13.56-.16-82.13-.98-101.47-38.9-.23-.45-.45-.9-.65-1.35-5.44-12.02-4.09-23.35-1.39-45.99.38-3.16.84-6.25,1.35-9.24,46.98.02,103.55,4.57,166.89,22.83,9.92,2.86,19.88,6.02,29.77,9.42Z"/>
  </g>
  <path class="cls-4" d="m458.87,191.4c-1.7.24-3.65.35-5.79.18-2.62-.19-4.92-.73-6.84-1.37l-3.47-141.17,11.49-.69,4.61,143.04Z"/>
  <path class="cls-5" d="m547.16,205.87c-2.77,6.06-6.97,14.11-11.85,25.09-12.37,27.82-18.63,41.94-21.6,51.93-6.56,21.99-6.04,39.93-5.58,55.74,1.18,40.85,12.67,59.13,11.96,83.38-.17,5.77-1.03,11.88-2.9,18.72-2.47,9.07-5.3,19.5-14.29,28.92-19.12,20.06-49.49,16.37-77.7,16.03-13.69-.16-83.1-.99-102.14-39.42"/>
  <path class="cls-5" d="m407.78,186.71c2.61,7.94,5.53,20.4,3.83,35.19-1.86,16.22-8.48,28.16-20.21,45.65-28.77,42.89-35.51,40.45-49.48,65.86-3.96,7.2-14.62,27.72-19.56,56.27"/>
  <path class="cls-5" d="m295.83,496.89c3.31,5.73,7.97,11.73,14.57,16.75,9.02,6.86,17.96,9.07,22.73,10.19,100.7,23.75,114.71,23.17,130.15,19.6,6.58-1.53,15.24-4.02,25.24-8.37"/>
  <path class="cls-8" d="m422.76,190.63c4.34,1.98,10.39,4.55,17.77,7.06,20.86,7.09,37.66,8.74,42.34,9.15,9.35.81,21.89,1.11,36.59-.78"/>
  <path class="cls-8" d="m525.47,202.91c2.79-.61,5.58-1.22,8.36-1.83"/>
  <path class="cls-8" d="m465.88,186.97c4.28-.55,9.83-.82,16.2,0,9.94,1.28,17.62,4.67,22.47,7.32"/>
  <path class="cls-8" d="m441.32,190.37c5.35,1.82,13.25,4.25,23,6.27,24.96,5.19,55.11,6.32,56.19,1.31.51-2.36-5.59-5.48-11.24-8.36-16.34-8.34-32.02-8.88-41.29-8.36"/>
  <path class="cls-5" d="m547.51,204.48c-.96,9.64-33.46,13.31-39.03,13.94-12.36,1.39-41.88,4.32-73.52-12.2-12.4-6.47-21.39-13.98-27.18-19.51,2.88-1.83,7.68-4.67,13.93-7.32,9.32-3.95,18.62-6.12,27.62-7.05h.01c12.94,3.39,23.95,5.18,32.49,6.53,8.64,1.37,18.86,2.95,30.7,3.84h.01c2.13.82,4.03,1.59,5.7,2.26,11.63,4.68,30.02,12.07,29.27,19.51Z"/>
  <g>
    <path class="cls-10" d="m486.07,537.6c-8.31,3.97-15.51,6.25-20.98,7.65-12.83,3.26-24.48,3.79-108.19-17.9-3.97-1.03-11.4-3.05-18.9-9.31-5.48-4.58-9.36-10.06-12.11-15.29,57.77,17,122.57,28.78,160.18,34.85Z"/>
    <path class="cls-10" d="m527.7,424.66c-.13,1.05-.27,2.06-.4,3-3.51,25.81-6.46,47.38-23.52,62.72-8.71,7.83-18.07,11.31-29.61,13.74l-127.19-26.27,171.09-171.1c-.06.44-.12.84-.17,1.23-2.56,18.6,3.4,28.62,7.84,48.61,6.51,29.26,3.9,53.6,1.97,68.08Z"/>
    <path class="cls-10" d="m599.35,172.29c-.04.21-.07.41-.03.47-.5.15-.99.3-1.49.45-.4.42-.81.83-1.19,1.24h-.01c-10.3,2.87-21.97,5.38-34.83,7.03-18.74,2.4-35.14,2.3-49.26,1.23h-.01c-1.76-.13-3.48-.29-5.17-.45l-23.39-45.1c1.66.13,3.33.27,5.01.42,56.71,5.05,81.75,17.34,89.9,21.6,8.2,4.3,15.06,8.7,20.44,12.52.1-.1.12-.04.12.08.31.23.62.44.92.67l-1-.15Z"/>
    <path class="cls-10" d="m684.89,515.2c-5.45,17.22-88.08,4.96-163.86-6.27-14.72-2.18-29.69-4.58-44.77-7.16-21.62-3.7-43.44-7.77-64.98-12.11l-7.56-8.07c10.73,1.05,19.36,1.16,23.32,1.21,28.21.34,58.58,4.03,77.71-16.03,2.34-2.47,4.27-5,5.89-7.55l107.62,52.07,64.68-4.51c2,3.24,2.7,6.08,1.97,8.43Z"/>
    <path class="cls-10" d="m646.12,531.84c-15.06,3.68-32.87,6.56-50.62,8.07-31.02,2.64-54.66-.15-68.21-1.83,0,0-114.68-13.82-217.17-39.81,77.83,11.03,239.91,34.32,239.91,34.32l96.08-.75Z"/>
  </g>
  <g>
    <path class="cls-1" d="m366.84,313.12c-1.08,0-2.14-.48-2.85-1.4-1.2-1.57-.91-3.82.66-5.02,3.57-2.74,6.95-5.78,10.03-9.03,21.77-22.96,25.25-52.61,27.79-74.26,1.92-16.38,1.92-33.16,0-49.87-.23-1.97,1.18-3.74,3.15-3.97,1.98-.23,3.74,1.18,3.97,3.15,1.99,17.26,1.99,34.59,0,51.53-2.51,21.37-6.3,53.67-29.71,78.36-3.34,3.53-7,6.82-10.87,9.79-.65.5-1.42.74-2.18.74Z"/>
    <path class="cls-1" d="m340.7,355.98c-.39,0-.78-.06-1.16-.19-1.87-.64-2.87-2.68-2.23-4.55,1.35-3.93,3-7.79,4.91-11.47,3.61-6.94,8.2-13.37,13.65-19.11,1.36-1.44,3.63-1.5,5.06-.13,1.44,1.36,1.49,3.63.13,5.06-4.98,5.25-9.19,11.13-12.49,17.48-1.75,3.36-3.26,6.89-4.49,10.49-.51,1.49-1.9,2.42-3.39,2.42Z"/>
    <path class="cls-1" d="m317.47,482.19c-.17,0-.35-.01-.52-.04-34.33-5.91-68.1-15.19-100.37-27.59-13.33-5.12-26.63-10.86-39.51-17.05-1.53-.74-2.17-2.57-1.44-4.1.74-1.53,2.57-2.17,4.1-1.44,12.74,6.12,25.88,11.8,39.05,16.86,31.9,12.25,65.27,21.42,99.21,27.27,1.67.29,2.79,1.88,2.5,3.55-.26,1.5-1.56,2.55-3.02,2.55Z"/>
  </g>
  <path class="cls-3" d="m463.54,190.36c-1.19.37-2.76.79-4.67,1.03"/>
  <path class="cls-3" d="m446.24,190.21c-1.89-.63-3.41-1.35-4.48-1.93"/>
</svg>