<svg width="34" height="35" viewBox="0 0 34 35" fill="none" xmlns="http://www.w3.org/2000/svg">
<path d="M0 6.5C0 3.18629 2.68629 0.5 6 0.5H28C31.3137 0.5 34 3.18629 34 6.5V28.5C34 31.8137 31.3137 34.5 28 34.5H6C2.68629 34.5 0 31.8137 0 28.5V6.5Z" fill="#F7D1B7"/>
<path d="M17.0636 11.3906C19.0876 10.6074 21.1358 9.89019 23.1774 9.15319C24.2048 8.69339 25.4522 9.57119 25.4654 10.669C25.4456 11.164 25.241 11.626 25.0826 12.088C23.5074 16.3516 21.9894 20.635 20.4076 24.8942C20.0336 26.0712 18.2516 26.3572 17.5498 25.3298C16.9448 24.3552 16.4234 23.3256 15.902 22.3026C15.528 21.6998 16.4212 21.0024 16.9316 21.4798C17.6554 22.494 18.1042 23.6754 18.7796 24.7226C18.9996 24.5048 19.2174 24.2738 19.301 23.968C20.698 20.0762 22.1236 16.1954 23.5316 12.308C23.7824 11.6788 24.0112 11.0408 24.1388 10.3742C21.8354 10.922 19.6904 12.011 17.4156 12.66C16.6698 12.8558 16.3332 11.615 17.0636 11.3906Z" fill="black"/>
<path d="M12.6857 12.9636C13.1653 12.7964 13.6339 12.5544 14.1465 12.5324C14.7207 12.6182 14.9143 13.5092 14.3731 13.7688C13.4997 14.1978 12.5493 14.4398 11.6473 14.8028C11.0071 15.069 10.2437 15.1548 9.77728 15.718C11.4779 16.7212 13.2533 17.5858 14.9737 18.5538C16.3729 17.159 17.7677 15.7576 19.1647 14.3584C19.3715 14.1956 19.5695 13.9338 19.8643 13.9712C20.4253 13.9558 20.7619 14.7302 20.3351 15.1108C18.9007 16.6156 17.3959 18.0522 15.9461 19.5394C15.6381 19.8496 15.2025 20.3006 14.7405 19.975C13.1037 19.1302 11.5043 18.2128 9.86748 17.3702C9.45828 17.1414 8.99848 16.9236 8.75868 16.4968C8.27248 15.7114 8.58708 14.5322 9.45388 14.1626C10.5055 13.7006 11.6165 13.386 12.6857 12.9636Z" fill="black"/>
</svg>
