<svg width="28" height="28" viewBox="0 0 28 28" fill="none" xmlns="http://www.w3.org/2000/svg">
<path fill-rule="evenodd" clip-rule="evenodd" d="M6.09932 12.9608C6.45316 13.2915 7.02562 13.2903 7.37794 12.9583L13.095 7.56986V22.4849L13.1033 22.6001C13.1631 23.0142 13.5414 23.3334 13.9992 23.3334C14.4985 23.3334 14.9033 22.9535 14.9033 22.4849V7.57022L20.6217 12.9583L20.7229 13.0407C21.0763 13.2878 21.5787 13.2614 21.9003 12.9608C22.2541 12.6301 22.2553 12.0929 21.903 11.7609L14.6398 4.9165L14.6378 4.91484C14.6076 4.8866 14.5754 4.86035 14.5412 4.83631L14.5383 4.83394C14.1838 4.58623 13.6798 4.61378 13.3585 4.91655L6.09657 11.7609L6.00924 11.8563C5.74738 12.189 5.77764 12.6603 6.09932 12.9608Z" fill="white"/>
</svg>
