<svg width="99" height="106" viewBox="0 0 99 106" fill="none" xmlns="http://www.w3.org/2000/svg">
<g opacity="0.15">
<path d="M72.5255 68.6238L59.9678 62.7681C59.8419 62.7094 59.7444 62.6031 59.6968 62.4726C59.6493 62.3422 59.6555 62.1982 59.7142 62.0725C59.7728 61.9467 59.8791 61.8494 60.0096 61.802C60.1401 61.7545 60.2842 61.7609 60.4101 61.8196L72.493 67.4539L74.902 62.2878L62.8191 56.6534C62.6932 56.5947 62.5957 56.4884 62.5482 56.358C62.5006 56.2275 62.5068 56.0836 62.5655 55.9578C62.6241 55.832 62.7304 55.7347 62.8609 55.6873C62.9914 55.6399 63.1355 55.6462 63.2614 55.7049L75.819 61.5607C75.945 61.6194 76.0424 61.7257 76.09 61.8561C76.1376 61.9866 76.1313 62.1305 76.0727 62.2563L73.2214 68.371C73.1627 68.4967 73.0564 68.594 72.9259 68.6415C72.7954 68.6889 72.6514 68.6825 72.5255 68.6238Z" fill="#474747"/>
<path d="M80.1848 64.7512L75.3765 62.509C75.2506 62.4503 75.1531 62.344 75.1056 62.2136C75.058 62.0831 75.0642 61.9392 75.1229 61.8134C75.1815 61.6876 75.2878 61.5903 75.4183 61.5429C75.5488 61.4955 75.6928 61.5018 75.8188 61.5605L80.6271 63.8027C80.753 63.8614 80.8505 63.9677 80.898 64.0981C80.9456 64.2286 80.9394 64.3726 80.8807 64.4983C80.8221 64.6241 80.7158 64.7214 80.5853 64.7688C80.4548 64.8162 80.3107 64.8099 80.1848 64.7512Z" fill="#474747"/>
</g>
<path d="M47.8428 72.0456L88.6772 38.9989L72.6975 19.289L31.863 52.3357L47.8428 72.0456Z" fill="#77BA85"/>
<path d="M47.6216 72.52C47.5495 72.4867 47.486 72.4374 47.4359 72.3757L31.4562 52.665C31.3688 52.5572 31.3277 52.4191 31.3422 52.2811C31.3566 52.1431 31.4252 52.0165 31.5331 51.9291L72.368 18.8823C72.4758 18.7951 72.614 18.7543 72.7521 18.7688C72.8902 18.7834 73.0169 18.8521 73.1044 18.9599L89.0843 38.6698C89.1276 38.7232 89.16 38.7846 89.1796 38.8505C89.1992 38.9165 89.2056 38.9856 89.1984 39.0539C89.1913 39.1223 89.1707 39.1886 89.1379 39.249C89.1051 39.3094 89.0607 39.3627 89.0073 39.406L48.1728 72.4526C48.0966 72.5144 48.0044 72.5535 47.907 72.5654C47.8095 72.5773 47.7106 72.5616 47.6216 72.52ZM32.5998 52.4135L47.9201 71.3098L87.9407 38.9215L72.6207 20.0254L32.5998 52.4135Z" fill="#474747"/>
<path d="M80.9797 34.1246L75.8714 27.8242C74.6931 28.7778 73.1835 29.2243 71.6747 29.0654C70.1659 28.9066 68.7816 28.1553 67.8263 26.977L35.9587 52.7673L48.2708 67.9536L80.1387 42.1634C79.6657 41.5799 79.3122 40.9092 79.0985 40.1894C78.8847 39.4696 78.8149 38.715 78.893 37.9685C78.9711 37.222 79.1956 36.4984 79.5536 35.8388C79.9117 35.1793 80.3963 34.5968 80.9797 34.1246Z" fill="#F6F9EA"/>
<path d="M48.0499 68.428C47.9778 68.3946 47.9143 68.3452 47.8641 68.2836L35.5516 53.0964C35.4642 52.9885 35.4231 52.8504 35.4376 52.7124C35.452 52.5743 35.5207 52.4477 35.6286 52.3604L67.497 26.5705C67.6049 26.4831 67.7431 26.4423 67.8812 26.4568C68.0194 26.4713 68.1461 26.5401 68.2336 26.648C69.1024 27.7172 70.3599 28.3987 71.7302 28.5431C73.1004 28.6874 74.4715 28.2828 75.5428 27.418C75.6506 27.3307 75.7888 27.2898 75.9269 27.3043C76.065 27.3189 76.1917 27.3876 76.2792 27.4954L81.3876 33.7962C81.4309 33.8496 81.4633 33.911 81.4828 33.977C81.5024 34.0429 81.5088 34.112 81.5017 34.1804C81.4945 34.2487 81.474 34.315 81.4412 34.3754C81.4084 34.4358 81.364 34.4892 81.3105 34.5324C80.2401 35.3987 79.5583 36.6547 79.4151 38.0242C79.2718 39.3936 79.6789 40.7643 80.5467 41.8347C80.6342 41.9426 80.6752 42.0807 80.6608 42.2187C80.6463 42.3568 80.5776 42.4834 80.4698 42.5707L48.6009 68.3604C48.4931 68.4478 48.3549 68.4888 48.2167 68.4744C48.159 68.4681 48.1026 68.4525 48.0499 68.428ZM36.6956 52.845L48.3481 67.2176L79.4186 42.0723C78.5894 40.8527 78.2186 39.3796 78.372 37.9139C78.5253 36.4481 79.1928 35.0844 80.2563 34.0641L75.7806 28.5441C74.5604 29.3699 73.087 29.7381 71.6207 29.5837C70.1543 29.4293 68.7892 28.7622 67.7665 27.7001L36.6956 52.845Z" fill="#474747"/>
<path d="M48.05 68.428C47.9778 68.3946 47.9143 68.3452 47.8641 68.2836L35.5516 53.0964C35.4642 52.9885 35.4231 52.8504 35.4376 52.7124C35.452 52.5743 35.5207 52.4477 35.6286 52.3604L71.9398 22.9748C72.0477 22.8875 72.1859 22.8466 72.324 22.8612C72.4622 22.8757 72.5889 22.9445 72.6764 23.0524L84.9887 38.2387C85.0321 38.2921 85.0644 38.3535 85.084 38.4194C85.1036 38.4854 85.11 38.5545 85.1029 38.6229C85.0957 38.6912 85.0751 38.7575 85.0423 38.8179C85.0095 38.8783 84.9652 38.9316 84.9117 38.9749L48.6009 68.3604C48.4931 68.4478 48.3549 68.4888 48.2168 68.4744C48.159 68.4681 48.1026 68.4525 48.05 68.428ZM36.6956 52.845L48.3481 67.2176L83.8452 38.4904L72.1926 24.1177L36.6956 52.845Z" fill="#474747"/>
<path d="M60.876 48.4928C63.875 49.8913 67.4387 48.5965 68.8356 45.6008C70.2325 42.6051 68.9337 39.0429 65.9347 37.6444C62.9356 36.2459 59.372 37.5407 57.9751 40.5364C56.5781 43.5321 57.8769 47.0943 60.876 48.4928Z" fill="#77BA85"/>
<path d="M60.6462 48.9623C59.3655 48.3624 58.3145 47.3626 57.652 46.1138C56.9895 44.865 56.7514 43.435 56.9738 42.0398C57.1961 40.6447 57.8668 39.3601 58.8845 38.38C59.9022 37.4 61.2117 36.7778 62.6152 36.6073C64.0187 36.4368 65.4399 36.7274 66.6644 37.4351C67.8888 38.1428 68.8498 39.2292 69.4024 40.5303C69.955 41.8313 70.069 43.2764 69.7274 44.6471C69.3857 46.0179 68.6069 47.24 67.5085 48.1288C66.5609 48.9015 65.4133 49.3899 64.1988 49.5374C62.9843 49.6849 61.7525 49.4855 60.6462 48.9623ZM65.7194 38.1182C64.502 37.5475 63.1173 37.4443 61.8295 37.8285C60.5416 38.2126 59.4407 39.0571 58.7368 40.201C58.0329 41.3448 57.7752 42.7079 58.0128 44.0303C58.2505 45.3527 58.9668 46.5418 60.0253 47.3709C61.0838 48.1999 62.4103 48.6109 63.7518 48.5254C65.0933 48.4398 66.356 47.8638 67.2989 46.9072C68.2418 45.9505 68.7991 44.6802 68.8644 43.3385C68.9297 41.9968 68.4984 40.6776 67.6528 39.6326C67.1314 38.9881 66.4703 38.4702 65.7194 38.1182Z" fill="#474747"/>
<path d="M46.4487 73.9147L97.3718 60.9189L91.0733 36.3512L40.1502 49.3469L46.4487 73.9147Z" fill="#97CD78"/>
<path d="M46.2282 74.3881C46.1579 74.3553 46.0957 74.3074 46.0461 74.2476C45.9966 74.1879 45.9609 74.118 45.9417 74.0428L39.6438 49.4744C39.6267 49.4078 39.6229 49.3385 39.6326 49.2704C39.6424 49.2024 39.6654 49.137 39.7005 49.0779C39.7355 49.0187 39.7819 48.9671 39.8369 48.9259C39.8919 48.8847 39.9545 48.8548 40.0211 48.8378L90.9437 35.8434C91.0104 35.8264 91.0797 35.8227 91.1478 35.8325C91.2159 35.8423 91.2814 35.8653 91.3406 35.9004C91.3998 35.9355 91.4515 35.9818 91.4927 36.0369C91.534 36.0919 91.564 36.1545 91.5811 36.2211L97.8793 60.7897C97.8964 60.8562 97.9002 60.9255 97.8905 60.9936C97.8807 61.0616 97.8577 61.127 97.8226 61.1861C97.7876 61.2453 97.7413 61.2969 97.6862 61.3381C97.6312 61.3793 97.5686 61.4092 97.502 61.4262L46.579 74.421C46.4618 74.451 46.3378 74.4394 46.2282 74.3881ZM40.788 49.7237L46.8264 73.2773L96.7349 60.5408L90.6964 36.9871L40.788 49.7237Z" fill="#474747"/>
<path d="M92.4088 53.2811L90.3954 45.4275C88.926 45.8025 87.3671 45.5787 86.0618 44.8053C84.7565 44.0319 83.8116 42.7723 83.4351 41.3036L43.6939 51.4455L48.5465 70.3747L88.2878 60.2329C87.9113 58.7642 88.134 57.2066 88.9068 55.9029C89.6796 54.5992 90.9394 53.6561 92.4088 53.2811Z" fill="#F6F9EA"/>
<path d="M48.3257 70.8492C48.3099 70.8419 48.2944 70.8337 48.2794 70.8247C48.1599 70.7539 48.0734 70.6386 48.0389 70.5042L43.1863 51.575C43.1692 51.5084 43.1654 51.4391 43.1751 51.371C43.1849 51.303 43.2079 51.2376 43.2429 51.1785C43.278 51.1193 43.3243 51.0677 43.3794 51.0265C43.4344 50.9853 43.497 50.9554 43.5636 50.9384L83.3048 40.7965C83.3714 40.7795 83.4408 40.7757 83.5089 40.7855C83.577 40.7953 83.6425 40.8183 83.7017 40.8534C83.7609 40.8885 83.8126 40.9349 83.8539 40.9899C83.8952 41.045 83.9252 41.1076 83.9423 41.1742C84.1116 41.8348 84.4095 42.4558 84.8189 43.0016C85.2284 43.5474 85.7413 44.0073 86.3284 44.3552C86.9156 44.703 87.5654 44.932 88.2409 45.0289C88.9163 45.1259 89.6042 45.089 90.2651 44.9203C90.3318 44.9033 90.4011 44.8996 90.4692 44.9094C90.5373 44.9192 90.6028 44.9422 90.662 44.9773C90.7212 45.0124 90.7729 45.0587 90.8141 45.1138C90.8554 45.1688 90.8854 45.2314 90.9025 45.298L92.9159 53.1516C92.9503 53.2861 92.93 53.4287 92.8592 53.548C92.7885 53.6674 92.6732 53.7537 92.5387 53.7881C91.2047 54.1303 90.0615 54.9874 89.3597 56.1713C88.6578 57.3552 88.4548 58.7693 88.795 60.1035C88.8295 60.2379 88.8091 60.3805 88.7383 60.4999C88.6676 60.6192 88.5523 60.7055 88.4177 60.7399L48.6768 70.8821C48.5596 70.912 48.4355 70.9003 48.3257 70.8492ZM44.3314 51.8234L48.9247 69.7387L87.6719 59.85C87.429 58.3965 87.7077 56.9045 88.4588 55.6374C89.21 54.3703 90.3853 53.4095 91.7772 52.9248L90.0134 46.0437C88.5589 46.2869 87.0648 46.0078 85.7957 45.2559C84.5265 44.5039 83.5643 43.3276 83.0793 41.9353L44.3314 51.8234Z" fill="#474747"/>
<path d="M48.3258 70.8492C48.3099 70.8418 48.2945 70.8337 48.2794 70.8247C48.1599 70.7539 48.0734 70.6386 48.0389 70.5041L43.1863 51.5749C43.1693 51.5083 43.1655 51.4391 43.1752 51.371C43.1849 51.303 43.208 51.2375 43.243 51.1784C43.278 51.1193 43.3244 51.0677 43.3794 51.0265C43.4345 50.9853 43.4971 50.9554 43.5637 50.9384L88.8459 39.3827C88.9126 39.3657 88.9819 39.3619 89.05 39.3717C89.1181 39.3815 89.1837 39.4046 89.2429 39.4396C89.3021 39.4747 89.3538 39.5211 89.3951 39.5761C89.4363 39.6312 89.4664 39.6938 89.4834 39.7604L94.336 58.6896C94.3531 58.7562 94.3569 58.8255 94.3472 58.8935C94.3374 58.9616 94.3144 59.027 94.2793 59.0861C94.2443 59.1452 94.198 59.1968 94.1429 59.238C94.0879 59.2792 94.0253 59.3092 93.9587 59.3262L48.6769 70.8821C48.5596 70.9119 48.4356 70.9003 48.3258 70.8492ZM44.3315 51.8233L48.9248 69.7386L93.1913 58.4414L88.5983 40.5255L44.3315 51.8233Z" fill="#474747"/>
<path d="M70.1675 59.5026C73.1665 60.9011 76.7302 59.6063 78.1271 56.6106C79.524 53.6149 78.2252 50.0527 75.2262 48.6542C72.2271 47.2557 68.6635 48.5505 67.2666 51.5462C65.8697 54.5419 67.1684 58.1041 70.1675 59.5026Z" fill="#97CD78"/>
<path d="M69.957 59.9827C69.7604 59.891 69.5672 59.789 69.3783 59.6771C67.9223 58.8116 66.8618 57.4121 66.4231 55.7772C65.9844 54.1422 66.2022 52.4013 67.03 50.9256C67.8579 49.45 69.2303 48.3565 70.8545 47.8785C72.4786 47.4004 74.226 47.5756 75.7238 48.3667C77.2216 49.1578 78.3513 50.5022 78.8718 52.113C79.3924 53.7239 79.2627 55.4737 78.5103 56.9892C77.7579 58.5047 76.4424 59.6659 74.8445 60.2251C73.2466 60.7844 71.4927 60.6974 69.957 59.9827ZM74.9992 49.1284C74.2049 48.7589 73.3336 48.5856 72.4586 48.6229C71.5836 48.6602 70.7306 48.9071 69.9714 49.3428C69.2122 49.7784 68.5691 50.3901 68.0962 51.1263C67.6233 51.8625 67.3344 52.7017 67.254 53.5731C67.1735 54.4445 67.3038 55.3226 67.6339 56.1336C67.964 56.9445 68.4842 57.6644 69.1507 58.2327C69.8172 58.801 70.6105 59.2011 71.4637 59.3992C72.317 59.5973 73.2052 59.5876 74.0536 59.371C75.146 59.0927 76.1252 58.4835 76.857 57.6268C77.5887 56.7701 78.0371 55.7079 78.1407 54.586C78.2443 53.464 77.998 52.3372 77.4355 51.3601C76.8731 50.383 76.0221 49.6035 74.9992 49.1284Z" fill="#474747"/>
<path opacity="0.32" d="M75.954 48.683C77.2163 45.9803 77.4398 42.9074 76.582 40.0489L40.1506 49.3461L46.4487 73.9146L66.5845 68.776L75.954 48.683Z" fill="#474747" stroke="#474747" stroke-width="4.92" stroke-linecap="round" stroke-linejoin="round"/>
<path d="M69.6678 33.2419L36.4339 17.7447C31.1897 15.2993 24.9583 17.5634 22.5157 22.8017L5.11924 60.1084C2.67659 65.3467 4.94766 71.5756 10.1918 74.021L43.4257 89.5182C48.6699 91.9636 54.9013 89.6995 57.3439 84.4612L74.7403 47.1545C77.183 41.9162 74.9119 35.6873 69.6678 33.2419Z" fill="#F58870"/>
<path d="M69.6678 33.2419L36.4339 17.7447C31.1897 15.2993 24.9583 17.5634 22.5157 22.8017L5.11924 60.1084C2.67659 65.3467 4.94766 71.5756 10.1918 74.021L43.4257 89.5182C48.6699 91.9636 54.9013 89.6995 57.3439 84.4612L74.7403 47.1545C77.183 41.9162 74.9119 35.6873 69.6678 33.2419Z" fill="#F58870"/>
<path d="M44.3189 87.6018L11.085 72.1046C8.56669 70.9303 6.61748 68.8048 5.66618 66.1957C4.71489 63.5866 4.83945 60.7076 6.01245 58.192L5.11911 60.1078C3.94611 62.6233 3.82156 65.5023 4.77285 68.1114C5.72414 70.7205 7.67336 72.846 10.1917 74.0204L43.4256 89.5176C45.9439 90.6919 48.8251 90.8188 51.4352 89.8705C54.0454 88.9221 56.1708 86.9761 57.3438 84.4606L58.2371 82.5448C57.0641 85.0603 54.9388 87.0063 52.3286 87.9547C49.7184 88.9031 46.8373 88.7761 44.3189 87.6018Z" fill="#DD7868"/>
<path d="M69.6678 33.2419L36.4339 17.7447C31.1897 15.2993 25.119 17.2188 22.8746 22.0318L21.9265 24.0652C24.1708 19.2522 30.2415 17.3328 35.4856 19.7782L68.7195 35.2755C73.9637 37.7208 76.3955 43.6049 74.1511 48.418L75.0993 46.3846C77.3437 41.5716 74.9119 35.6873 69.6678 33.2419Z" fill="#FFA399"/>
<path opacity="0.3" d="M50.0437 24.0912L61.4382 29.4045L51.9677 49.714C51.6158 50.4687 50.9781 51.0525 50.1951 51.337C49.412 51.6215 48.5477 51.5834 47.7922 51.2311L39.2463 47.2461C38.4908 46.8938 37.9061 46.2562 37.6207 45.4735C37.3353 44.6907 37.3727 43.827 37.7246 43.0724L45.8682 25.6082C46.2201 24.8536 46.8577 24.2698 47.6408 23.9853C48.4238 23.7008 49.2882 23.7389 50.0437 24.0912Z" fill="#474747" stroke="#474747" stroke-width="4.92" stroke-linecap="round" stroke-linejoin="round"/>
<path d="M43.2041 89.9925L9.97016 74.4952C7.32824 73.2596 5.28377 71.0277 4.28526 68.2891C3.28675 65.5505 3.41575 62.5289 4.64395 59.8871L22.0404 22.5804C23.2746 19.9414 25.5064 17.9002 28.2461 16.9048C30.9858 15.9094 34.0098 16.0409 36.6545 17.2705L69.8884 32.7677C72.5303 34.0033 74.5748 36.2352 75.5734 38.9739C76.5719 41.7125 76.4428 44.7341 75.2146 47.3759L57.8182 84.6826C56.5839 87.3216 54.3522 89.3627 51.6124 90.3581C48.8727 91.3536 45.8488 91.2221 43.2041 89.9925ZM36.2122 18.219C33.8194 17.1065 31.0834 16.9874 28.6046 17.8881C26.1258 18.7887 24.1066 20.6355 22.9899 23.0231L5.59349 60.3299C4.48225 62.72 4.36554 65.4539 5.26895 67.9317C6.17236 70.4095 8.02213 72.4288 10.4124 73.5468L43.6463 89.044C46.0392 90.1565 48.7751 90.2755 51.2539 89.3748C53.7327 88.4742 55.7519 86.6275 56.8686 84.2399L74.265 46.9331C75.3763 44.543 75.4931 41.8091 74.5897 39.3313C73.6862 36.8535 71.8364 34.8341 69.4461 33.7162L36.2122 18.219Z" fill="#474747"/>
<g style="mix-blend-mode:multiply" opacity="0.46">
<path d="M44.0057 85.6467L41.7967 84.6166C41.7128 84.5775 41.6478 84.5066 41.6161 84.4197C41.5844 84.3327 41.5885 84.2367 41.6276 84.1529C41.6667 84.069 41.7376 84.0042 41.8246 83.9725C41.9116 83.9409 42.0076 83.9452 42.0916 83.9843L44.3005 85.0144C44.3845 85.0535 44.4494 85.1244 44.4812 85.2113C44.5129 85.2983 44.5087 85.3943 44.4696 85.4781C44.4305 85.562 44.3597 85.6268 44.2727 85.6584C44.1857 85.6901 44.0896 85.6858 44.0057 85.6467ZM40.2189 83.8809L38.01 82.8508C37.926 82.8117 37.861 82.7408 37.8293 82.6539C37.7976 82.5669 37.8018 82.4709 37.8409 82.3871C37.88 82.3032 37.9508 82.2384 38.0378 82.2067C38.1248 82.1751 38.2209 82.1794 38.3048 82.2185L40.5138 83.2486C40.5977 83.2877 40.6627 83.3586 40.6944 83.4455C40.7261 83.5325 40.7219 83.6285 40.6828 83.7123C40.6437 83.7962 40.5729 83.861 40.4859 83.8926C40.3989 83.9243 40.3028 83.92 40.2189 83.8809ZM36.4321 82.1151L34.2234 81.0851C34.1394 81.046 34.0744 80.9751 34.0427 80.8881C34.011 80.8012 34.0152 80.7052 34.0543 80.6214C34.0934 80.5375 34.1642 80.4726 34.2512 80.441C34.3382 80.4094 34.4343 80.4137 34.5182 80.4528L36.7267 81.4826C36.8106 81.5218 36.8756 81.5926 36.9073 81.6796C36.939 81.7666 36.9349 81.8625 36.8958 81.9464C36.8567 82.0302 36.7858 82.0951 36.6988 82.1267C36.6118 82.1583 36.5158 82.1541 36.4318 82.1149L36.4321 82.1151ZM32.6455 80.3494L30.4366 79.3193C30.3526 79.2802 30.2877 79.2093 30.256 79.1223C30.2243 79.0354 30.2284 78.9394 30.2675 78.8556C30.3066 78.7717 30.3775 78.7068 30.4645 78.6752C30.5515 78.6436 30.6475 78.6479 30.7314 78.687L32.9404 79.717C33.0243 79.7562 33.0893 79.827 33.121 79.914C33.1527 80.001 33.1486 80.0969 33.1095 80.1808C33.0704 80.2646 32.9995 80.3295 32.9125 80.3611C32.8255 80.3927 32.7295 80.3885 32.6455 80.3494ZM28.8589 78.5836L26.65 77.5536C26.566 77.5144 26.5011 77.4436 26.4694 77.3566C26.4377 77.2697 26.4418 77.1737 26.4809 77.0898C26.52 77.006 26.5908 76.9411 26.6779 76.9095C26.7649 76.8779 26.8609 76.8821 26.9448 76.9213L29.1538 77.9513C29.2377 77.9905 29.3027 78.0613 29.3344 78.1483C29.3661 78.2353 29.362 78.3312 29.3229 78.4151C29.2838 78.4989 29.2129 78.5638 29.1259 78.5954C29.0389 78.627 28.9429 78.6228 28.8589 78.5836ZM25.0722 76.8178L22.8632 75.7878C22.7793 75.7487 22.7143 75.6778 22.6826 75.5908C22.6509 75.5039 22.655 75.4079 22.6941 75.324C22.7332 75.2402 22.8041 75.1753 22.8911 75.1437C22.9781 75.1121 23.0741 75.1163 23.1581 75.1555L25.367 76.1855C25.451 76.2247 25.5159 76.2955 25.5477 76.3825C25.5794 76.4695 25.5752 76.5654 25.5361 76.6493C25.497 76.7331 25.4262 76.798 25.3392 76.8296C25.2522 76.8612 25.1561 76.857 25.0722 76.8178ZM21.2856 75.0521L19.0766 74.0221C18.9927 73.9829 18.9277 73.9121 18.896 73.8251C18.8643 73.7381 18.8684 73.6422 18.9075 73.5583C18.9466 73.4745 19.0175 73.4096 19.1045 73.378C19.1915 73.3464 19.2875 73.3506 19.3715 73.3898L21.5804 74.4198C21.6644 74.4589 21.7293 74.5298 21.761 74.6168C21.7928 74.7037 21.7886 74.7997 21.7495 74.8836C21.7104 74.9674 21.6396 75.0323 21.5526 75.0639C21.4655 75.0955 21.3695 75.0913 21.2856 75.0521ZM17.4988 73.2863L15.2898 72.2563C15.2059 72.2171 15.1409 72.1463 15.1092 72.0593C15.0775 71.9723 15.0817 71.8764 15.1208 71.7925C15.1599 71.7087 15.2307 71.6438 15.3177 71.6122C15.4047 71.5806 15.5008 71.5848 15.5847 71.624L17.7937 72.654C17.8776 72.6931 17.9426 72.764 17.9743 72.851C18.006 72.9379 18.0018 73.0339 17.9627 73.1178C17.9236 73.2016 17.8528 73.2665 17.7658 73.2981C17.6788 73.3297 17.5827 73.3255 17.4988 73.2863ZM13.7122 71.5206L11.778 70.6187C11.6811 70.5735 11.5858 70.5264 11.4919 70.4773C11.4512 70.4561 11.4151 70.427 11.3857 70.3918C11.3562 70.3565 11.334 70.3159 11.3203 70.2721C11.3066 70.2283 11.3016 70.1823 11.3057 70.1366C11.3098 70.0909 11.3228 70.0465 11.3441 70.0058C11.3654 69.9652 11.3945 69.9292 11.4297 69.8998C11.4649 69.8704 11.5056 69.8483 11.5494 69.8346C11.5932 69.8209 11.6393 69.816 11.685 69.8201C11.7307 69.8242 11.7752 69.8373 11.8158 69.8586C11.9 69.9029 11.9859 69.945 12.0731 69.9857L14.0073 70.8876C14.0913 70.9268 14.1563 70.9976 14.188 71.0846C14.2197 71.1716 14.2155 71.2675 14.1764 71.3514C14.1373 71.4352 14.0665 71.5001 13.9795 71.5317C13.8925 71.5633 13.7964 71.5591 13.7125 71.52L13.7122 71.5206ZM45.5947 86.3551C45.5135 86.3171 45.45 86.2493 45.4174 86.1657C45.3848 86.0822 45.3856 85.9894 45.4196 85.9065C45.4537 85.8236 45.5183 85.757 45.6002 85.7205C45.6821 85.6841 45.7749 85.6805 45.8594 85.7105C46.5858 85.9703 47.3539 86.0931 48.1249 86.0727C48.2165 86.0718 48.3048 86.107 48.3707 86.1705C48.4367 86.234 48.4751 86.3209 48.4776 86.4124C48.4801 86.5039 48.4465 86.5927 48.3841 86.6596C48.3217 86.7265 48.2354 86.7662 48.1439 86.7702C47.2868 86.7932 46.4327 86.6567 45.6252 86.3678C45.6151 86.3635 45.6047 86.3592 45.5949 86.3546L45.5947 86.3551ZM10.0866 69.4876C10.0542 69.4721 10.0244 69.4517 9.99826 69.4271C9.36677 68.847 8.84831 68.155 8.46917 67.3862C8.44751 67.345 8.43432 67.2999 8.43037 67.2535C8.42642 67.2071 8.43179 67.1605 8.44616 67.1162C8.46053 67.072 8.48362 67.0311 8.51406 66.9959C8.5445 66.9607 8.58168 66.9319 8.62341 66.9113C8.66514 66.8907 8.71059 66.8787 8.75707 66.8759C8.80355 66.8731 8.85012 66.8796 8.89404 66.8951C8.93797 66.9106 8.97837 66.9347 9.01286 66.966C9.04735 66.9972 9.07524 67.0351 9.09487 67.0773C9.43597 67.7692 9.90233 68.392 10.4704 68.9142C10.5318 68.9706 10.5711 69.0471 10.5811 69.1299C10.591 69.2126 10.571 69.2962 10.5246 69.3654C10.4783 69.4347 10.4086 69.485 10.3282 69.5074C10.2479 69.5297 10.1622 69.5225 10.0866 69.4872L10.0866 69.4876ZM49.7008 86.466C49.6364 86.4361 49.5826 86.3873 49.5466 86.3262C49.5106 86.265 49.4941 86.1943 49.4993 86.1236C49.5045 86.0528 49.5312 85.9854 49.5758 85.9302C49.6203 85.8751 49.6807 85.8348 49.7488 85.8148C50.4889 85.5964 51.1823 85.2438 51.7945 84.7745C51.8307 84.7455 51.8724 84.7239 51.9171 84.7112C51.9618 84.6985 52.0086 84.6948 52.0548 84.7004C52.1009 84.706 52.1455 84.7208 52.1859 84.7438C52.2263 84.7668 52.2616 84.7977 52.29 84.8345C52.3183 84.8714 52.3389 84.9135 52.3507 84.9585C52.3625 85.0034 52.3652 85.0503 52.3587 85.0962C52.3521 85.1422 52.3365 85.1864 52.3126 85.2263C52.2887 85.2661 52.2571 85.3008 52.2197 85.3282C51.54 85.8496 50.77 86.2414 49.9481 86.4839C49.8663 86.5084 49.7783 86.502 49.7008 86.466ZM8.07428 65.9068C8.02458 65.8837 7.981 65.8493 7.94708 65.8063C7.91316 65.7632 7.88984 65.7128 7.87901 65.6591C7.7093 64.8192 7.69685 63.9551 7.8423 63.1109C7.85006 63.0657 7.86665 63.0225 7.89112 62.9838C7.91559 62.9451 7.94745 62.9115 7.9849 62.8851C8.02234 62.8587 8.06464 62.8399 8.10937 62.8298C8.15409 62.8197 8.20038 62.8186 8.24558 62.8264C8.29078 62.8342 8.33399 62.8508 8.37278 62.8753C8.41157 62.8997 8.44516 62.9316 8.47163 62.9691C8.4981 63.0065 8.51694 63.0488 8.52706 63.0935C8.53719 63.1382 8.5384 63.1844 8.53064 63.2296C8.39972 63.9891 8.41093 64.7664 8.56369 65.5221C8.5764 65.5853 8.57133 65.6508 8.54903 65.7113C8.52674 65.7718 8.4881 65.825 8.4374 65.8648C8.3867 65.9047 8.32593 65.9297 8.26183 65.9371C8.19773 65.9445 8.13281 65.9341 8.07428 65.9068ZM53.0848 84.141C53.0374 84.119 52.9956 84.0866 52.9624 84.0463C52.9292 84.0059 52.9055 83.9587 52.893 83.908C52.8805 83.8573 52.8795 83.8045 52.8901 83.7534C52.9008 83.7023 52.9228 83.6542 52.9545 83.6128C53.2303 83.2513 53.4662 82.8612 53.6582 82.449L54.0791 81.5464C54.1182 81.4626 54.189 81.3977 54.276 81.3661C54.363 81.3345 54.4591 81.3387 54.543 81.3778C54.627 81.417 54.6919 81.4878 54.7237 81.5748C54.7554 81.6618 54.7512 81.7577 54.7121 81.8416L54.2912 82.7442C54.078 83.202 53.8159 83.6353 53.5094 84.0367C53.4611 84.0998 53.3926 84.1446 53.3154 84.1635C53.2381 84.1825 53.1566 84.1745 53.0845 84.1409L53.0848 84.141ZM8.55445 61.8312C8.4705 61.792 8.40553 61.7212 8.37382 61.6342C8.34211 61.5472 8.34626 61.4513 8.38536 61.3674L9.42553 59.1368C9.46463 59.0529 9.53548 58.988 9.62248 58.9564C9.70949 58.9248 9.80553 58.9291 9.88947 58.9682C9.97342 59.0073 10.0384 59.0782 10.0701 59.1652C10.1018 59.2521 10.0977 59.3481 10.0586 59.4319L9.01839 61.6626C8.97929 61.7464 8.90844 61.8113 8.82143 61.8429C8.73443 61.8745 8.63839 61.8703 8.55445 61.8312ZM54.9829 80.4342C54.8989 80.395 54.834 80.3242 54.8022 80.2372C54.7705 80.1503 54.7747 80.0543 54.8138 79.9704L55.8427 77.764C55.8818 77.6801 55.9526 77.6153 56.0396 77.5836C56.1266 77.552 56.2227 77.5563 56.3066 77.5954C56.3906 77.6345 56.4555 77.7054 56.4872 77.7924C56.519 77.8793 56.5148 77.9753 56.4757 78.0592L55.4468 80.2656C55.4274 80.3072 55.4001 80.3445 55.3663 80.3754C55.3325 80.4063 55.2929 80.4303 55.2498 80.446C55.2067 80.4616 55.1609 80.4686 55.1151 80.4666C55.0693 80.4646 55.0244 80.4536 54.9829 80.4342ZM10.3295 58.0246C10.2455 57.9855 10.1806 57.9146 10.1488 57.8277C10.1171 57.7407 10.1213 57.6447 10.1604 57.5609L11.1893 55.3544C11.2284 55.2705 11.2992 55.2057 11.3862 55.1741C11.4732 55.1424 11.5693 55.1467 11.6532 55.1858C11.7372 55.225 11.8021 55.2958 11.8338 55.3828C11.8656 55.4698 11.8614 55.5657 11.8223 55.6496L10.7934 57.8561C10.774 57.8976 10.7467 57.9349 10.7129 57.9658C10.6791 57.9968 10.6395 58.0208 10.5964 58.0364C10.5533 58.0521 10.5075 58.0591 10.4617 58.057C10.4159 58.055 10.3709 58.044 10.3293 58.0245L10.3295 58.0246ZM56.7467 76.6517C56.6627 76.6125 56.5978 76.5417 56.5661 76.4547C56.5344 76.3677 56.5385 76.2718 56.5776 76.1879L57.6065 73.9814C57.6456 73.8976 57.7164 73.8327 57.8035 73.8011C57.8905 73.7695 57.9865 73.7737 58.0704 73.8129C58.1544 73.852 58.2194 73.9229 58.2511 74.0098C58.2828 74.0968 58.2786 74.1928 58.2395 74.2766L57.2106 76.4831C57.1913 76.5246 57.1639 76.5619 57.1301 76.5929C57.0963 76.6238 57.0567 76.6478 57.0136 76.6635C56.9705 76.6791 56.9247 76.6861 56.8789 76.6841C56.8331 76.682 56.7883 76.6711 56.7467 76.6517ZM12.0933 54.2421C12.0093 54.2029 11.9444 54.1321 11.9127 54.0451C11.8809 53.9582 11.8851 53.8622 11.9242 53.7783L12.953 51.572C12.9921 51.4882 13.063 51.4233 13.15 51.3917C13.237 51.3601 13.333 51.3643 13.417 51.4035C13.5009 51.4426 13.5659 51.5135 13.5976 51.6004C13.6293 51.6874 13.6251 51.7834 13.586 51.8672L12.5572 54.0735C12.5379 54.1151 12.5105 54.1524 12.4767 54.1833C12.4429 54.2143 12.4033 54.2382 12.3602 54.2539C12.3171 54.2695 12.2713 54.2765 12.2255 54.2745C12.1797 54.2725 12.1347 54.2614 12.0931 54.242L12.0933 54.2421ZM58.5105 72.8691C58.4266 72.83 58.3616 72.7592 58.3299 72.6722C58.2982 72.5852 58.3023 72.4892 58.3414 72.4054L59.3706 70.1983C59.4097 70.1144 59.4806 70.0496 59.5676 70.018C59.6546 69.9863 59.7506 69.9906 59.8346 70.0297C59.9185 70.0689 59.9835 70.1397 60.0152 70.2267C60.0469 70.3137 60.0427 70.4096 60.0036 70.4935L58.9747 72.6999C58.9554 72.7416 58.9281 72.779 58.8943 72.81C58.8605 72.841 58.8209 72.8651 58.7777 72.8808C58.7346 72.8965 58.6888 72.9036 58.6429 72.9016C58.597 72.8995 58.5521 72.8886 58.5105 72.8691ZM13.857 50.4597C13.7731 50.4206 13.7081 50.3497 13.6764 50.2628C13.6447 50.1758 13.6488 50.0798 13.688 49.996L14.7168 47.7895C14.7559 47.7056 14.8268 47.6408 14.9138 47.6092C15.0008 47.5776 15.0968 47.5818 15.1808 47.6209C15.2647 47.6601 15.3297 47.7309 15.3614 47.8179C15.3931 47.9049 15.389 48.0008 15.3499 48.0847L14.321 50.2912C14.3016 50.3327 14.2742 50.37 14.2404 50.4009C14.2066 50.4319 14.167 50.4559 14.1239 50.4715C14.0808 50.4872 14.0351 50.4942 13.9893 50.4921C13.9434 50.4901 13.8984 50.4791 13.8569 50.4596L13.857 50.4597ZM60.2743 69.0866C60.1904 69.0475 60.1254 68.9766 60.0937 68.8897C60.062 68.8027 60.0661 68.7067 60.1052 68.6229L61.1341 66.4166C61.1732 66.3327 61.244 66.2678 61.331 66.2362C61.418 66.2046 61.5141 66.2088 61.598 66.248C61.682 66.2871 61.7469 66.358 61.7786 66.445C61.8103 66.5319 61.8062 66.6279 61.7671 66.7117L60.7383 68.9181C60.7189 68.9596 60.6915 68.9969 60.6577 69.0278C60.6239 69.0588 60.5843 69.0828 60.5412 69.0984C60.4981 69.1141 60.4524 69.1211 60.4066 69.119C60.3607 69.117 60.3159 69.106 60.2743 69.0866ZM15.6209 46.6772C15.5369 46.6381 15.4719 46.5672 15.4402 46.4802C15.4085 46.3933 15.4127 46.2973 15.4518 46.2135L16.4807 44.007C16.5198 43.9231 16.5906 43.8583 16.6776 43.8267C16.7646 43.795 16.8607 43.7993 16.9446 43.8384C17.0285 43.8776 17.0935 43.9484 17.1252 44.0354C17.1569 44.1224 17.1528 44.2183 17.1137 44.3022L16.0848 46.5086C16.0654 46.5502 16.0381 46.5875 16.0042 46.6184C15.9704 46.6494 15.9309 46.6733 15.8878 46.689C15.8447 46.7046 15.7989 46.7116 15.7531 46.7096C15.7072 46.7076 15.6623 46.6965 15.6207 46.6771L15.6209 46.6772ZM62.038 65.3044C61.9541 65.2653 61.8891 65.1944 61.8574 65.1075C61.8257 65.0205 61.8298 64.9245 61.8689 64.8407L62.8978 62.6342C62.9369 62.5503 63.0078 62.4855 63.0948 62.4539C63.1818 62.4223 63.2778 62.4265 63.3618 62.4656C63.4457 62.5048 63.5107 62.5756 63.5424 62.6626C63.5741 62.7496 63.5699 62.8455 63.5308 62.9294L62.5019 65.1358C62.4826 65.1774 62.4552 65.2147 62.4214 65.2456C62.3876 65.2766 62.348 65.3006 62.3049 65.3162C62.2618 65.3319 62.216 65.3389 62.1702 65.3368C62.1244 65.3348 62.0796 65.3238 62.038 65.3044ZM17.3846 42.8948C17.3007 42.8557 17.2357 42.7849 17.204 42.6979C17.1723 42.6109 17.1764 42.5149 17.2155 42.4311L18.2446 40.2243C18.2837 40.1404 18.3545 40.0756 18.4415 40.044C18.5285 40.0124 18.6246 40.0166 18.7085 40.0557C18.7924 40.0949 18.8574 40.1657 18.8891 40.2527C18.9208 40.3397 18.9167 40.4356 18.8776 40.5195L17.8485 42.7263C17.8292 42.7678 17.8018 42.8051 17.768 42.8361C17.7342 42.867 17.6946 42.891 17.6515 42.9066C17.6084 42.9223 17.5626 42.9293 17.5168 42.9272C17.471 42.9252 17.426 42.9142 17.3844 42.8948L17.3846 42.8948ZM63.8018 61.5219C63.7179 61.4827 63.6529 61.4119 63.6212 61.3249C63.5895 61.238 63.5936 61.142 63.6327 61.0581L64.6616 58.8517C64.7007 58.7678 64.7716 58.703 64.8586 58.6713C64.9456 58.6397 65.0416 58.644 65.1256 58.6831C65.2095 58.7222 65.2745 58.7931 65.3062 58.8801C65.3379 58.967 65.3338 59.063 65.2947 59.1469L64.2658 61.3533C64.2464 61.3949 64.219 61.4322 64.1852 61.4631C64.1514 61.494 64.1118 61.518 64.0687 61.5337C64.0256 61.5493 63.9799 61.5563 63.934 61.5543C63.8882 61.5523 63.8434 61.5413 63.8018 61.5219ZM19.1484 39.1123C19.0645 39.0732 18.9995 39.0023 18.9678 38.9154C18.9361 38.8284 18.9402 38.7324 18.9793 38.6486L20.0082 36.4423C20.0473 36.3584 20.1181 36.2935 20.2051 36.2619C20.2921 36.2303 20.3882 36.2345 20.4721 36.2737C20.556 36.3128 20.621 36.3837 20.6527 36.4707C20.6844 36.5576 20.6803 36.6536 20.6412 36.7374L19.6124 38.9438C19.593 38.9853 19.5656 39.0226 19.5318 39.0535C19.498 39.0845 19.4584 39.1085 19.4153 39.1241C19.3722 39.1398 19.3265 39.1468 19.2806 39.1447C19.2348 39.1427 19.1898 39.1317 19.1483 39.1122L19.1484 39.1123ZM65.5656 57.7394C65.4817 57.7002 65.4167 57.6294 65.385 57.5424C65.3533 57.4554 65.3575 57.3595 65.3966 57.2756L66.4254 55.0691C66.4645 54.9853 66.5354 54.9204 66.6224 54.8888C66.7094 54.8572 66.8054 54.8614 66.8894 54.9006C66.9733 54.9397 67.0383 55.0106 67.07 55.0975C67.1017 55.1845 67.0976 55.2805 67.0585 55.3643L66.0296 57.5708C66.0102 57.6123 65.9828 57.6496 65.949 57.6806C65.9152 57.7115 65.8756 57.7355 65.8325 57.7512C65.7894 57.7668 65.7437 57.7738 65.6979 57.7718C65.652 57.7697 65.6072 57.7588 65.5656 57.7394ZM20.9122 35.33C20.8282 35.2908 20.7632 35.22 20.7315 35.133C20.6998 35.046 20.704 34.9501 20.7431 34.8662L21.772 32.6597C21.8111 32.5759 21.8819 32.511 21.9689 32.4794C22.0559 32.4478 22.152 32.452 22.2359 32.4912C22.3199 32.5303 22.3848 32.6012 22.4165 32.6881C22.4483 32.7751 22.4441 32.8711 22.405 32.9549L21.3761 35.1614C21.3567 35.2029 21.3294 35.2402 21.2956 35.2712C21.2618 35.3021 21.2222 35.3261 21.1791 35.3417C21.136 35.3574 21.0902 35.3644 21.0444 35.3624C20.9986 35.3603 20.9536 35.3493 20.912 35.3299L20.9122 35.33ZM67.3295 53.9568C67.2455 53.9177 67.1805 53.8469 67.1488 53.7599C67.1171 53.6729 67.1213 53.5769 67.1604 53.4931L68.1892 51.2868C68.2283 51.2029 68.2991 51.1381 68.3861 51.1065C68.4732 51.0748 68.5692 51.0791 68.6531 51.1182C68.7371 51.1574 68.8021 51.2282 68.8338 51.3152C68.8655 51.4022 68.8613 51.4981 68.8222 51.582L67.7934 53.7883C67.774 53.8298 67.7467 53.8671 67.7129 53.8981C67.679 53.929 67.6395 53.953 67.5964 53.9686C67.5533 53.9843 67.5075 53.9913 67.4617 53.9893C67.4159 53.9872 67.371 53.9763 67.3295 53.9568ZM22.676 31.5474C22.592 31.5083 22.5271 31.4374 22.4954 31.3505C22.4636 31.2635 22.4678 31.1675 22.5069 31.0837L23.5358 28.8772C23.5749 28.7934 23.6457 28.7285 23.7327 28.6969C23.8197 28.6653 23.9158 28.6695 23.9997 28.7086C24.0837 28.7478 24.1487 28.8186 24.1804 28.9056C24.2121 28.9926 24.2079 29.0885 24.1688 29.1724L23.1399 31.3789C23.1206 31.4204 23.0932 31.4577 23.0594 31.4886C23.0256 31.5196 22.986 31.5436 22.9429 31.5592C22.8998 31.5749 22.854 31.5819 22.8082 31.5798C22.7624 31.5778 22.7174 31.5668 22.6758 31.5474L22.676 31.5474ZM69.0932 50.1745C69.0093 50.1353 68.9443 50.0645 68.9126 49.9775C68.8809 49.8905 68.885 49.7946 68.9241 49.7107L69.9529 47.5044C69.992 47.4206 70.0629 47.3557 70.1499 47.3241C70.2369 47.2925 70.3329 47.2967 70.4169 47.3358C70.5008 47.375 70.5658 47.4458 70.5975 47.5328C70.6292 47.6198 70.6251 47.7158 70.586 47.7996L69.5569 50.0064C69.5376 50.0479 69.5102 50.0852 69.4764 50.1162C69.4426 50.1471 69.403 50.1711 69.3599 50.1867C69.3168 50.2024 69.271 50.2094 69.2252 50.2074C69.1794 50.2053 69.1344 50.1943 69.0928 50.1749L69.0932 50.1745ZM24.4397 27.7651C24.3558 27.7259 24.2908 27.6551 24.2591 27.5681C24.2274 27.4811 24.2315 27.3852 24.2706 27.3013L25.2995 25.0948C25.3386 25.011 25.4095 24.9461 25.4965 24.9145C25.5835 24.8829 25.6795 24.8871 25.7635 24.9263C25.8474 24.9654 25.9124 25.0363 25.9441 25.1232C25.9758 25.2102 25.9717 25.3062 25.9326 25.39L24.9037 27.5965C24.8843 27.638 24.8569 27.6753 24.8231 27.7063C24.7893 27.7372 24.7497 27.7612 24.7066 27.7769C24.6635 27.7925 24.6178 27.7995 24.5719 27.7975C24.5261 27.7954 24.4811 27.7844 24.4396 27.765L24.4397 27.7651ZM70.857 46.392C70.7731 46.3528 70.7081 46.282 70.6764 46.195C70.6447 46.108 70.6488 46.0121 70.6879 45.9282L70.8294 45.6249C71.1107 45.0231 71.2947 44.3805 71.3744 43.721C71.3788 43.6747 71.3924 43.6297 71.4145 43.5887C71.4365 43.5477 71.4666 43.5116 71.5028 43.4824C71.5391 43.4532 71.5809 43.4316 71.6256 43.4187C71.6704 43.4059 71.7173 43.4022 71.7636 43.4078C71.8098 43.4134 71.8545 43.4281 71.895 43.4512C71.9354 43.4743 71.9709 43.5053 71.9992 43.5423C72.0275 43.5792 72.0482 43.6215 72.0599 43.6666C72.0717 43.7116 72.0743 43.7586 72.0676 43.8046C71.9791 44.5374 71.7748 45.2514 71.4623 45.92L71.3208 46.2233C71.2817 46.3072 71.2109 46.372 71.1239 46.4036C71.0368 46.4353 70.941 46.4311 70.857 46.392ZM26.2838 24.0261C26.2662 24.0179 26.2493 24.0082 26.2333 23.9972C26.157 23.9448 26.1046 23.8643 26.0876 23.7734C26.0706 23.6825 26.0904 23.5886 26.1427 23.5123C26.6273 22.8056 27.2393 22.1952 27.9473 21.7122C28.0238 21.66 28.1179 21.6403 28.209 21.6574C28.3 21.6745 28.3806 21.7271 28.4329 21.8035C28.4852 21.88 28.505 21.974 28.488 22.065C28.4709 22.156 28.4184 22.2364 28.3419 22.2886C27.705 22.7229 27.1545 23.2719 26.7187 23.9075C26.6719 23.9755 26.6026 24.0247 26.5229 24.0464C26.4433 24.0681 26.3585 24.0609 26.2836 24.0261L26.2838 24.0261ZM71.5525 42.3447C71.4999 42.3203 71.4542 42.2832 71.4196 42.2368C71.3849 42.1904 71.3623 42.1361 71.3539 42.0789C71.2436 41.3155 70.9939 40.5787 70.6172 39.9053C70.5935 39.8653 70.5781 39.8209 70.5719 39.7747C70.5656 39.7286 70.5687 39.6818 70.5808 39.6369C70.5929 39.592 70.614 39.5499 70.6426 39.5133C70.6712 39.4766 70.7069 39.4461 70.7476 39.4234C70.7882 39.4008 70.833 39.3865 70.8793 39.3814C70.9255 39.3763 70.9724 39.3805 71.017 39.3937C71.0616 39.4069 71.1032 39.429 71.1392 39.4585C71.1752 39.488 71.2049 39.5244 71.2267 39.5656C71.6453 40.3133 71.9226 41.1315 72.0447 41.9794C72.0539 42.0417 72.0461 42.1053 72.022 42.1635C71.9979 42.2217 71.9585 42.2723 71.908 42.3099C71.8574 42.3475 71.7976 42.3707 71.7349 42.3771C71.6722 42.3835 71.6089 42.3728 71.5518 42.3461L71.5525 42.3447ZM29.5452 21.5324C29.4823 21.5031 29.4295 21.4557 29.3937 21.3963C29.3578 21.337 29.3404 21.2683 29.3438 21.199C29.3471 21.1298 29.371 21.0631 29.4125 21.0075C29.4539 20.952 29.511 20.91 29.5764 20.887C30.3844 20.602 31.2383 20.4686 32.0951 20.4934C32.1861 20.4982 32.2717 20.5383 32.3335 20.6053C32.3954 20.6722 32.4286 20.7607 32.4261 20.8517C32.4236 20.9428 32.3855 21.0292 32.3201 21.0925C32.2547 21.1559 32.167 21.1911 32.0759 21.1907C31.3046 21.1686 30.536 21.2888 29.8087 21.5454C29.7226 21.576 29.6278 21.5717 29.5448 21.5333L29.5452 21.5324ZM69.7375 38.6599C69.6992 38.642 69.6644 38.6173 69.6349 38.587C69.1034 38.0416 68.4768 37.5975 67.786 37.2766L67.7569 37.263C67.6729 37.2239 67.6079 37.1531 67.5762 37.0661C67.5445 36.9791 67.5487 36.8831 67.5878 36.7993C67.6269 36.7154 67.6977 36.6506 67.7847 36.619C67.8717 36.5874 67.9678 36.5916 68.0517 36.6307L68.0808 36.6443C68.8483 37.0009 69.5445 37.4943 70.1351 38.1003C70.1922 38.1588 70.227 38.2354 70.2334 38.3169C70.2398 38.3984 70.2174 38.4794 70.1701 38.546C70.1228 38.6126 70.0536 38.6605 69.9745 38.6813C69.8955 38.7021 69.8116 38.6945 69.7375 38.6599ZM33.6496 21.4357C33.5694 21.3985 33.5064 21.3323 33.4731 21.2504C33.4398 21.1686 33.4388 21.0772 33.4703 20.9947C33.5018 20.9122 33.5635 20.8448 33.6428 20.806C33.7221 20.7672 33.8133 20.7599 33.8979 20.7855C34.2223 20.8835 34.5393 21.0045 34.8465 21.1476L36.1801 21.7695C36.2641 21.8087 36.329 21.8795 36.3608 21.9665C36.3925 22.0535 36.3883 22.1494 36.3492 22.2333C36.3101 22.3171 36.2393 22.382 36.1523 22.4136C36.0653 22.4452 35.9692 22.441 35.8853 22.4018L34.5516 21.78C34.2751 21.651 33.9896 21.542 33.6974 21.4538C33.681 21.449 33.665 21.443 33.6496 21.4357ZM66.1787 36.5273L63.9694 35.4971C63.8854 35.458 63.8205 35.3871 63.7888 35.3001C63.7571 35.2132 63.7612 35.1172 63.8003 35.0334C63.8394 34.9495 63.9103 34.8846 63.9973 34.853C64.0843 34.8214 64.1803 34.8256 64.2642 34.8648L66.4732 35.8948C66.5571 35.934 66.6221 36.0048 66.6538 36.0918C66.6855 36.1788 66.6814 36.2747 66.6423 36.3586C66.6032 36.4424 66.5323 36.5073 66.4453 36.5389C66.3583 36.5705 66.2623 36.5663 66.1783 36.5272L66.1787 36.5273ZM62.3919 34.7615L60.1836 33.7318C60.0996 33.6926 60.0347 33.6218 60.0029 33.5348C59.9712 33.4478 59.9754 33.3519 60.0145 33.268C60.0536 33.1842 60.1244 33.1193 60.2114 33.0877C60.2984 33.0561 60.3945 33.0603 60.4784 33.0994L62.6872 34.1294C62.7712 34.1686 62.8361 34.2394 62.8678 34.3264C62.8996 34.4133 62.8954 34.5093 62.8563 34.5932C62.8172 34.677 62.7464 34.7419 62.6594 34.7735C62.5723 34.8051 62.4763 34.8009 62.3924 34.7617L62.3919 34.7615ZM58.6051 32.9957L56.3968 31.966C56.3129 31.9268 56.2479 31.856 56.2162 31.769C56.1845 31.682 56.1886 31.5861 56.2277 31.5022C56.2668 31.4184 56.3377 31.3535 56.4247 31.3219C56.5117 31.2903 56.6077 31.2945 56.6917 31.3336L58.9005 32.3636C58.9844 32.4028 59.0494 32.4736 59.0811 32.5606C59.1128 32.6476 59.1086 32.7435 59.0695 32.8274C59.0304 32.9112 58.9596 32.9761 58.8726 33.0077C58.7856 33.0393 58.6895 33.0351 58.6056 32.9959L58.6051 32.9957ZM54.8185 31.23L52.6101 30.2002C52.5261 30.161 52.4611 30.0902 52.4294 30.0032C52.3977 29.9162 52.4019 29.8203 52.441 29.7364C52.4801 29.6526 52.5509 29.5877 52.6379 29.5561C52.7249 29.5245 52.821 29.5287 52.9049 29.5678L55.1139 30.5979C55.1978 30.637 55.2628 30.7079 55.2945 30.7949C55.3262 30.8818 55.322 30.9778 55.2829 31.0616C55.2438 31.1455 55.173 31.2104 55.086 31.242C54.999 31.2736 54.9029 31.2694 54.819 31.2302L54.8185 31.23ZM51.0319 29.4643L48.8242 28.4348C48.7403 28.3957 48.6753 28.3248 48.6436 28.2378C48.6119 28.1509 48.6161 28.0549 48.6552 27.9711C48.6943 27.8872 48.7651 27.8223 48.8521 27.7907C48.9391 27.7591 49.0351 27.7633 49.1191 27.8025L51.328 28.8325C51.412 28.8717 51.477 28.9425 51.5087 29.0295C51.5404 29.1165 51.5362 29.2124 51.4971 29.2963C51.458 29.3801 51.3872 29.445 51.3002 29.4766C51.2132 29.5082 51.1171 29.504 51.0332 29.4649L51.0319 29.4643ZM47.2452 27.6985L45.0367 26.6686C44.9527 26.6295 44.8878 26.5586 44.856 26.4717C44.8243 26.3847 44.8285 26.2887 44.8676 26.2049C44.9067 26.121 44.9775 26.0562 45.0645 26.0246C45.1515 25.9929 45.2476 25.9972 45.3315 26.0363L47.5405 27.0664C47.6244 27.1055 47.6894 27.1764 47.7211 27.2633C47.7528 27.3503 47.7487 27.4463 47.7096 27.5301C47.6705 27.614 47.5996 27.6788 47.5126 27.7105C47.4256 27.7421 47.3296 27.7378 47.2456 27.6987L47.2452 27.6985ZM43.4585 25.9327L41.2501 24.9029C41.1661 24.8638 41.1012 24.7929 41.0694 24.706C41.0377 24.619 41.0419 24.523 41.081 24.4392C41.1201 24.3553 41.1909 24.2904 41.2779 24.2588C41.3649 24.2272 41.461 24.2315 41.5449 24.2706L43.7542 25.3008C43.8381 25.3399 43.9031 25.4108 43.9348 25.4978C43.9665 25.5847 43.9624 25.6807 43.9233 25.7645C43.8842 25.8484 43.8133 25.9133 43.7263 25.9449C43.6393 25.9765 43.5433 25.9723 43.4593 25.9331L43.4585 25.9327ZM39.6718 24.1669L37.4633 23.1371C37.3794 23.098 37.3144 23.0271 37.2827 22.9402C37.251 22.8532 37.2551 22.7572 37.2942 22.6734C37.3333 22.5895 37.4042 22.5247 37.4912 22.493C37.5782 22.4614 37.6742 22.4657 37.7582 22.5048L39.9671 23.5349C40.0511 23.574 40.116 23.6448 40.1477 23.7318C40.1794 23.8188 40.1753 23.9148 40.1362 23.9986C40.0971 24.0825 40.0262 24.1473 39.9392 24.1789C39.8522 24.2105 39.7562 24.2063 39.6723 24.1672L39.6718 24.1669Z" fill="#474747"/>
</g>
<path d="M58.9836 23.9251L50.4377 19.9401C48.8645 19.2065 46.9951 19.8857 46.2623 21.4572L37.2692 40.7429C36.5364 42.3144 37.2177 44.183 38.791 44.9167L47.3368 48.9017C48.9101 49.6353 50.7795 48.956 51.5123 47.3846L60.5054 28.0989C61.2382 26.5274 60.5568 24.6587 58.9836 23.9251Z" fill="#F79765"/>
<path d="M47.9509 47.5843L39.4051 43.5993C38.6496 43.247 38.0648 42.6094 37.7794 41.8267C37.494 41.0439 37.5314 40.1802 37.8833 39.4256L37.269 40.743C36.9171 41.4977 36.8797 42.3614 37.1651 43.1441C37.4505 43.9268 38.0352 44.5645 38.7907 44.9168L47.3366 48.9018C48.0921 49.2541 48.9565 49.2921 49.7395 49.0076C50.5226 48.7231 51.1602 48.1393 51.5121 47.3847L52.1263 46.0674C51.7744 46.822 51.1368 47.4057 50.3537 47.6902C49.5707 47.9747 48.7064 47.9366 47.9509 47.5843Z" fill="#E27444"/>
<path d="M58.9836 23.9253L50.4377 19.9403C49.6822 19.588 48.8179 19.5499 48.0348 19.8344C47.2518 20.1189 46.6142 20.7027 46.2623 21.4574L45.761 22.5323C46.1129 21.7777 46.7505 21.1939 47.5336 20.9094C48.3166 20.6249 49.181 20.6629 49.9365 21.0152L58.4823 25.0002C59.2378 25.3525 59.8226 25.9902 60.108 26.7729C60.3934 27.5556 60.356 28.4193 60.0041 29.174L60.5054 28.0991C60.8573 27.3444 60.8946 26.4807 60.6092 25.698C60.3239 24.9152 59.7391 24.2776 58.9836 23.9253Z" fill="#FFB797"/>
<path d="M47.1154 49.3759L38.5696 45.3909C37.6889 44.9791 37.0074 44.2351 36.6746 43.3222C36.3418 42.4094 36.3848 41.4021 36.7942 40.5216L45.7872 21.2359C46.1986 20.3562 46.9426 19.6759 47.8558 19.344C48.769 19.0122 49.777 19.0561 50.6586 19.4659L59.2044 23.4509C60.0851 23.8628 60.7666 24.6068 61.0994 25.5196C61.4323 26.4325 61.3893 27.4397 60.9799 28.3203L51.9868 47.606C51.5754 48.4857 50.8315 49.166 49.9182 49.4978C49.005 49.8296 47.997 49.7858 47.1154 49.3759ZM50.2163 20.4144C49.5866 20.1216 48.8666 20.0903 48.2143 20.3273C47.562 20.5643 47.0306 21.0503 46.7368 21.6787L37.7437 40.9643C37.4512 41.5933 37.4205 42.3128 37.6582 42.9648C37.896 43.6169 38.3828 44.1483 39.0118 44.4425L47.5577 48.4275C48.1874 48.7203 48.9074 48.7516 49.5597 48.5146C50.2121 48.2776 50.7434 47.7916 51.0373 47.1632L60.0303 27.8775C60.3228 27.2485 60.3535 26.5291 60.1157 25.8771C59.878 25.225 59.3912 24.6936 58.7622 24.3994L50.2163 20.4144Z" fill="#474747"/>
<path opacity="0.3" d="M45.4334 43.0682C47.4655 44.0158 49.8802 43.1385 50.8267 41.1086C51.7733 39.0788 50.8932 36.6651 48.8611 35.7175C46.829 34.7699 44.4143 35.6473 43.4678 37.6771C42.5213 39.7069 43.4013 42.1206 45.4334 43.0682Z" fill="#474747" stroke="#474747" stroke-width="4.92" stroke-linecap="round" stroke-linejoin="round"/>
<g style="mix-blend-mode:multiply" opacity="0.46">
<path d="M46.3906 46.5361L44.8334 45.8099C44.7494 45.7708 44.6845 45.6999 44.6528 45.613C44.621 45.526 44.6252 45.43 44.6643 45.3462C44.7034 45.2623 44.7742 45.1975 44.8612 45.1659C44.9483 45.1342 45.0443 45.1385 45.1282 45.1776L46.6855 45.9038C46.7694 45.9429 46.8344 46.0138 46.8661 46.1007C46.8978 46.1877 46.8937 46.2837 46.8546 46.3675C46.8155 46.4514 46.7446 46.5162 46.6576 46.5479C46.5706 46.5795 46.4746 46.5752 46.3906 46.5361ZM42.9648 44.9386L41.4078 44.2126C41.3238 44.1734 41.2588 44.1026 41.2271 44.0156C41.1954 43.9286 41.1996 43.8326 41.2387 43.7488C41.2778 43.6649 41.3486 43.6001 41.4356 43.5685C41.5226 43.5369 41.6187 43.5411 41.7026 43.5802L43.2597 44.3063C43.3436 44.3455 43.4086 44.4163 43.4403 44.5033C43.472 44.5902 43.4679 44.6862 43.4288 44.7701C43.3897 44.8539 43.3188 44.9188 43.2318 44.9504C43.1448 44.982 43.0488 44.9778 42.9648 44.9386ZM39.5392 43.3412L39.5281 43.3361C39.1927 43.1792 38.933 42.8958 38.8062 42.548C38.6794 42.2002 38.6958 41.8165 38.8518 41.4811L38.8822 41.4158C38.9213 41.3319 38.9922 41.2671 39.0792 41.2354C39.1662 41.2038 39.2622 41.2081 39.3462 41.2472C39.4301 41.2864 39.4951 41.3572 39.5268 41.4442C39.5585 41.5311 39.5544 41.6271 39.5153 41.711L39.4848 41.7763C39.4066 41.944 39.3983 42.1359 39.4617 42.3098C39.5252 42.4838 39.6551 42.6255 39.823 42.7038C39.9076 42.743 39.9734 42.8139 40.0061 42.9012C40.0388 42.9885 40.0357 43.0851 39.9976 43.1701C39.979 43.2116 39.9524 43.249 39.9192 43.2801C39.886 43.3113 39.8469 43.3355 39.8043 43.3514C39.7617 43.3673 39.7163 43.3746 39.6708 43.3729C39.6253 43.3711 39.5805 43.3604 39.5392 43.3412ZM48.2659 47.3888C48.1874 47.352 48.1254 47.2874 48.0919 47.2075C48.0584 47.1276 48.0559 47.0382 48.0847 46.9565C48.1135 46.8749 48.1717 46.8069 48.248 46.7658C48.3242 46.7247 48.413 46.7134 48.4972 46.7342C48.6542 46.7725 48.8197 46.7554 48.9655 46.6857C49.1112 46.6159 49.2283 46.4979 49.2967 46.3516L49.4134 46.1014C49.4525 46.0175 49.5234 45.9527 49.6104 45.9211C49.6974 45.8894 49.7934 45.8937 49.8774 45.9328C49.9613 45.972 50.0263 46.0428 50.058 46.1298C50.0897 46.2167 50.0856 46.3127 50.0465 46.3966L49.9298 46.6468C49.7928 46.9394 49.5586 47.1755 49.2669 47.3149C48.9753 47.4543 48.6443 47.4884 48.3301 47.4114C48.308 47.406 48.2865 47.3985 48.2659 47.3888ZM39.9217 40.0131C39.8377 39.9739 39.7728 39.9031 39.741 39.8161C39.7093 39.7292 39.7135 39.6332 39.7526 39.5493L40.4779 37.9938C40.517 37.91 40.5879 37.8451 40.6749 37.8135C40.7619 37.7819 40.8579 37.7861 40.9419 37.8253C41.0258 37.8644 41.0908 37.9353 41.1225 38.0222C41.1542 38.1092 41.15 38.2052 41.1109 38.289L40.3857 39.8444C40.3663 39.8859 40.339 39.9232 40.3052 39.9541C40.2714 39.9851 40.2318 40.009 40.1887 40.0247C40.1456 40.0403 40.0999 40.0474 40.0541 40.0453C40.0083 40.0433 39.9633 40.0323 39.9217 40.0129L39.9217 40.0131ZM50.4528 44.6987C50.3689 44.6595 50.3039 44.5887 50.2722 44.5017C50.2405 44.4148 50.2447 44.3188 50.2838 44.2349L51.0091 42.6794C51.0482 42.5956 51.1191 42.5307 51.2061 42.4991C51.2931 42.4675 51.3891 42.4717 51.473 42.5109C51.557 42.55 51.622 42.6209 51.6537 42.7078C51.6854 42.7948 51.6812 42.8908 51.6421 42.9746L50.9169 44.53C50.8975 44.5715 50.8701 44.6088 50.8364 44.6397C50.8026 44.6707 50.763 44.6946 50.7199 44.7103C50.6768 44.7259 50.6311 44.733 50.5853 44.7309C50.5395 44.7289 50.4945 44.7179 50.4529 44.6985L50.4528 44.6987ZM41.5173 36.5913C41.4333 36.5522 41.3684 36.4813 41.3366 36.3943C41.3049 36.3074 41.3091 36.2114 41.3482 36.1276L42.0735 34.5722C42.1126 34.4884 42.1834 34.4235 42.2704 34.3919C42.3574 34.3603 42.4535 34.3645 42.5374 34.4036C42.6213 34.4428 42.6863 34.5136 42.718 34.6006C42.7497 34.6876 42.7456 34.7835 42.7065 34.8674L41.9812 36.4227C41.9421 36.5065 41.8712 36.5714 41.7843 36.6029C41.6973 36.6345 41.6013 36.6303 41.5173 36.5911L41.5173 36.5913ZM52.0485 41.2769C51.9645 41.2378 51.8995 41.1669 51.8678 41.0799C51.8361 40.993 51.8403 40.897 51.8794 40.8131L52.6047 39.2576C52.6438 39.1738 52.7147 39.1089 52.8017 39.0773C52.8887 39.0457 52.9847 39.0499 53.0686 39.0891C53.1526 39.1282 53.2176 39.1991 53.2493 39.286C53.281 39.373 53.2768 39.469 53.2377 39.5528L52.5124 41.1083C52.4733 41.1921 52.4024 41.257 52.3154 41.2885C52.2285 41.3201 52.1324 41.3159 52.0485 41.2767L52.0485 41.2769ZM43.1129 33.1695C43.0289 33.1304 42.964 33.0595 42.9323 32.9725C42.9005 32.8856 42.9047 32.7896 42.9438 32.7058L43.6691 31.1503C43.7082 31.0664 43.7791 31.0015 43.8661 30.9699C43.9531 30.9383 44.0491 30.9426 44.1331 30.9817C44.217 31.0208 44.282 31.0917 44.3137 31.1787C44.3454 31.2656 44.3413 31.3616 44.3022 31.4454L43.5768 33.0009C43.5377 33.0847 43.4668 33.1496 43.3799 33.1811C43.2929 33.2127 43.1968 33.2086 43.1129 33.1695ZM53.6441 37.855C53.5602 37.8158 53.4952 37.745 53.4635 37.658C53.4318 37.571 53.4359 37.4751 53.475 37.3912L54.2003 35.8359C54.2394 35.752 54.3103 35.6871 54.3973 35.6555C54.4843 35.6239 54.5803 35.6282 54.6643 35.6673C54.7482 35.7064 54.8132 35.7773 54.8449 35.8643C54.8766 35.9512 54.8724 36.0472 54.8333 36.131L54.1081 37.6864C54.0689 37.7702 53.9981 37.835 53.9111 37.8666C53.8241 37.8982 53.7281 37.8939 53.6442 37.8548L53.6441 37.855ZM44.7086 29.7476C44.6246 29.7084 44.5596 29.6376 44.5279 29.5506C44.4962 29.4636 44.5004 29.3677 44.5395 29.2838L45.2649 27.7282C45.304 27.6443 45.3748 27.5794 45.4618 27.5478C45.5488 27.5162 45.6449 27.5205 45.7288 27.5596C45.8128 27.5987 45.8777 27.6696 45.9095 27.7566C45.9412 27.8435 45.937 27.9395 45.8979 28.0233L45.1726 29.5787C45.1533 29.6202 45.1259 29.6575 45.0922 29.6885C45.0584 29.7195 45.0188 29.7435 44.9757 29.7591C44.9326 29.7748 44.8868 29.7818 44.841 29.7798C44.7952 29.7778 44.7501 29.767 44.7086 29.7476ZM55.2397 34.4332C55.1558 34.394 55.0908 34.3232 55.0591 34.2362C55.0274 34.1492 55.0315 34.0533 55.0707 33.9694L55.7959 32.4141C55.835 32.3302 55.9059 32.2654 55.9929 32.2338C56.0799 32.2021 56.1759 32.2064 56.2599 32.2455C56.3438 32.2847 56.4088 32.3555 56.4405 32.4425C56.4722 32.5294 56.468 32.6254 56.4289 32.7093L55.7037 34.2646C55.6645 34.3484 55.5937 34.4132 55.5067 34.4448C55.4197 34.4764 55.3237 34.4721 55.2398 34.433L55.2397 34.4332ZM46.3042 26.3258C46.2202 26.2866 46.1552 26.2158 46.1235 26.1288C46.0918 26.0418 46.096 25.9459 46.1351 25.862L46.8604 24.3065C46.8995 24.2227 46.9704 24.1578 47.0574 24.1262C47.1444 24.0946 47.2404 24.0988 47.3244 24.138C47.4083 24.1771 47.4733 24.248 47.505 24.3349C47.5367 24.4219 47.5325 24.5179 47.4934 24.6017L46.7681 26.1572C46.729 26.241 46.6581 26.3058 46.5711 26.3374C46.4842 26.369 46.3881 26.3649 46.3042 26.3258ZM56.8353 31.0114C56.7514 30.9722 56.6864 30.9014 56.6547 30.8144C56.623 30.7275 56.6272 30.6315 56.6663 30.5476L57.3916 28.9921C57.4307 28.9083 57.5015 28.8434 57.5886 28.8118C57.6756 28.7802 57.7716 28.7844 57.8555 28.8236C57.9395 28.8627 58.0045 28.9336 58.0362 29.0205C58.0679 29.1075 58.0637 29.2035 58.0246 29.2873L57.2993 30.8428C57.2602 30.9266 57.1893 30.9914 57.1023 31.023C57.0153 31.0546 56.9193 31.0504 56.8354 31.0112L56.8353 31.0114ZM47.8998 22.9038C47.8159 22.8647 47.7509 22.7938 47.7192 22.7069C47.6875 22.6199 47.6917 22.5239 47.7308 22.4401L47.8449 22.1954C47.9823 21.9013 48.2179 21.6643 48.5114 21.5251C48.8048 21.386 49.1377 21.3534 49.4528 21.4329C49.5421 21.456 49.6187 21.5135 49.6658 21.5929C49.7129 21.6722 49.7266 21.7669 49.704 21.8563C49.6814 21.9457 49.6244 22.0225 49.5453 22.0699C49.4661 22.1173 49.3714 22.1315 49.2818 22.1093C49.1243 22.0696 48.958 22.0859 48.8113 22.1555C48.6647 22.2252 48.5469 22.3437 48.4784 22.4908L48.3643 22.7355C48.3449 22.777 48.3175 22.8143 48.2836 22.8453C48.2498 22.8762 48.2102 22.9002 48.167 22.9158C48.1239 22.9314 48.0781 22.9384 48.0323 22.9363C47.9865 22.9342 47.9414 22.9233 47.8998 22.9038ZM58.431 27.5894C58.3471 27.5503 58.2821 27.4794 58.2504 27.3925C58.2187 27.3055 58.2228 27.2095 58.2619 27.1257L58.2898 27.0659C58.368 26.8982 58.3763 26.7063 58.3129 26.5324C58.2495 26.3584 58.1195 26.2167 57.9516 26.1384C57.8674 26.0992 57.802 26.0283 57.7698 25.9412C57.7376 25.8541 57.7411 25.7578 57.7797 25.6734C57.7987 25.6318 57.8257 25.5945 57.8592 25.5635C57.8927 25.5325 57.932 25.5084 57.9749 25.4926C58.0178 25.4768 58.0633 25.4696 58.109 25.4715C58.1546 25.4734 58.1995 25.4843 58.2409 25.5035L58.2465 25.5061C58.582 25.663 58.8416 25.9464 58.9684 26.2942C59.0952 26.642 59.0788 27.0257 58.9228 27.3611L58.895 27.4209C58.8558 27.5047 58.785 27.5695 58.698 27.6011C58.611 27.6327 58.515 27.6284 58.4311 27.5893L58.431 27.5894ZM56.0776 25.2645L54.5203 24.5384C54.4364 24.4992 54.3714 24.4284 54.3397 24.3414C54.308 24.2545 54.3121 24.1585 54.3512 24.0746C54.3903 23.9908 54.4612 23.9259 54.5482 23.8943C54.6352 23.8627 54.7312 23.8669 54.8152 23.9061L56.3724 24.6322C56.4564 24.6714 56.5213 24.7422 56.553 24.8292C56.5847 24.9162 56.5806 25.0121 56.5415 25.096C56.5024 25.1798 56.4315 25.2447 56.3445 25.2763C56.2575 25.3079 56.1615 25.3037 56.0776 25.2645ZM52.6518 23.6671L51.0947 22.941C51.0107 22.9018 50.9458 22.831 50.9141 22.744C50.8823 22.6571 50.8865 22.5611 50.9256 22.4772C50.9647 22.3934 51.0355 22.3285 51.1226 22.2969C51.2096 22.2653 51.3056 22.2695 51.3895 22.3087L52.9466 23.0348C53.0306 23.0739 53.0955 23.1447 53.1273 23.2317C53.159 23.3187 53.1548 23.4147 53.1157 23.4985C53.0766 23.5824 53.0058 23.6472 52.9188 23.6788C52.8318 23.7104 52.7357 23.7062 52.6518 23.6671Z" fill="#474747"/>
</g>
<path d="M45.4007 41.8983C47.4328 42.8459 49.8475 41.9685 50.794 39.9387C51.7405 37.9089 50.8605 35.4952 48.8284 34.5476C46.7963 33.6 44.3816 34.4773 43.4351 36.5072C42.4886 38.537 43.3686 40.9507 45.4007 41.8983Z" fill="#8F6D5D"/>
<path d="M45.1541 42.2363C44.3325 41.8532 43.6428 41.2353 43.1723 40.4608C42.7017 39.6862 42.4715 38.7899 42.5106 37.885C42.5498 36.9802 42.8566 36.1075 43.3922 35.3773C43.9279 34.6471 44.6683 34.0922 45.5199 33.7828C46.3715 33.4734 47.296 33.4233 48.1765 33.639C49.057 33.8546 49.8539 34.3263 50.4666 34.9943C51.0792 35.6624 51.48 36.4968 51.6183 37.392C51.7565 38.2873 51.6261 39.2032 51.2434 40.0239C50.7291 41.1235 49.7992 41.9739 48.6576 42.3887C47.5161 42.8034 46.2561 42.7486 45.1541 42.2363ZM48.5818 34.8856C47.948 34.5901 47.2409 34.4889 46.5498 34.5949C45.8588 34.7009 45.2149 35.0093 44.6996 35.4811C44.1843 35.9529 43.8207 36.567 43.6548 37.2456C43.4889 37.9242 43.5281 38.6369 43.7676 39.2936C44.007 39.9503 44.4359 40.5214 44.9999 40.9348C45.564 41.3482 46.2379 41.5853 46.9364 41.616C47.635 41.6468 48.3268 41.4699 48.9244 41.1077C49.522 40.7455 49.9986 40.2142 50.2938 39.5811C50.6886 38.732 50.7301 37.7607 50.4091 36.8805C50.0882 36.0002 49.431 35.2828 48.5818 34.8856Z" fill="#474747"/>
<g opacity="0.6">
<path d="M49.5444 37.062C49.3994 37.722 48.5057 37.7722 47.3508 37.4979C46.1984 37.2142 45.2342 36.8074 45.3404 36.2405C45.4385 35.6806 46.5839 35.091 47.7771 35.2827C48.9761 35.4665 49.689 36.4129 49.5444 37.062Z" fill="#FFFCEE"/>
</g>
</svg>
