<svg width="48" height="48" viewBox="0 0 48 48" fill="none" xmlns="http://www.w3.org/2000/svg">
<path d="M19.5216 8.53916C21.072 7.04636 22.3344 3.91196 24.9792 4.85756C26.4096 5.72156 27.288 7.23356 28.3728 8.46236C30.6384 8.31836 32.8128 7.38716 35.088 7.32956C37.0224 7.50236 37.5792 9.71516 37.3008 11.328C38.5968 11.4672 40.6992 10.7616 41.208 12.4608C41.6112 13.5792 40.3872 13.9872 39.8736 14.6064C38.448 13.8432 36.5328 14.8512 35.2272 13.7088C34.4304 13.104 34.3776 12.0528 34.1808 11.1552C31.9248 10.2288 29.7024 11.9088 27.4224 11.4192C26.8128 11.1984 26.4 10.6752 25.9728 10.224C25.32 9.45596 24.6864 8.67356 24.0144 7.92956C22.7472 9.12956 21.9072 10.9056 20.1984 11.5488C18.0288 11.5344 15.9456 10.7088 13.7952 10.4592C13.5648 11.4576 13.848 12.6624 13.0272 13.4496C11.7936 14.7984 9.7392 14.1744 8.1312 14.2848C6.6288 14.2992 6.24 11.9568 7.6464 11.4384C8.6448 11.2176 9.6816 11.3664 10.6944 11.328C10.4208 9.71036 10.9728 7.49756 12.912 7.33436C15.1488 7.44956 17.3136 8.16476 19.5216 8.53916Z" fill="#3E2723"/>
<path d="M3.02881 18.7104C2.71201 17.16 5.09761 16.3104 5.78881 17.7696C6.47521 20.28 6.67681 22.9152 7.18561 25.4688C7.97281 25.1808 8.19361 24.2016 8.77441 23.6496C9.21601 22.92 10.1616 23.1168 10.8672 22.9008L10.824 23.1456C11.4432 23.9904 12.0624 24.84 12.8112 25.5792C13.1808 23.2848 13.5504 20.9904 13.9488 18.7008C14.0256 18.0672 14.2656 17.3952 14.904 17.1312C15.8784 16.6224 17.1936 17.6016 16.9584 18.6816C16.4016 22.3728 15.768 26.0544 15.1248 29.736C15.0336 30.8736 13.416 31.4592 12.6576 30.576C11.7024 29.4672 10.9008 28.2336 10.0368 27.0576C8.99041 28.2096 8.27041 29.616 7.19041 30.7392C6.34081 31.368 4.97281 30.7968 4.86721 29.7456C4.23841 26.0688 3.61921 22.392 3.02881 18.7104Z" fill="#3E2723"/>
<path d="M21.768 17.5199C24.3552 16.2143 27.6 17.5775 28.92 20.0399C31.08 23.5439 29.8848 28.9967 25.9104 30.6143C22.9824 31.9007 19.6224 29.8223 18.6 26.9999C17.1744 23.6591 18.3792 19.1567 21.768 17.5199ZM22.7664 20.3759C20.184 22.0799 20.4384 26.8847 23.4816 27.9359C26.0544 28.3535 27.4272 25.1375 26.8944 23.0111C26.6688 21.1679 24.6336 19.1615 22.7664 20.3759Z" fill="#3E2723"/>
<path d="M31.0368 18.6672C30.7008 17.0352 33.3408 16.3344 33.8544 17.9184C34.416 20.4048 34.7472 22.9488 35.1552 25.4688C36.3168 24.9648 36.4848 23.1456 37.8912 23.0208C39.3408 23.0064 39.8256 24.6816 40.6176 25.6032C41.6112 22.9776 41.3184 20.016 42.3888 17.4192C43.2384 16.6224 44.8224 17.064 44.9568 18.264C44.9664 19.3056 44.6688 20.3232 44.5776 21.3552C44.0304 24.1296 43.6608 26.9376 43.1328 29.7168C43.0464 30.7536 41.6928 31.3968 40.848 30.7584C39.7344 29.6736 39.0624 28.2192 37.9584 27.12C37.0608 28.248 36.2976 29.4864 35.3424 30.576C34.5648 31.464 32.952 30.864 32.8656 29.7168C32.232 26.04 31.5984 22.3584 31.0368 18.6672Z" fill="#3E2723"/>
<path d="M11.2177 34.3055C11.6449 34.9103 12.4849 34.9631 12.9841 35.4815C13.8049 36.3023 13.6129 37.5503 13.8049 38.5967C15.9265 38.2271 18.0145 37.5119 20.1649 37.4447C21.8881 38.0975 22.7857 39.8447 24.0049 41.1119C25.4113 39.7295 26.4817 37.1711 28.8289 37.4927C30.6433 37.8047 32.4385 38.2223 34.2385 38.6207C34.3201 37.3631 34.2481 35.8031 35.5057 35.0783C36.8305 34.4255 38.3857 34.7327 39.8113 34.7087C41.1649 34.6511 41.7793 36.6143 40.6657 37.3727C39.6673 37.9535 38.4241 37.5983 37.3297 37.6943C37.5409 39.3119 37.0177 41.5151 35.0689 41.6735C32.8897 41.5343 30.7681 40.8959 28.6417 40.4351C27.0337 41.6591 26.2321 44.1455 24.0001 44.3471C21.7825 44.1359 20.9569 41.6879 19.3921 40.4351C18.2353 40.7279 17.0689 40.9727 15.8977 41.2031C14.6113 41.3951 13.2097 42.0623 11.9713 41.3567C10.6417 40.6751 10.6225 38.9807 10.6945 37.6895C9.30246 37.6895 6.73926 38.1551 6.73926 36.0431C7.18566 33.9647 9.77766 34.8383 11.2705 34.7519L11.2177 34.3055Z" fill="#3E2723"/>
</svg>
